{"glyphs":{"0":{"ha":792,"x_min":7,"x_max":794,"o":"m 785 419 q 747 176 794 276 q 609 22 700 75 q 396 -31 518 -31 q 109 88 211 -31 q 7 417 7 206 q 53 634 7 543 q 185 776 99 725 q 393 835 271 826 q 602 790 518 843 q 731 640 686 738 q 785 419 776 543 m 257 417 q 287 255 257 311 q 390 206 317 199 q 478 235 447 211 q 522 304 510 260 q 535 417 535 349 q 522 520 535 474 q 479 592 508 567 q 401 613 450 618 q 315 581 347 607 q 270 514 283 556 q 257 417 257 472 z "},"1":{"ha":618,"x_min":7,"x_max":618,"o":"m 144 -14 q 41 19 75 -19 q 7 108 7 58 q 36 186 7 157 q 114 215 65 215 l 150 215 q 181 246 181 215 l 181 482 q 174 504 181 497 q 157 508 168 511 q 137 501 147 504 q 115 499 126 499 q 36 539 65 499 q 7 626 7 579 q 31 698 7 669 q 96 735 54 726 q 178 762 143 746 q 250 804 214 778 q 340 838 294 838 q 416 810 386 839 q 444 726 446 781 l 433 254 q 439 231 433 238 q 460 225 444 225 q 474 226 468 225 q 488 228 481 228 q 578 199 538 229 q 618 107 618 169 q 583 25 618 50 q 497 0 547 0 q 322 -3 403 0 q 144 -14 240 -7 z "},"2":{"ha":753,"x_min":1,"x_max":753,"o":"m 133 -14 q 43 23 76 -19 q 7 126 10 65 q 28 242 7 194 q 87 325 50 290 q 172 387 124 360 q 276 442 221 414 q 365 481 324 465 q 437 511 406 497 q 486 541 468 525 q 504 578 504 557 q 485 618 504 603 q 433 641 465 633 q 363 649 401 649 q 268 637 308 649 q 186 597 228 625 q 115 579 153 576 q 49 606 78 582 q 11 672 19 629 q 24 753 1 717 q 89 808 47 789 q 224 849 153 835 q 363 864 294 864 q 564 828 479 864 q 694 729 649 793 q 740 578 740 665 q 714 479 740 519 q 645 413 688 439 q 555 368 603 386 q 463 337 507 350 q 386 311 418 324 q 345 287 360 300 q 322 260 331 274 q 312 233 306 249 q 340 219 318 218 q 483 230 411 224 q 628 243 556 236 q 715 208 678 247 q 753 107 753 168 q 717 29 753 58 q 632 0 681 0 q 381 -1 506 0 q 133 -14 257 -3 z "},"3":{"ha":717,"x_min":0,"x_max":717,"o":"m 333 -124 q 206 -115 269 -124 q 86 -89 142 -106 q 27 -45 49 -75 q 6 33 6 -15 q 28 107 6 74 q 89 153 51 140 q 171 144 126 165 q 245 121 204 129 q 333 113 286 113 q 438 134 410 113 q 467 203 467 156 q 453 264 467 235 q 407 309 439 293 q 321 317 375 325 q 176 314 229 301 q 119 390 122 326 q 129 454 118 428 q 168 501 140 481 l 258 586 q 272 612 275 599 q 247 624 268 625 q 190 620 218 622 q 131 614 161 618 q 67 627 97 610 q 19 675 38 644 q 0 740 0 706 q 37 820 0 790 q 124 850 74 850 l 544 850 q 628 819 600 850 q 655 744 657 788 q 613 664 653 701 l 496 549 q 484 526 483 536 q 503 508 485 515 q 618 449 571 492 q 691 343 665 406 q 717 203 717 281 q 669 39 717 113 q 534 -79 621 -35 q 333 -124 447 -124 z "},"4":{"ha":814,"x_min":-17,"x_max":792,"o":"m 544 -124 q 477 -105 508 -124 q 426 -54 446 -86 q 407 14 407 -22 l 407 101 q 393 115 407 115 q 276 113 347 115 q 113 101 206 110 q 44 116 74 97 q -1 167 15 135 q -17 238 -17 200 q -8 294 -17 267 q 19 347 1 322 q 106 469 65 414 q 194 576 147 524 q 299 683 240 628 q 438 804 358 739 q 493 837 464 824 q 560 850 522 850 q 641 816 611 850 q 671 726 671 782 q 668 598 671 653 q 663 489 665 543 q 658 365 660 435 q 668 351 658 351 l 685 351 q 740 333 717 351 q 778 287 764 315 q 792 226 792 258 q 760 148 792 181 q 685 115 728 115 l 668 115 q 660 101 657 115 q 663 65 661 83 q 669 28 665 47 q 666 -45 681 -10 q 619 -102 651 -81 q 544 -124 588 -124 m 322 344 q 353 346 339 344 q 385 349 368 347 q 401 353 393 350 q 408 363 408 356 q 410 404 408 386 q 411 446 411 422 q 403 466 411 460 q 385 465 396 472 q 352 434 368 451 q 324 398 336 417 q 303 363 311 379 q 322 344 293 344 z "},"5":{"ha":774,"x_min":0,"x_max":774,"o":"m 390 -135 q 263 -126 326 -135 q 146 -99 199 -117 q 84 -53 104 -86 q 64 24 64 -19 q 87 97 64 65 q 147 139 110 128 q 226 132 183 150 q 297 109 263 117 q 390 101 331 101 q 470 119 442 101 q 511 167 499 138 q 524 231 524 197 q 490 321 524 288 q 376 354 457 354 q 290 350 328 354 q 217 338 253 346 q 110 355 151 324 q 69 439 69 386 l 69 613 q 65 633 69 625 q 49 650 60 642 q 13 692 26 665 q 0 751 0 718 q 35 828 0 796 q 138 861 69 861 q 353 865 253 861 q 565 888 453 868 q 637 879 600 894 q 699 832 674 864 q 725 751 725 800 q 707 687 725 717 q 657 640 689 657 q 585 625 625 622 q 466 629 524 628 q 350 628 408 631 q 319 603 319 626 l 319 564 q 338 543 322 540 q 356 544 347 543 q 374 546 364 546 q 584 520 494 554 q 724 413 674 486 q 774 231 774 339 q 726 40 774 122 q 591 -89 678 -43 q 390 -135 504 -135 z "},"6":{"ha":771,"x_min":0,"x_max":746,"o":"m 0 347 q 35 572 0 468 q 136 756 71 675 q 294 888 201 838 q 503 953 388 939 q 599 930 563 960 q 635 850 635 900 q 603 772 635 800 q 522 738 572 744 q 415 700 461 729 q 339 622 369 671 q 322 590 325 606 q 326 576 318 575 q 349 583 338 581 q 372 586 361 585 q 569 560 485 594 q 699 453 653 525 q 746 278 746 382 q 699 126 746 193 q 570 18 653 58 q 379 -31 488 -22 q 174 10 260 -39 q 44 148 89 60 q 0 347 0 236 m 256 286 q 292 221 267 246 q 374 199 317 196 q 468 238 440 203 q 496 311 496 272 q 467 383 496 356 q 376 410 438 410 q 327 406 350 410 q 288 397 304 403 q 263 381 272 390 q 249 339 249 365 q 256 286 249 313 z "},"7":{"ha":721,"x_min":3,"x_max":713,"o":"m 239 -124 q 146 -80 181 -124 q 118 24 111 -36 q 143 149 125 88 q 188 266 161 210 q 244 376 214 322 q 306 480 275 429 q 367 579 338 531 q 371 606 376 596 q 347 615 365 617 q 240 612 293 614 q 133 603 186 610 q 70 616 100 599 q 22 664 40 633 q 3 729 3 694 q 21 792 3 763 q 68 838 39 821 q 131 853 97 856 q 358 841 244 843 q 586 839 472 839 q 678 808 647 839 q 710 736 708 778 q 692 661 713 694 q 630 571 663 618 q 564 472 597 524 q 499 364 531 419 q 443 251 468 308 q 402 133 418 193 q 382 10 386 72 q 358 -58 379 -28 q 306 -106 338 -89 q 239 -124 275 -124 z "},"8":{"ha":760,"x_min":10,"x_max":749,"o":"m 44 694 q 88 826 44 767 q 206 921 131 885 q 379 957 281 957 q 554 921 479 957 q 671 826 629 885 q 713 694 713 767 q 693 603 713 647 q 635 524 674 558 q 624 503 624 514 q 636 482 624 493 q 717 388 686 442 q 749 269 749 333 q 702 118 749 186 q 573 10 656 50 q 379 -31 490 -31 q 188 10 271 -31 q 57 118 104 50 q 10 269 10 186 q 38 389 10 333 q 114 486 65 444 q 117 528 135 508 q 64 603 83 561 q 44 694 44 646 m 281 683 q 298 645 281 658 q 358 618 315 632 q 379 613 369 613 q 400 618 389 613 q 447 635 429 628 q 470 655 464 643 q 476 683 476 667 q 454 724 476 706 q 379 742 432 742 q 303 724 326 742 q 281 683 281 706 m 260 289 q 272 246 260 268 q 310 210 285 224 q 376 199 336 196 q 472 231 444 203 q 499 289 499 258 q 483 324 499 308 q 439 352 467 339 q 376 379 411 365 q 351 382 364 383 q 321 369 338 381 q 290 347 304 360 q 268 322 276 335 q 260 289 260 308 z "},"9":{"ha":771,"x_min":0,"x_max":746,"o":"m 746 486 q 710 260 746 367 q 610 72 675 154 q 451 -61 544 -11 q 239 -119 357 -111 q 145 -94 179 -124 q 111 -17 111 -64 q 143 68 111 31 q 229 110 175 106 q 333 126 293 114 q 395 158 372 139 q 429 200 418 178 q 434 213 438 207 q 422 217 431 218 q 403 211 415 214 q 374 208 390 208 q 176 250 261 207 q 46 372 92 293 q 0 556 0 451 q 47 710 0 640 q 176 823 93 781 q 369 864 260 865 q 573 815 489 864 q 701 682 657 767 q 746 486 746 597 m 490 547 q 454 610 479 589 q 367 635 429 631 q 277 608 304 639 q 250 536 250 576 q 278 461 250 485 q 369 438 306 438 q 422 440 399 438 q 463 447 446 443 q 483 457 479 451 q 498 490 494 471 q 490 547 501 510 z "},"A":{"ha":844,"x_min":0,"x_max":846,"o":"m 163 -28 q 88 -8 119 -28 q 44 47 57 13 q 44 122 31 81 q 48 135 46 126 q 51 147 50 143 q 49 158 51 156 q 45 163 47 160 q 40 167 43 165 q 22 185 31 176 q 6 209 13 193 q 0 258 0 225 l 0 261 q 14 319 0 294 q 48 358 28 344 q 85 371 68 371 l 103 371 q 131 403 121 371 q 170 529 151 474 q 208 635 189 585 q 248 740 226 686 q 294 860 269 794 q 439 957 332 957 q 581 860 543 957 q 675 613 631 733 q 759 372 719 492 q 831 124 799 251 q 814 15 846 57 q 719 -28 782 -28 q 622 6 663 -28 q 575 103 581 40 q 572 114 574 108 q 568 132 571 119 q 546 149 563 149 q 485 149 508 149 q 444 148 463 149 q 402 146 425 147 q 340 143 379 144 q 318 139 329 143 q 304 121 307 135 q 302 105 303 110 q 299 85 301 100 q 255 1 293 31 q 163 -28 217 -28 m 390 371 q 433 372 413 371 q 475 375 453 372 q 493 388 489 378 q 494 410 497 399 q 472 497 482 456 q 446 574 461 538 q 438 583 444 581 q 426 574 432 585 q 399 495 410 532 q 378 411 388 458 q 378 383 375 394 q 390 371 381 371 z "},"Á":{"ha":844,"x_min":0,"x_max":846,"o":"m 163 -28 q 88 -8 119 -28 q 44 47 57 13 q 44 122 31 81 q 48 135 46 126 q 51 147 50 143 q 49 158 51 156 q 45 163 47 160 q 40 167 43 165 q 22 185 31 176 q 6 209 13 193 q 0 258 0 225 l 0 261 q 14 319 0 294 q 48 358 28 344 q 85 371 68 371 l 103 371 q 131 403 121 371 q 170 529 151 474 q 208 635 189 585 q 248 740 226 686 q 294 860 269 794 q 439 957 332 957 q 581 860 543 957 q 675 613 631 733 q 759 372 719 492 q 831 124 799 251 q 814 15 846 57 q 719 -28 782 -28 q 622 6 663 -28 q 575 103 581 40 q 572 114 574 108 q 568 132 571 119 q 546 149 563 149 q 485 149 508 149 q 444 148 463 149 q 402 146 425 147 q 340 143 379 144 q 318 139 329 143 q 304 121 307 135 q 302 105 303 110 q 299 85 301 100 q 255 1 293 31 q 163 -28 217 -28 m 390 371 q 433 372 413 371 q 475 375 453 372 q 493 388 489 378 q 494 410 497 399 q 472 497 482 456 q 446 574 461 538 q 438 583 444 581 q 426 574 432 585 q 399 495 410 532 q 378 411 388 458 q 378 383 375 394 q 390 371 381 371 m 404 954 q 328 938 368 928 q 265 988 288 949 l 264 990 q 252 1061 244 1025 q 294 1121 260 1097 q 374 1173 335 1147 q 450 1232 413 1199 q 501 1258 472 1254 q 558 1249 531 1261 q 606 1208 586 1236 l 611 1200 q 626 1135 629 1174 q 604 1064 624 1096 q 551 1024 585 1032 q 469 993 504 1011 q 404 954 433 975 z "},"Ă":{"ha":844,"x_min":0,"x_max":846,"o":"m 163 -28 q 88 -8 119 -28 q 44 47 57 13 q 44 122 31 81 q 48 135 46 126 q 51 147 50 143 q 49 158 51 156 q 45 163 47 160 q 40 167 43 165 q 22 185 31 176 q 6 209 13 193 q 0 258 0 225 l 0 261 q 14 319 0 294 q 48 358 28 344 q 85 371 68 371 l 103 371 q 131 403 121 371 q 170 529 151 474 q 208 635 189 585 q 248 740 226 686 q 294 860 269 794 q 439 957 332 957 q 581 860 543 957 q 675 613 631 733 q 759 372 719 492 q 831 124 799 251 q 814 15 846 57 q 719 -28 782 -28 q 622 6 663 -28 q 575 103 581 40 q 572 114 574 108 q 568 132 571 119 q 546 149 563 149 q 485 149 508 149 q 444 148 463 149 q 402 146 425 147 q 340 143 379 144 q 318 139 329 143 q 304 121 307 135 q 302 105 303 110 q 299 85 301 100 q 255 1 293 31 q 163 -28 217 -28 m 390 371 q 433 372 413 371 q 475 375 453 372 q 493 388 489 378 q 494 410 497 399 q 472 497 482 456 q 446 574 461 538 q 438 583 444 581 q 426 574 432 585 q 399 495 410 532 q 378 411 388 458 q 378 383 375 394 q 390 371 381 371 m 254 1243 q 316 1224 289 1243 q 354 1163 343 1204 q 383 1123 363 1138 q 431 1108 404 1108 q 467 1113 450 1108 q 495 1126 485 1117 q 506 1150 506 1135 q 536 1224 506 1192 q 608 1257 567 1257 l 610 1257 q 667 1240 642 1257 q 709 1195 693 1222 q 722 1136 725 1168 q 675 1017 717 1071 q 569 931 633 963 q 431 900 506 900 q 305 931 363 900 q 208 1015 247 963 q 154 1129 168 1067 q 176 1211 146 1179 q 253 1243 206 1243 l 254 1243 z "},"Ǎ":{"ha":844,"x_min":0,"x_max":846,"o":"m 163 -28 q 88 -8 119 -28 q 44 47 57 13 q 44 122 31 81 q 48 135 46 126 q 51 147 50 143 q 49 158 51 156 q 45 163 47 160 q 40 167 43 165 q 22 185 31 176 q 6 209 13 193 q 0 258 0 225 l 0 261 q 14 319 0 294 q 48 358 28 344 q 85 371 68 371 l 103 371 q 131 403 121 371 q 170 529 151 474 q 208 635 189 585 q 248 740 226 686 q 294 860 269 794 q 439 957 332 957 q 581 860 543 957 q 675 613 631 733 q 759 372 719 492 q 831 124 799 251 q 814 15 846 57 q 719 -28 782 -28 q 622 6 663 -28 q 575 103 581 40 q 572 114 574 108 q 568 132 571 119 q 546 149 563 149 q 485 149 508 149 q 444 148 463 149 q 402 146 425 147 q 340 143 379 144 q 318 139 329 143 q 304 121 307 135 q 302 105 303 110 q 299 85 301 100 q 255 1 293 31 q 163 -28 217 -28 m 390 371 q 433 372 413 371 q 475 375 453 372 q 493 388 489 378 q 494 410 497 399 q 472 497 482 456 q 446 574 461 538 q 438 583 444 581 q 426 574 432 585 q 399 495 410 532 q 378 411 388 458 q 378 383 375 394 q 390 371 381 371 m 711 1189 q 724 1145 725 1169 q 709 1099 722 1121 q 674 1063 696 1076 q 579 1004 618 1029 q 497 947 540 979 q 378 947 438 901 q 288 1019 331 983 q 204 1075 244 1054 q 161 1126 171 1093 q 167 1189 151 1160 l 169 1193 q 232 1250 193 1242 q 306 1236 271 1258 q 365 1195 339 1215 q 426 1153 392 1175 q 435 1150 431 1151 q 444 1153 439 1149 q 496 1200 474 1174 q 557 1250 518 1226 q 633 1255 590 1271 q 708 1193 675 1239 l 711 1189 z "},"Â":{"ha":844,"x_min":0,"x_max":846,"o":"m 163 -28 q 88 -8 119 -28 q 44 47 57 13 q 44 122 31 81 q 48 135 46 126 q 51 147 50 143 q 49 158 51 156 q 45 163 47 160 q 40 167 43 165 q 22 185 31 176 q 6 209 13 193 q 0 258 0 225 l 0 261 q 14 319 0 294 q 48 358 28 344 q 85 371 68 371 l 103 371 q 131 403 121 371 q 170 529 151 474 q 208 635 189 585 q 248 740 226 686 q 294 860 269 794 q 439 957 332 957 q 581 860 543 957 q 675 613 631 733 q 759 372 719 492 q 831 124 799 251 q 814 15 846 57 q 719 -28 782 -28 q 622 6 663 -28 q 575 103 581 40 q 572 114 574 108 q 568 132 571 119 q 546 149 563 149 q 485 149 508 149 q 444 148 463 149 q 402 146 425 147 q 340 143 379 144 q 318 139 329 143 q 304 121 307 135 q 302 105 303 110 q 299 85 301 100 q 255 1 293 31 q 163 -28 217 -28 m 390 371 q 433 372 413 371 q 475 375 453 372 q 493 388 489 378 q 494 410 497 399 q 472 497 482 456 q 446 574 461 538 q 438 583 444 581 q 426 574 432 585 q 399 495 410 532 q 378 411 388 458 q 378 383 375 394 q 390 371 381 371 m 685 1099 q 724 1042 721 1079 q 708 969 726 1006 l 707 967 q 664 921 692 935 q 608 908 636 907 q 557 924 579 910 q 500 965 522 944 q 450 1006 478 986 q 425 1006 438 1014 q 376 965 397 986 q 318 924 354 944 q 249 910 289 904 q 182 942 208 915 l 179 944 q 147 1021 146 979 q 190 1085 149 1063 q 254 1122 219 1100 q 321 1165 289 1143 q 374 1208 353 1188 q 435 1235 401 1235 q 497 1213 469 1235 q 590 1152 540 1182 q 685 1099 640 1122 z "},"Ä":{"ha":844,"x_min":0,"x_max":846,"o":"m 163 -28 q 88 -8 119 -28 q 44 47 57 13 q 44 122 31 81 q 48 135 46 126 q 51 147 50 143 q 49 158 51 156 q 45 163 47 160 q 40 167 43 165 q 22 185 31 176 q 6 209 13 193 q 0 258 0 225 l 0 261 q 14 319 0 294 q 48 358 28 344 q 85 371 68 371 l 103 371 q 131 403 121 371 q 170 529 151 474 q 208 635 189 585 q 248 740 226 686 q 294 860 269 794 q 439 957 332 957 q 581 860 543 957 q 675 613 631 733 q 759 372 719 492 q 831 124 799 251 q 814 15 846 57 q 719 -28 782 -28 q 622 6 663 -28 q 575 103 581 40 q 572 114 574 108 q 568 132 571 119 q 546 149 563 149 q 485 149 508 149 q 444 148 463 149 q 402 146 425 147 q 340 143 379 144 q 318 139 329 143 q 304 121 307 135 q 302 105 303 110 q 299 85 301 100 q 255 1 293 31 q 163 -28 217 -28 m 390 371 q 433 372 413 371 q 475 375 453 372 q 493 388 489 378 q 494 410 497 399 q 472 497 482 456 q 446 574 461 538 q 438 583 444 581 q 426 574 432 585 q 399 495 410 532 q 378 411 388 458 q 378 383 375 394 q 390 371 381 371 m 293 958 q 201 995 239 958 q 164 1088 164 1032 q 201 1178 164 1142 q 294 1215 238 1215 q 384 1178 347 1215 q 421 1088 421 1142 q 384 995 421 1032 q 293 958 347 958 m 582 972 q 490 1009 528 972 q 453 1101 453 1046 q 490 1192 453 1156 q 583 1229 526 1229 q 673 1192 636 1229 q 710 1101 710 1156 q 673 1009 710 1046 q 582 972 636 972 z "},"À":{"ha":844,"x_min":0,"x_max":846,"o":"m 163 -28 q 88 -8 119 -28 q 44 47 57 13 q 44 122 31 81 q 48 135 46 126 q 51 147 50 143 q 49 158 51 156 q 45 163 47 160 q 40 167 43 165 q 22 185 31 176 q 6 209 13 193 q 0 258 0 225 l 0 261 q 14 319 0 294 q 48 358 28 344 q 85 371 68 371 l 103 371 q 131 403 121 371 q 170 529 151 474 q 208 635 189 585 q 248 740 226 686 q 294 860 269 794 q 439 957 332 957 q 581 860 543 957 q 675 613 631 733 q 759 372 719 492 q 831 124 799 251 q 814 15 846 57 q 719 -28 782 -28 q 622 6 663 -28 q 575 103 581 40 q 572 114 574 108 q 568 132 571 119 q 546 149 563 149 q 485 149 508 149 q 444 148 463 149 q 402 146 425 147 q 340 143 379 144 q 318 139 329 143 q 304 121 307 135 q 302 105 303 110 q 299 85 301 100 q 255 1 293 31 q 163 -28 217 -28 m 390 371 q 433 372 413 371 q 475 375 453 372 q 493 388 489 378 q 494 410 497 399 q 472 497 482 456 q 446 574 461 538 q 438 583 444 581 q 426 574 432 585 q 399 495 410 532 q 378 411 388 458 q 378 383 375 394 q 390 371 381 371 m 574 1122 q 625 1055 608 1099 q 621 974 642 1011 l 619 971 q 553 926 597 931 q 467 947 510 922 q 390 990 428 971 q 315 1022 353 1010 q 268 1060 283 1033 q 253 1119 253 1088 q 269 1179 254 1151 l 276 1190 q 346 1249 303 1235 q 422 1231 389 1264 q 501 1169 469 1189 q 574 1122 533 1149 z "},"Ā":{"ha":844,"x_min":0,"x_max":846,"o":"m 163 -28 q 88 -8 119 -28 q 44 47 57 13 q 44 122 31 81 q 48 135 46 126 q 51 147 50 143 q 49 158 51 156 q 45 163 47 160 q 40 167 43 165 q 22 185 31 176 q 6 209 13 193 q 0 258 0 225 l 0 261 q 14 319 0 294 q 48 358 28 344 q 85 371 68 371 l 103 371 q 131 403 121 371 q 170 529 151 474 q 208 635 189 585 q 248 740 226 686 q 294 860 269 794 q 439 957 332 957 q 581 860 543 957 q 675 613 631 733 q 759 372 719 492 q 831 124 799 251 q 814 15 846 57 q 719 -28 782 -28 q 622 6 663 -28 q 575 103 581 40 q 572 114 574 108 q 568 132 571 119 q 546 149 563 149 q 485 149 508 149 q 444 148 463 149 q 402 146 425 147 q 340 143 379 144 q 318 139 329 143 q 304 121 307 135 q 302 105 303 110 q 299 85 301 100 q 255 1 293 31 q 163 -28 217 -28 m 390 371 q 433 372 413 371 q 475 375 453 372 q 493 388 489 378 q 494 410 497 399 q 472 497 482 456 q 446 574 461 538 q 438 583 444 581 q 426 574 432 585 q 399 495 410 532 q 378 411 388 458 q 378 383 375 394 q 390 371 381 371 m 785 1100 q 767 1044 785 1071 q 724 1000 750 1017 q 667 986 697 983 q 210 986 438 1007 q 134 1017 164 982 q 104 1100 104 1053 l 104 1101 q 132 1174 104 1146 q 204 1201 160 1201 q 436 1203 321 1201 q 667 1215 551 1206 q 724 1201 697 1218 q 767 1158 750 1185 q 785 1101 785 1132 l 785 1100 z "},"Ą":{"ha":844,"x_min":0,"x_max":846,"o":"m 163 -28 q 88 -8 119 -28 q 44 47 57 13 q 44 122 31 81 q 48 135 46 126 q 51 147 50 143 q 49 158 51 156 q 45 163 47 160 q 40 167 43 165 q 22 185 31 176 q 6 209 13 193 q 0 258 0 225 l 0 261 q 14 319 0 294 q 48 358 28 344 q 85 371 68 371 l 103 371 q 131 403 121 371 q 170 529 151 474 q 208 635 189 585 q 248 740 226 686 q 294 860 269 794 q 439 957 332 957 q 581 860 543 957 q 675 613 631 733 q 759 372 719 492 q 831 124 799 251 q 814 15 846 57 q 719 -28 782 -28 q 622 6 663 -28 q 575 103 581 40 q 572 114 574 108 q 568 132 571 119 q 546 149 563 149 q 485 149 508 149 q 444 148 463 149 q 402 146 425 147 q 340 143 379 144 q 318 139 329 143 q 304 121 307 135 q 302 105 303 110 q 299 85 301 100 q 255 1 293 31 q 163 -28 217 -28 m 390 371 q 433 372 413 371 q 475 375 453 372 q 493 388 489 378 q 494 410 497 399 q 472 497 482 456 q 446 574 461 538 q 438 583 444 581 q 426 574 432 585 q 399 495 410 532 q 378 411 388 458 q 378 383 375 394 q 390 371 381 371 m 710 -264 q 620 -237 663 -264 q 557 -167 578 -211 q 547 -65 536 -122 q 575 -7 554 -29 q 620 27 596 15 q 660 42 644 39 l 717 54 l 743 15 q 732 9 743 15 q 709 -9 721 3 q 697 -39 697 -21 q 705 -56 697 -50 q 725 -65 713 -62 q 750 -67 738 -67 q 811 -87 785 -67 q 838 -147 838 -107 q 797 -235 838 -206 q 710 -264 757 -264 z "},"Å":{"ha":844,"x_min":0,"x_max":846,"o":"m 163 -28 q 88 -8 119 -28 q 44 47 57 13 q 44 122 31 81 q 48 135 46 126 q 51 147 50 143 q 49 158 51 156 q 45 163 47 160 q 40 167 43 165 q 22 185 31 176 q 6 209 13 193 q 0 258 0 225 l 0 261 q 14 319 0 294 q 48 358 28 344 q 85 371 68 371 l 103 371 q 131 403 121 371 q 170 529 151 474 q 208 635 189 585 q 248 740 226 686 q 294 860 269 794 q 439 957 332 957 q 581 860 543 957 q 675 613 631 733 q 759 372 719 492 q 831 124 799 251 q 814 15 846 57 q 719 -28 782 -28 q 622 6 663 -28 q 575 103 581 40 q 572 114 574 108 q 568 132 571 119 q 546 149 563 149 q 485 149 508 149 q 444 148 463 149 q 402 146 425 147 q 340 143 379 144 q 318 139 329 143 q 304 121 307 135 q 302 105 303 110 q 299 85 301 100 q 255 1 293 31 q 163 -28 217 -28 m 390 371 q 433 372 413 371 q 475 375 453 372 q 493 388 489 378 q 494 410 497 399 q 472 497 482 456 q 446 574 461 538 q 438 583 444 581 q 426 574 432 585 q 399 495 410 532 q 378 411 388 458 q 378 383 375 394 q 390 371 381 371 m 236 1058 q 263 1159 236 1114 q 336 1231 290 1204 q 438 1258 382 1258 q 538 1231 493 1258 q 611 1159 583 1204 q 639 1058 639 1114 q 617 957 639 1006 q 551 877 594 908 q 438 846 507 846 q 336 876 382 846 q 263 955 290 907 q 236 1058 236 1003 m 389 1056 q 404 1022 389 1038 q 438 1007 419 1007 q 472 1022 457 1007 q 486 1056 486 1038 q 472 1090 486 1075 q 438 1104 457 1104 q 404 1090 419 1104 q 389 1056 389 1075 z "},"Ã":{"ha":844,"x_min":0,"x_max":846,"o":"m 163 -28 q 88 -8 119 -28 q 44 47 57 13 q 44 122 31 81 q 48 135 46 126 q 51 147 50 143 q 49 158 51 156 q 45 163 47 160 q 40 167 43 165 q 22 185 31 176 q 6 209 13 193 q 0 258 0 225 l 0 261 q 14 319 0 294 q 48 358 28 344 q 85 371 68 371 l 103 371 q 131 403 121 371 q 170 529 151 474 q 208 635 189 585 q 248 740 226 686 q 294 860 269 794 q 439 957 332 957 q 581 860 543 957 q 675 613 631 733 q 759 372 719 492 q 831 124 799 251 q 814 15 846 57 q 719 -28 782 -28 q 622 6 663 -28 q 575 103 581 40 q 572 114 574 108 q 568 132 571 119 q 546 149 563 149 q 485 149 508 149 q 444 148 463 149 q 402 146 425 147 q 340 143 379 144 q 318 139 329 143 q 304 121 307 135 q 302 105 303 110 q 299 85 301 100 q 255 1 293 31 q 163 -28 217 -28 m 390 371 q 433 372 413 371 q 475 375 453 372 q 493 388 489 378 q 494 410 497 399 q 472 497 482 456 q 446 574 461 538 q 438 583 444 581 q 426 574 432 585 q 399 495 410 532 q 378 411 388 458 q 378 383 375 394 q 390 371 381 371 m 174 1007 q 150 1068 150 1035 q 175 1128 150 1101 q 217 1165 192 1144 q 274 1200 242 1185 q 343 1215 307 1215 q 415 1200 389 1215 q 458 1166 442 1185 q 490 1134 474 1147 q 529 1125 506 1121 q 550 1139 540 1128 q 571 1158 560 1150 q 635 1179 599 1179 q 700 1154 672 1179 l 707 1149 q 735 1102 728 1132 q 738 1042 743 1072 q 713 992 732 1011 q 629 941 682 963 q 529 919 576 919 q 453 933 482 919 q 406 965 424 947 q 375 996 388 982 q 349 1010 363 1010 q 323 1003 333 1010 q 299 988 313 997 q 236 969 269 965 q 179 1000 203 972 l 174 1007 z "},"Æ":{"ha":1253,"x_min":-6,"x_max":1232,"o":"m 108 -28 q 37 -6 65 -28 q 1 49 8 15 q 13 122 -6 83 q 142 381 74 258 q 288 626 211 503 q 447 886 364 750 q 568 954 488 954 l 1115 954 q 1195 924 1165 954 q 1225 842 1225 893 q 1193 751 1225 790 q 1108 718 1161 713 q 1014 728 1057 725 q 928 731 971 731 q 829 732 885 732 q 810 724 815 732 q 806 700 806 715 q 807 668 807 685 q 807 635 807 651 q 807 603 807 618 q 816 579 807 586 q 835 574 825 572 q 935 582 888 578 q 1044 596 982 586 q 1106 585 1079 603 q 1147 538 1132 568 q 1163 471 1163 508 q 1133 391 1163 421 q 1053 361 1103 361 q 935 358 986 361 q 846 350 885 356 q 823 342 832 349 q 813 322 814 336 q 809 274 811 301 q 804 217 807 247 q 809 198 803 201 q 829 194 815 194 q 931 195 888 194 q 1017 199 974 196 q 1115 208 1060 203 q 1200 175 1168 214 q 1232 82 1232 136 q 1202 2 1232 32 q 1122 -28 1172 -28 l 675 -28 q 585 4 624 -28 q 551 89 546 36 q 555 126 553 108 q 558 163 557 144 q 544 176 561 176 l 301 176 q 286 165 290 176 q 263 110 275 138 q 240 54 251 82 q 118 -28 204 -28 l 108 -28 m 411 399 l 558 399 q 572 413 572 399 q 572 538 574 475 q 567 664 569 600 q 559 675 565 674 q 547 667 553 676 q 471 541 507 604 q 401 415 435 478 q 401 403 399 408 q 411 399 404 399 z "},"B":{"ha":844,"x_min":8,"x_max":843,"o":"m 221 -17 q 152 -1 185 -17 q 100 44 119 15 q 83 110 81 72 q 88 237 86 169 q 92 372 90 304 q 94 503 94 439 q 94 625 94 568 q 90 725 93 682 q 81 739 90 736 q 58 746 71 742 q 32 763 44 750 q 14 811 19 776 q 28 881 8 846 q 103 926 47 915 q 191 938 139 933 q 303 944 243 942 q 424 946 364 946 q 708 864 604 946 q 813 633 813 782 q 802 567 813 593 q 769 519 792 540 q 753 479 753 499 q 772 438 753 460 q 815 385 800 415 q 833 307 831 354 q 792 131 843 204 q 647 21 742 58 q 424 -17 551 -17 l 221 -17 m 417 200 l 481 201 q 553 224 521 203 q 585 289 585 246 q 558 354 585 331 q 471 379 532 378 l 401 381 q 361 367 375 382 q 347 322 347 351 l 347 242 q 359 213 347 222 q 388 202 371 204 q 417 200 404 200 m 401 564 l 450 564 q 535 588 507 564 q 564 653 564 613 q 531 722 564 703 q 453 740 497 740 l 383 740 q 348 726 353 740 q 343 693 343 711 q 344 645 343 660 q 344 607 344 631 q 360 572 343 579 q 401 564 376 564 z "},"C":{"ha":681,"x_min":0,"x_max":692,"o":"m 389 -31 q 222 4 294 -31 q 101 101 150 39 q 26 242 51 163 q 0 410 0 321 l 0 482 q 25 654 0 569 q 99 807 50 739 q 222 916 149 875 q 389 957 294 957 q 596 900 510 957 q 651 820 644 868 q 617 732 657 772 q 541 692 585 700 q 457 706 497 683 q 420 726 436 718 q 389 735 404 735 q 312 700 343 735 q 265 608 281 665 q 250 482 250 551 l 250 410 q 283 257 250 308 q 389 206 315 206 q 453 217 421 206 q 522 240 485 229 q 605 235 564 254 q 671 160 646 215 q 673 72 692 113 q 606 11 654 31 q 499 -20 556 -10 q 389 -31 442 -31 z "},"Ć":{"ha":681,"x_min":0,"x_max":692,"o":"m 389 -31 q 222 4 294 -31 q 101 101 150 39 q 26 242 51 163 q 0 410 0 321 l 0 482 q 25 654 0 569 q 99 807 50 739 q 222 916 149 875 q 389 957 294 957 q 596 900 510 957 q 651 820 644 868 q 617 732 657 772 q 541 692 585 700 q 457 706 497 683 q 420 726 436 718 q 389 735 404 735 q 312 700 343 735 q 265 608 281 665 q 250 482 250 551 l 250 410 q 283 257 250 308 q 389 206 315 206 q 453 217 421 206 q 522 240 485 229 q 605 235 564 254 q 671 160 646 215 q 673 72 692 113 q 606 11 654 31 q 499 -20 556 -10 q 389 -31 442 -31 m 356 954 q 279 938 319 928 q 217 988 239 949 l 215 990 q 203 1061 196 1025 q 246 1121 211 1097 q 325 1173 286 1147 q 401 1232 364 1199 q 453 1258 424 1254 q 510 1249 482 1261 q 557 1208 538 1236 l 563 1200 q 578 1135 581 1174 q 556 1064 575 1096 q 503 1024 536 1032 q 420 993 456 1011 q 356 954 385 975 z "},"Č":{"ha":681,"x_min":0,"x_max":692,"o":"m 389 -31 q 222 4 294 -31 q 101 101 150 39 q 26 242 51 163 q 0 410 0 321 l 0 482 q 25 654 0 569 q 99 807 50 739 q 222 916 149 875 q 389 957 294 957 q 596 900 510 957 q 651 820 644 868 q 617 732 657 772 q 541 692 585 700 q 457 706 497 683 q 420 726 436 718 q 389 735 404 735 q 312 700 343 735 q 265 608 281 665 q 250 482 250 551 l 250 410 q 283 257 250 308 q 389 206 315 206 q 453 217 421 206 q 522 240 485 229 q 605 235 564 254 q 671 160 646 215 q 673 72 692 113 q 606 11 654 31 q 499 -20 556 -10 q 389 -31 442 -31 m 663 1189 q 675 1145 676 1169 q 660 1099 674 1121 q 625 1063 647 1076 q 531 1004 569 1029 q 449 947 492 979 q 329 947 389 901 q 239 1019 282 983 q 156 1075 196 1054 q 113 1126 122 1093 q 118 1189 103 1160 l 121 1193 q 183 1250 144 1242 q 257 1236 222 1258 q 317 1195 290 1215 q 378 1153 343 1175 q 386 1150 382 1151 q 396 1153 390 1149 q 447 1200 425 1174 q 508 1250 469 1226 q 584 1255 542 1271 q 660 1193 626 1239 l 663 1189 z "},"Ç":{"ha":681,"x_min":0,"x_max":692,"o":"m 389 -31 q 222 4 294 -31 q 101 101 150 39 q 26 242 51 163 q 0 410 0 321 l 0 482 q 25 654 0 569 q 99 807 50 739 q 222 916 149 875 q 389 957 294 957 q 596 900 510 957 q 651 820 644 868 q 617 732 657 772 q 541 692 585 700 q 457 706 497 683 q 420 726 436 718 q 389 735 404 735 q 312 700 343 735 q 265 608 281 665 q 250 482 250 551 l 250 410 q 283 257 250 308 q 389 206 315 206 q 453 217 421 206 q 522 240 485 229 q 605 235 564 254 q 671 160 646 215 q 673 72 692 113 q 606 11 654 31 q 499 -20 556 -10 q 389 -31 442 -31 m 378 -315 q 340 -312 358 -315 q 304 -304 321 -310 q 257 -268 268 -290 q 247 -215 246 -246 l 247 -214 q 308 -160 250 -158 q 340 -164 326 -160 q 369 -168 353 -168 q 404 -144 404 -168 q 393 -126 404 -131 q 353 -122 382 -122 q 310 -118 331 -122 q 277 -101 289 -114 q 269 -65 265 -89 l 288 35 l 472 35 l 456 -39 q 501 -51 482 -42 q 531 -80 519 -61 q 542 -125 542 -99 q 523 -216 542 -172 q 467 -287 504 -260 q 378 -315 431 -315 z "},"Ċ":{"ha":681,"x_min":0,"x_max":692,"o":"m 389 -31 q 222 4 294 -31 q 101 101 150 39 q 26 242 51 163 q 0 410 0 321 l 0 482 q 25 654 0 569 q 99 807 50 739 q 222 916 149 875 q 389 957 294 957 q 596 900 510 957 q 651 820 644 868 q 617 732 657 772 q 541 692 585 700 q 457 706 497 683 q 420 726 436 718 q 389 735 404 735 q 312 700 343 735 q 265 608 281 665 q 250 482 250 551 l 250 410 q 283 257 250 308 q 389 206 315 206 q 453 217 421 206 q 522 240 485 229 q 605 235 564 254 q 671 160 646 215 q 673 72 692 113 q 606 11 654 31 q 499 -20 556 -10 q 389 -31 442 -31 m 261 1090 q 299 1181 261 1144 q 389 1218 336 1218 q 480 1181 443 1218 q 517 1090 517 1144 q 480 1000 517 1038 q 389 963 443 963 q 299 1000 336 963 q 261 1090 261 1038 z "},"D":{"ha":854,"x_min":7,"x_max":854,"o":"m 221 -28 q 151 -12 183 -28 q 99 33 118 4 q 83 99 81 61 q 92 315 90 215 q 93 510 94 414 q 86 718 92 607 q 77 743 86 736 q 56 756 68 750 q 31 774 43 761 q 14 814 19 786 q 26 876 7 853 q 79 915 44 900 q 151 938 114 929 q 222 949 182 944 q 320 955 263 953 q 465 957 378 957 q 751 838 649 957 q 854 482 854 718 q 799 213 854 328 q 649 35 744 99 q 431 -28 554 -28 l 221 -28 m 329 236 q 334 217 328 225 q 353 208 340 208 l 431 208 q 522 236 483 208 q 583 324 561 264 q 604 482 604 385 q 591 633 604 582 q 547 705 578 685 q 465 725 517 725 l 369 725 q 340 710 347 725 q 333 670 332 696 q 335 613 335 644 q 336 513 336 574 q 335 381 336 453 q 329 236 335 308 z "},"Ď":{"ha":854,"x_min":7,"x_max":854,"o":"m 221 -28 q 151 -12 183 -28 q 99 33 118 4 q 83 99 81 61 q 92 315 90 215 q 93 510 94 414 q 86 718 92 607 q 77 743 86 736 q 56 756 68 750 q 31 774 43 761 q 14 814 19 786 q 26 876 7 853 q 79 915 44 900 q 151 938 114 929 q 222 949 182 944 q 320 955 263 953 q 465 957 378 957 q 751 838 649 957 q 854 482 854 718 q 799 213 854 328 q 649 35 744 99 q 431 -28 554 -28 l 221 -28 m 329 236 q 334 217 328 225 q 353 208 340 208 l 431 208 q 522 236 483 208 q 583 324 561 264 q 604 482 604 385 q 591 633 604 582 q 547 705 578 685 q 465 725 517 725 l 369 725 q 340 710 347 725 q 333 670 332 696 q 335 613 335 644 q 336 513 336 574 q 335 381 336 453 q 329 236 335 308 m 690 1189 q 703 1145 704 1169 q 688 1099 701 1121 q 653 1063 675 1076 q 558 1004 597 1029 q 476 947 519 979 q 357 947 417 901 q 267 1019 310 983 q 183 1075 224 1054 q 140 1126 150 1093 q 146 1189 131 1160 l 149 1193 q 211 1250 172 1242 q 285 1236 250 1258 q 344 1195 318 1215 q 406 1153 371 1175 q 414 1150 410 1151 q 424 1153 418 1149 q 475 1200 453 1174 q 536 1250 497 1226 q 612 1255 569 1271 q 688 1193 654 1239 l 690 1189 z "},"Đ":{"ha":797,"x_min":-71,"x_max":797,"o":"m -71 474 q -41 553 -71 524 q 39 583 -11 583 q 180 585 111 583 q 318 596 249 586 q 383 585 353 603 q 431 538 413 568 q 450 474 450 508 l 450 471 q 431 410 450 436 q 383 370 413 383 q 318 363 353 357 q 183 365 250 372 q 47 349 115 358 q -13 360 14 343 q -56 406 -40 376 q -71 471 -71 436 l -71 474 m 164 -28 q 94 -12 128 -28 q 42 33 61 4 q 26 99 24 61 q 36 315 33 215 q 38 510 39 414 q 31 718 36 607 q 20 743 29 736 q -1 756 11 750 q -26 774 -14 761 q -43 814 -37 786 q -31 876 -50 853 q 23 915 -11 900 q 94 938 57 929 q 165 949 125 944 q 264 955 206 953 q 408 957 322 957 q 695 838 593 957 q 797 482 797 718 q 742 213 797 328 q 592 35 688 99 q 374 -28 497 -28 l 164 -28 m 272 236 q 277 217 271 225 q 296 208 283 208 l 374 208 q 466 236 426 208 q 526 324 506 264 q 547 482 547 385 q 534 633 547 582 q 490 705 521 685 q 408 725 460 725 l 313 725 q 283 710 290 725 q 277 670 276 696 q 278 613 278 644 q 279 513 279 574 q 278 381 279 453 q 272 236 278 308 z "},"Ð":{"ha":797,"x_min":-71,"x_max":797,"o":"m -71 474 q -41 553 -71 524 q 39 583 -11 583 q 180 585 111 583 q 318 596 249 586 q 383 585 353 603 q 431 538 413 568 q 450 474 450 508 l 450 471 q 431 410 450 436 q 383 370 413 383 q 318 363 353 357 q 183 365 250 372 q 47 349 115 358 q -13 360 14 343 q -56 406 -40 376 q -71 471 -71 436 l -71 474 m 164 -28 q 94 -12 128 -28 q 42 33 61 4 q 26 99 24 61 q 36 315 33 215 q 38 510 39 414 q 31 718 36 607 q 20 743 29 736 q -1 756 11 750 q -26 774 -14 761 q -43 814 -37 786 q -31 876 -50 853 q 23 915 -11 900 q 94 938 57 929 q 165 949 125 944 q 264 955 206 953 q 408 957 322 957 q 695 838 593 957 q 797 482 797 718 q 742 213 797 328 q 592 35 688 99 q 374 -28 497 -28 l 164 -28 m 272 236 q 277 217 271 225 q 296 208 283 208 l 374 208 q 466 236 426 208 q 526 324 506 264 q 547 482 547 385 q 534 633 547 582 q 490 705 521 685 q 408 725 460 725 l 313 725 q 283 710 290 725 q 277 670 276 696 q 278 613 278 644 q 279 513 279 574 q 278 381 279 453 q 272 236 278 308 z "},"E":{"ha":743,"x_min":36,"x_max":722,"o":"m 715 842 q 683 751 715 790 q 599 718 651 713 q 504 728 547 725 q 418 731 461 731 q 319 732 375 732 q 301 724 306 732 q 296 700 296 715 q 297 646 297 671 q 297 603 297 621 q 306 579 297 586 q 325 574 315 572 q 425 582 378 578 q 535 596 472 586 q 596 585 569 603 q 638 538 622 568 q 653 471 653 508 q 623 391 653 421 q 543 361 593 361 q 426 358 476 361 q 336 350 375 356 q 313 342 322 349 q 303 322 304 336 q 300 274 301 301 q 294 217 299 247 q 302 199 293 203 q 325 194 311 194 q 425 195 383 194 q 508 199 467 196 q 606 208 550 203 q 690 175 658 214 q 722 82 722 136 q 692 2 722 32 q 613 -28 663 -28 l 165 -28 q 75 4 114 -28 q 42 89 36 36 q 60 344 56 224 q 60 583 65 464 q 42 838 56 703 q 75 922 36 890 q 165 954 114 954 l 606 954 q 685 924 656 954 q 715 842 715 893 z "},"É":{"ha":743,"x_min":36,"x_max":722,"o":"m 715 842 q 683 751 715 790 q 599 718 651 713 q 504 728 547 725 q 418 731 461 731 q 319 732 375 732 q 301 724 306 732 q 296 700 296 715 q 297 646 297 671 q 297 603 297 621 q 306 579 297 586 q 325 574 315 572 q 425 582 378 578 q 535 596 472 586 q 596 585 569 603 q 638 538 622 568 q 653 471 653 508 q 623 391 653 421 q 543 361 593 361 q 426 358 476 361 q 336 350 375 356 q 313 342 322 349 q 303 322 304 336 q 300 274 301 301 q 294 217 299 247 q 302 199 293 203 q 325 194 311 194 q 425 195 383 194 q 508 199 467 196 q 606 208 550 203 q 690 175 658 214 q 722 82 722 136 q 692 2 722 32 q 613 -28 663 -28 l 165 -28 q 75 4 114 -28 q 42 89 36 36 q 60 344 56 224 q 60 583 65 464 q 42 838 56 703 q 75 922 36 890 q 165 954 114 954 l 606 954 q 685 924 656 954 q 715 842 715 893 m 335 954 q 258 938 299 928 q 196 988 218 949 l 194 990 q 183 1061 175 1025 q 225 1121 190 1097 q 304 1173 265 1147 q 381 1232 343 1199 q 432 1258 403 1254 q 489 1249 461 1261 q 536 1208 517 1236 l 542 1200 q 557 1135 560 1174 q 535 1064 554 1096 q 482 1024 515 1032 q 399 993 435 1011 q 335 954 364 975 z "},"Ě":{"ha":743,"x_min":36,"x_max":722,"o":"m 715 842 q 683 751 715 790 q 599 718 651 713 q 504 728 547 725 q 418 731 461 731 q 319 732 375 732 q 301 724 306 732 q 296 700 296 715 q 297 646 297 671 q 297 603 297 621 q 306 579 297 586 q 325 574 315 572 q 425 582 378 578 q 535 596 472 586 q 596 585 569 603 q 638 538 622 568 q 653 471 653 508 q 623 391 653 421 q 543 361 593 361 q 426 358 476 361 q 336 350 375 356 q 313 342 322 349 q 303 322 304 336 q 300 274 301 301 q 294 217 299 247 q 302 199 293 203 q 325 194 311 194 q 425 195 383 194 q 508 199 467 196 q 606 208 550 203 q 690 175 658 214 q 722 82 722 136 q 692 2 722 32 q 613 -28 663 -28 l 165 -28 q 75 4 114 -28 q 42 89 36 36 q 60 344 56 224 q 60 583 65 464 q 42 838 56 703 q 75 922 36 890 q 165 954 114 954 l 606 954 q 685 924 656 954 q 715 842 715 893 m 642 1189 q 654 1145 656 1169 q 640 1099 653 1121 q 604 1063 626 1076 q 510 1004 549 1029 q 428 947 471 979 q 308 947 368 901 q 218 1019 261 983 q 135 1075 175 1054 q 92 1126 101 1093 q 97 1189 82 1160 l 100 1193 q 163 1250 124 1242 q 236 1236 201 1258 q 296 1195 269 1215 q 357 1153 322 1175 q 365 1150 361 1151 q 375 1153 369 1149 q 426 1200 404 1174 q 488 1250 449 1226 q 563 1255 521 1271 q 639 1193 606 1239 l 642 1189 z "},"Ê":{"ha":743,"x_min":36,"x_max":722,"o":"m 715 842 q 683 751 715 790 q 599 718 651 713 q 504 728 547 725 q 418 731 461 731 q 319 732 375 732 q 301 724 306 732 q 296 700 296 715 q 297 646 297 671 q 297 603 297 621 q 306 579 297 586 q 325 574 315 572 q 425 582 378 578 q 535 596 472 586 q 596 585 569 603 q 638 538 622 568 q 653 471 653 508 q 623 391 653 421 q 543 361 593 361 q 426 358 476 361 q 336 350 375 356 q 313 342 322 349 q 303 322 304 336 q 300 274 301 301 q 294 217 299 247 q 302 199 293 203 q 325 194 311 194 q 425 195 383 194 q 508 199 467 196 q 606 208 550 203 q 690 175 658 214 q 722 82 722 136 q 692 2 722 32 q 613 -28 663 -28 l 165 -28 q 75 4 114 -28 q 42 89 36 36 q 60 344 56 224 q 60 583 65 464 q 42 838 56 703 q 75 922 36 890 q 165 954 114 954 l 606 954 q 685 924 656 954 q 715 842 715 893 m 615 1099 q 654 1042 651 1079 q 639 969 657 1006 l 638 967 q 594 921 622 935 q 538 908 567 907 q 488 924 510 910 q 431 965 453 944 q 381 1006 408 986 q 356 1006 368 1014 q 306 965 328 986 q 249 924 285 944 q 179 910 219 904 q 113 942 139 915 l 110 944 q 78 1021 76 979 q 121 1085 79 1063 q 185 1122 150 1100 q 251 1165 219 1143 q 304 1208 283 1188 q 366 1235 332 1235 q 428 1213 400 1235 q 521 1152 471 1182 q 615 1099 571 1122 z "},"Ë":{"ha":743,"x_min":36,"x_max":722,"o":"m 715 842 q 683 751 715 790 q 599 718 651 713 q 504 728 547 725 q 418 731 461 731 q 319 732 375 732 q 301 724 306 732 q 296 700 296 715 q 297 646 297 671 q 297 603 297 621 q 306 579 297 586 q 325 574 315 572 q 425 582 378 578 q 535 596 472 586 q 596 585 569 603 q 638 538 622 568 q 653 471 653 508 q 623 391 653 421 q 543 361 593 361 q 426 358 476 361 q 336 350 375 356 q 313 342 322 349 q 303 322 304 336 q 300 274 301 301 q 294 217 299 247 q 302 199 293 203 q 325 194 311 194 q 425 195 383 194 q 508 199 467 196 q 606 208 550 203 q 690 175 658 214 q 722 82 722 136 q 692 2 722 32 q 613 -28 663 -28 l 165 -28 q 75 4 114 -28 q 42 89 36 36 q 60 344 56 224 q 60 583 65 464 q 42 838 56 703 q 75 922 36 890 q 165 954 114 954 l 606 954 q 685 924 656 954 q 715 842 715 893 m 224 958 q 132 995 169 958 q 94 1088 94 1032 q 131 1178 94 1142 q 225 1215 168 1215 q 315 1178 278 1215 q 351 1088 351 1142 q 315 995 351 1032 q 224 958 278 958 m 513 972 q 421 1009 458 972 q 383 1101 383 1046 q 420 1192 383 1156 q 514 1229 457 1229 q 603 1192 567 1229 q 640 1101 640 1156 q 603 1009 640 1046 q 513 972 567 972 z "},"Ė":{"ha":743,"x_min":36,"x_max":722,"o":"m 715 842 q 683 751 715 790 q 599 718 651 713 q 504 728 547 725 q 418 731 461 731 q 319 732 375 732 q 301 724 306 732 q 296 700 296 715 q 297 646 297 671 q 297 603 297 621 q 306 579 297 586 q 325 574 315 572 q 425 582 378 578 q 535 596 472 586 q 596 585 569 603 q 638 538 622 568 q 653 471 653 508 q 623 391 653 421 q 543 361 593 361 q 426 358 476 361 q 336 350 375 356 q 313 342 322 349 q 303 322 304 336 q 300 274 301 301 q 294 217 299 247 q 302 199 293 203 q 325 194 311 194 q 425 195 383 194 q 508 199 467 196 q 606 208 550 203 q 690 175 658 214 q 722 82 722 136 q 692 2 722 32 q 613 -28 663 -28 l 165 -28 q 75 4 114 -28 q 42 89 36 36 q 60 344 56 224 q 60 583 65 464 q 42 838 56 703 q 75 922 36 890 q 165 954 114 954 l 606 954 q 685 924 656 954 q 715 842 715 893 m 240 1090 q 278 1181 240 1144 q 368 1218 315 1218 q 459 1181 422 1218 q 496 1090 496 1144 q 459 1000 496 1038 q 368 963 422 963 q 278 1000 315 963 q 240 1090 240 1038 z "},"È":{"ha":743,"x_min":36,"x_max":722,"o":"m 715 842 q 683 751 715 790 q 599 718 651 713 q 504 728 547 725 q 418 731 461 731 q 319 732 375 732 q 301 724 306 732 q 296 700 296 715 q 297 646 297 671 q 297 603 297 621 q 306 579 297 586 q 325 574 315 572 q 425 582 378 578 q 535 596 472 586 q 596 585 569 603 q 638 538 622 568 q 653 471 653 508 q 623 391 653 421 q 543 361 593 361 q 426 358 476 361 q 336 350 375 356 q 313 342 322 349 q 303 322 304 336 q 300 274 301 301 q 294 217 299 247 q 302 199 293 203 q 325 194 311 194 q 425 195 383 194 q 508 199 467 196 q 606 208 550 203 q 690 175 658 214 q 722 82 722 136 q 692 2 722 32 q 613 -28 663 -28 l 165 -28 q 75 4 114 -28 q 42 89 36 36 q 60 344 56 224 q 60 583 65 464 q 42 838 56 703 q 75 922 36 890 q 165 954 114 954 l 606 954 q 685 924 656 954 q 715 842 715 893 m 504 1122 q 556 1055 539 1099 q 551 974 572 1011 l 550 971 q 484 926 528 931 q 397 947 440 922 q 321 990 358 971 q 246 1022 283 1010 q 199 1060 214 1033 q 184 1119 183 1088 q 200 1179 185 1151 l 207 1190 q 276 1249 233 1235 q 353 1231 319 1264 q 432 1169 400 1189 q 504 1122 464 1149 z "},"Ē":{"ha":743,"x_min":35,"x_max":722,"o":"m 715 842 q 683 751 715 790 q 599 718 651 713 q 504 728 547 725 q 418 731 461 731 q 319 732 375 732 q 301 724 306 732 q 296 700 296 715 q 297 646 297 671 q 297 603 297 621 q 306 579 297 586 q 325 574 315 572 q 425 582 378 578 q 535 596 472 586 q 596 585 569 603 q 638 538 622 568 q 653 471 653 508 q 623 391 653 421 q 543 361 593 361 q 426 358 476 361 q 336 350 375 356 q 313 342 322 349 q 303 322 304 336 q 300 274 301 301 q 294 217 299 247 q 302 199 293 203 q 325 194 311 194 q 425 195 383 194 q 508 199 467 196 q 606 208 550 203 q 690 175 658 214 q 722 82 722 136 q 692 2 722 32 q 613 -28 663 -28 l 165 -28 q 75 4 114 -28 q 42 89 36 36 q 60 344 56 224 q 60 583 65 464 q 42 838 56 703 q 75 922 36 890 q 165 954 114 954 l 606 954 q 685 924 656 954 q 715 842 715 893 m 715 1100 q 698 1044 715 1071 q 654 1000 681 1017 q 597 986 628 983 q 140 986 368 1007 q 65 1017 94 982 q 35 1100 35 1053 l 35 1101 q 63 1174 35 1146 q 135 1201 90 1201 q 367 1203 251 1201 q 597 1215 482 1206 q 654 1201 628 1218 q 698 1158 681 1185 q 715 1101 715 1132 l 715 1100 z "},"Ę":{"ha":743,"x_min":36,"x_max":733,"o":"m 715 842 q 683 751 715 790 q 599 718 651 713 q 504 728 547 725 q 418 731 461 731 q 319 732 375 732 q 301 724 306 732 q 296 700 296 715 q 297 646 297 671 q 297 603 297 621 q 306 579 297 586 q 325 574 315 572 q 425 582 378 578 q 535 596 472 586 q 596 585 569 603 q 638 538 622 568 q 653 471 653 508 q 623 391 653 421 q 543 361 593 361 q 426 358 476 361 q 336 350 375 356 q 313 342 322 349 q 303 322 304 336 q 300 274 301 301 q 294 217 299 247 q 302 199 293 203 q 325 194 311 194 q 425 195 383 194 q 508 199 467 196 q 606 208 550 203 q 690 175 658 214 q 722 82 722 136 q 692 2 722 32 q 613 -28 663 -28 l 165 -28 q 75 4 114 -28 q 42 89 36 36 q 60 344 56 224 q 60 583 65 464 q 42 838 56 703 q 75 922 36 890 q 165 954 114 954 l 606 954 q 685 924 656 954 q 715 842 715 893 m 607 -264 q 517 -237 560 -264 q 454 -167 475 -211 q 444 -65 433 -122 q 472 -7 451 -29 q 517 27 493 15 q 557 42 542 39 l 614 54 l 640 15 q 629 9 640 15 q 606 -9 618 3 q 594 -39 594 -21 q 602 -56 594 -50 q 622 -65 610 -62 q 647 -67 635 -67 q 708 -87 682 -67 q 735 -147 735 -107 q 694 -235 735 -206 q 607 -264 654 -264 z "},"Ẽ":{"ha":743,"x_min":36,"x_max":722,"o":"m 715 842 q 683 751 715 790 q 599 718 651 713 q 504 728 547 725 q 418 731 461 731 q 319 732 375 732 q 301 724 306 732 q 296 700 296 715 q 297 646 297 671 q 297 603 297 621 q 306 579 297 586 q 325 574 315 572 q 425 582 378 578 q 535 596 472 586 q 596 585 569 603 q 638 538 622 568 q 653 471 653 508 q 623 391 653 421 q 543 361 593 361 q 426 358 476 361 q 336 350 375 356 q 313 342 322 349 q 303 322 304 336 q 300 274 301 301 q 294 217 299 247 q 302 199 293 203 q 325 194 311 194 q 425 195 383 194 q 508 199 467 196 q 606 208 550 203 q 690 175 658 214 q 722 82 722 136 q 692 2 722 32 q 613 -28 663 -28 l 165 -28 q 75 4 114 -28 q 42 89 36 36 q 60 344 56 224 q 60 583 65 464 q 42 838 56 703 q 75 922 36 890 q 165 954 114 954 l 606 954 q 685 924 656 954 q 715 842 715 893 m 104 1007 q 81 1068 81 1035 q 106 1128 81 1101 q 147 1165 122 1144 q 205 1200 172 1185 q 274 1215 238 1215 q 346 1200 319 1215 q 388 1166 372 1185 q 420 1134 404 1147 q 460 1125 436 1121 q 481 1139 471 1128 q 501 1158 490 1150 q 566 1179 529 1179 q 631 1154 603 1179 l 638 1149 q 666 1102 658 1132 q 668 1042 674 1072 q 643 992 663 1011 q 560 941 613 963 q 460 919 507 919 q 383 933 413 919 q 336 965 354 947 q 306 996 318 982 q 279 1010 293 1010 q 253 1003 264 1010 q 229 988 243 997 q 167 969 200 965 q 110 1000 133 972 l 104 1007 z "},"Ə":{"ha":771,"x_min":0,"x_max":771,"o":"m 382 -69 q 285 -59 338 -69 q 183 -19 233 -49 q 92 69 133 11 q 25 223 50 128 q 0 460 0 318 q 41 549 0 515 q 138 583 82 583 l 497 583 q 510 599 513 583 q 484 692 501 653 q 441 752 467 731 q 382 774 415 774 q 351 765 367 774 q 314 744 335 757 q 231 731 275 722 q 154 771 186 739 l 151 774 q 120 860 113 813 q 175 939 128 907 q 382 996 261 996 q 549 954 476 996 q 672 841 622 913 q 746 677 721 769 q 771 482 771 585 l 771 410 q 726 164 771 272 q 594 -7 681 56 q 382 -69 507 -69 m 217 344 q 237 240 217 278 q 294 184 257 201 q 382 167 332 167 q 475 210 442 167 q 517 338 508 253 q 503 353 518 353 q 431 355 467 354 q 361 356 394 356 q 301 358 328 357 q 256 358 274 358 q 232 358 238 358 q 217 344 217 358 z "},"F":{"ha":736,"x_min":40,"x_max":715,"o":"m 715 842 q 683 751 715 790 q 599 718 651 713 q 505 728 544 725 q 426 731 465 731 q 329 732 386 732 q 298 718 304 732 q 293 688 292 704 q 296 657 296 668 q 297 636 296 646 q 297 608 297 626 q 304 591 299 599 q 319 583 310 583 q 412 585 356 583 q 535 596 468 586 q 596 585 569 603 q 638 538 622 568 q 653 471 653 508 q 623 391 653 421 q 543 361 593 361 q 421 359 474 361 q 326 350 368 357 q 310 343 315 349 q 306 324 306 338 q 306 248 306 279 q 310 181 307 217 q 319 89 313 146 q 283 4 325 36 q 165 -28 240 -28 q 78 3 115 -28 q 42 85 40 35 q 51 342 49 221 q 51 585 53 464 q 42 842 49 707 q 78 924 40 893 q 165 954 115 954 l 606 954 q 685 924 656 954 q 715 842 715 893 z "},"G":{"ha":774,"x_min":0,"x_max":782,"o":"m 389 -31 q 222 4 294 -31 q 101 101 150 39 q 26 242 51 163 q 0 410 0 321 l 0 482 q 25 654 0 569 q 99 807 50 739 q 222 916 149 875 q 389 957 294 957 q 596 900 510 957 q 651 821 644 868 q 619 735 658 774 l 617 732 q 541 692 585 700 q 457 706 497 683 q 420 726 436 718 q 389 735 404 735 q 312 708 343 735 q 265 626 281 682 q 250 482 250 571 l 250 410 q 283 257 250 308 q 389 206 315 206 q 444 210 421 206 q 492 226 468 214 q 513 244 508 235 q 517 267 517 253 q 515 306 517 282 q 513 342 515 326 q 492 358 510 358 q 453 356 472 358 q 407 349 435 353 q 354 360 374 343 q 327 406 335 376 q 319 471 319 436 q 356 553 319 522 q 443 583 393 583 l 633 583 q 713 563 678 583 q 765 511 749 543 q 768 442 782 479 l 754 403 q 746 349 749 379 q 747 277 743 318 q 757 182 750 236 q 741 100 763 135 q 678 44 719 65 l 618 15 q 614 14 617 14 q 607 11 611 14 q 499 -20 556 -10 q 389 -31 442 -31 z "},"Ğ":{"ha":774,"x_min":0,"x_max":782,"o":"m 389 -31 q 222 4 294 -31 q 101 101 150 39 q 26 242 51 163 q 0 410 0 321 l 0 482 q 25 654 0 569 q 99 807 50 739 q 222 916 149 875 q 389 957 294 957 q 596 900 510 957 q 651 821 644 868 q 619 735 658 774 l 617 732 q 541 692 585 700 q 457 706 497 683 q 420 726 436 718 q 389 735 404 735 q 312 708 343 735 q 265 626 281 682 q 250 482 250 571 l 250 410 q 283 257 250 308 q 389 206 315 206 q 444 210 421 206 q 492 226 468 214 q 513 244 508 235 q 517 267 517 253 q 515 306 517 282 q 513 342 515 326 q 492 358 510 358 q 453 356 472 358 q 407 349 435 353 q 354 360 374 343 q 327 406 335 376 q 319 471 319 436 q 356 553 319 522 q 443 583 393 583 l 633 583 q 713 563 678 583 q 765 511 749 543 q 768 442 782 479 l 754 403 q 746 349 749 379 q 747 277 743 318 q 757 182 750 236 q 741 100 763 135 q 678 44 719 65 l 618 15 q 614 14 617 14 q 607 11 611 14 q 499 -20 556 -10 q 389 -31 442 -31 m 204 1290 q 266 1271 239 1290 q 304 1210 293 1251 q 333 1170 313 1185 q 381 1156 354 1156 q 417 1160 400 1156 q 445 1173 435 1164 q 456 1197 456 1182 q 486 1272 456 1239 q 558 1304 517 1304 l 560 1304 q 617 1287 592 1304 q 659 1242 643 1269 q 672 1183 675 1215 q 625 1064 667 1118 q 519 978 583 1010 q 381 947 456 947 q 255 978 313 947 q 158 1062 197 1010 q 104 1176 118 1114 q 126 1258 96 1226 q 203 1290 156 1290 l 204 1290 z "},"Ģ":{"ha":774,"x_min":0,"x_max":782,"o":"m 389 -31 q 222 4 294 -31 q 101 101 150 39 q 26 242 51 163 q 0 410 0 321 l 0 482 q 25 654 0 569 q 99 807 50 739 q 222 916 149 875 q 389 957 294 957 q 596 900 510 957 q 651 821 644 868 q 619 735 658 774 l 617 732 q 541 692 585 700 q 457 706 497 683 q 420 726 436 718 q 389 735 404 735 q 312 708 343 735 q 265 626 281 682 q 250 482 250 571 l 250 410 q 283 257 250 308 q 389 206 315 206 q 444 210 421 206 q 492 226 468 214 q 513 244 508 235 q 517 267 517 253 q 515 306 517 282 q 513 342 515 326 q 492 358 510 358 q 453 356 472 358 q 407 349 435 353 q 354 360 374 343 q 327 406 335 376 q 319 471 319 436 q 356 553 319 522 q 443 583 393 583 l 633 583 q 713 563 678 583 q 765 511 749 543 q 768 442 782 479 l 754 403 q 746 349 749 379 q 747 277 743 318 q 757 182 750 236 q 741 100 763 135 q 678 44 719 65 l 618 15 q 614 14 617 14 q 607 11 611 14 q 499 -20 556 -10 q 389 -31 442 -31 m 414 -351 q 375 -387 401 -372 q 315 -401 349 -401 l 310 -401 q 260 -388 283 -401 q 227 -349 236 -375 q 235 -287 218 -324 q 278 -197 263 -233 q 310 -110 294 -160 q 334 -76 314 -89 q 384 -56 354 -62 q 446 -49 414 -49 l 456 -49 q 510 -66 489 -49 q 535 -110 531 -83 q 524 -165 539 -136 q 469 -260 493 -219 q 414 -351 446 -300 z "},"Ġ":{"ha":774,"x_min":0,"x_max":782,"o":"m 389 -31 q 222 4 294 -31 q 101 101 150 39 q 26 242 51 163 q 0 410 0 321 l 0 482 q 25 654 0 569 q 99 807 50 739 q 222 916 149 875 q 389 957 294 957 q 596 900 510 957 q 651 821 644 868 q 619 735 658 774 l 617 732 q 541 692 585 700 q 457 706 497 683 q 420 726 436 718 q 389 735 404 735 q 312 708 343 735 q 265 626 281 682 q 250 482 250 571 l 250 410 q 283 257 250 308 q 389 206 315 206 q 444 210 421 206 q 492 226 468 214 q 513 244 508 235 q 517 267 517 253 q 515 306 517 282 q 513 342 515 326 q 492 358 510 358 q 453 356 472 358 q 407 349 435 353 q 354 360 374 343 q 327 406 335 376 q 319 471 319 436 q 356 553 319 522 q 443 583 393 583 l 633 583 q 713 563 678 583 q 765 511 749 543 q 768 442 782 479 l 754 403 q 746 349 749 379 q 747 277 743 318 q 757 182 750 236 q 741 100 763 135 q 678 44 719 65 l 618 15 q 614 14 617 14 q 607 11 611 14 q 499 -20 556 -10 q 389 -31 442 -31 m 260 1138 q 297 1228 260 1192 q 388 1265 335 1265 q 478 1228 442 1265 q 515 1138 515 1192 q 478 1047 515 1085 q 388 1010 442 1010 q 297 1047 335 1010 q 260 1138 260 1085 z "},"Ḡ":{"ha":774,"x_min":0,"x_max":782,"o":"m 389 -31 q 222 4 294 -31 q 101 101 150 39 q 26 242 51 163 q 0 410 0 321 l 0 482 q 25 654 0 569 q 99 807 50 739 q 222 916 149 875 q 389 957 294 957 q 596 900 510 957 q 651 821 644 868 q 619 735 658 774 l 617 732 q 541 692 585 700 q 457 706 497 683 q 420 726 436 718 q 389 735 404 735 q 312 708 343 735 q 265 626 281 682 q 250 482 250 571 l 250 410 q 283 257 250 308 q 389 206 315 206 q 444 210 421 206 q 492 226 468 214 q 513 244 508 235 q 517 267 517 253 q 515 306 517 282 q 513 342 515 326 q 492 358 510 358 q 453 356 472 358 q 407 349 435 353 q 354 360 374 343 q 327 406 335 376 q 319 471 319 436 q 356 553 319 522 q 443 583 393 583 l 633 583 q 713 563 678 583 q 765 511 749 543 q 768 442 782 479 l 754 403 q 746 349 749 379 q 747 277 743 318 q 757 182 750 236 q 741 100 763 135 q 678 44 719 65 l 618 15 q 614 14 617 14 q 607 11 611 14 q 499 -20 556 -10 q 389 -31 442 -31 m 735 1147 q 717 1091 735 1118 q 674 1047 700 1064 q 617 1033 647 1031 q 160 1033 388 1054 q 84 1065 114 1029 q 54 1147 54 1100 l 54 1149 q 82 1221 54 1193 q 154 1249 110 1249 q 386 1251 271 1249 q 617 1263 501 1253 q 674 1249 647 1265 q 717 1206 700 1232 q 735 1149 735 1179 l 735 1147 z "},"H":{"ha":888,"x_min":13,"x_max":849,"o":"m 219 -28 q 130 6 164 -28 q 96 96 96 40 q 96 201 96 156 q 96 306 96 246 q 85 344 96 329 q 57 375 74 360 q 24 415 36 390 q 13 471 13 440 l 13 474 q 51 554 13 526 q 80 586 68 571 q 90 626 92 601 q 87 727 89 683 q 82 828 85 771 q 99 894 79 867 q 151 938 118 922 q 219 954 183 954 q 294 938 260 954 q 347 892 328 921 q 360 824 365 863 q 356 780 358 807 q 353 717 354 753 q 351 633 353 682 q 365 595 350 606 q 410 586 381 585 q 467 586 439 586 q 525 589 496 586 q 567 600 553 590 q 582 638 582 610 q 582 709 582 676 q 582 772 582 742 q 582 831 582 801 q 616 920 582 886 q 708 954 650 954 q 778 938 746 954 q 829 894 810 922 q 846 828 849 867 q 837 580 839 696 q 837 347 835 464 q 846 99 839 231 q 829 33 849 61 q 778 -12 810 4 q 708 -28 746 -28 q 635 -11 668 -28 q 582 35 601 6 q 568 103 563 65 q 572 154 571 122 q 575 229 574 186 q 578 322 576 272 q 564 353 579 344 q 519 361 549 361 q 464 360 492 361 q 408 360 436 360 q 365 342 379 360 q 353 299 351 324 q 355 218 354 257 q 357 149 356 179 q 360 103 358 118 q 347 35 365 65 q 294 -11 328 6 q 219 -28 260 -28 z "},"Ħ":{"ha":946,"x_min":11,"x_max":919,"o":"m 26 749 q 47 806 26 785 q 104 826 68 826 q 183 826 128 826 q 312 827 239 826 q 464 828 385 828 q 617 831 543 829 q 745 835 690 832 q 824 840 800 838 q 869 832 847 844 q 906 797 892 819 q 919 749 919 775 l 919 746 q 890 686 919 710 q 824 668 860 663 q 746 673 801 672 q 618 674 690 674 q 467 672 546 674 q 315 667 388 669 q 187 661 242 664 q 108 654 132 658 q 49 678 71 649 q 26 746 26 708 l 26 749 m 218 -28 q 128 6 163 -28 q 94 96 94 40 q 94 201 94 156 q 94 306 94 246 q 83 344 94 329 q 56 375 72 360 q 22 415 33 390 q 11 471 11 440 l 11 474 q 50 554 11 526 q 78 586 67 571 q 89 626 90 601 q 85 727 88 683 q 81 828 83 771 q 97 894 78 867 q 149 938 115 922 q 218 954 182 954 q 292 938 258 954 q 344 892 326 921 q 358 824 363 863 q 355 780 357 807 q 351 717 353 753 q 350 633 350 682 q 364 595 349 606 q 408 586 379 585 q 466 586 438 586 q 522 589 494 586 q 566 600 551 590 q 581 638 581 610 q 581 709 581 676 q 581 772 581 742 q 581 831 581 801 q 615 920 581 886 q 707 954 649 954 q 776 938 744 954 q 828 894 808 922 q 844 828 847 867 q 835 580 838 696 q 835 347 833 464 q 844 99 838 231 q 828 33 847 61 q 776 -12 808 4 q 707 -28 744 -28 q 633 -11 667 -28 q 581 35 600 6 q 567 103 561 65 q 571 154 569 122 q 574 229 572 186 q 576 322 575 272 q 563 353 578 344 q 518 361 547 361 q 463 360 490 361 q 407 360 435 360 q 364 342 378 360 q 350 299 350 324 q 353 218 353 257 q 356 149 354 179 q 358 103 357 118 q 344 35 363 65 q 292 -11 326 6 q 218 -28 258 -28 z "},"I":{"ha":486,"x_min":0,"x_max":486,"o":"m 110 -29 q 30 8 60 -29 q 0 94 0 44 q 13 179 0 151 q 50 207 26 207 q 72 206 63 208 q 93 203 82 204 q 108 215 106 204 q 111 238 111 226 l 111 685 q 89 717 111 718 q 69 716 79 717 q 50 713 60 715 q 17 724 28 707 q 3 772 6 742 q 0 836 0 801 q 29 916 0 888 q 106 949 58 944 q 367 949 236 960 q 443 916 414 944 q 472 836 472 888 q 453 753 472 785 q 406 726 433 721 q 392 729 400 728 q 374 731 385 731 q 363 719 365 731 q 361 696 361 707 l 361 249 q 379 213 361 213 q 399 217 386 214 q 422 221 411 221 q 468 190 450 222 q 486 94 486 158 q 456 23 486 51 q 371 -14 425 -6 q 239 -27 304 -25 q 110 -29 174 -29 z "},"Ĳ":{"ha":1269,"x_min":0,"x_max":1269,"o":"m 110 -29 q 30 8 60 -29 q 0 94 0 44 q 13 179 0 151 q 50 207 26 207 q 72 206 63 208 q 93 203 82 204 q 108 215 106 204 q 111 238 111 226 l 111 685 q 89 717 111 718 q 69 716 79 717 q 50 713 60 715 q 17 724 28 707 q 3 772 6 742 q 0 836 0 801 q 29 916 0 888 q 106 949 58 944 q 367 949 236 960 q 443 916 414 944 q 472 836 472 888 q 453 753 472 785 q 406 726 433 721 q 392 729 400 728 q 374 731 385 731 q 363 719 365 731 q 361 696 361 707 l 361 249 q 379 213 361 213 q 399 217 386 214 q 422 221 411 221 q 468 190 450 222 q 486 94 486 158 q 456 23 486 51 q 371 -14 425 -6 q 239 -27 304 -25 q 110 -29 174 -29 m 769 -31 q 670 -26 722 -31 q 568 -6 618 -21 q 513 30 533 4 q 488 90 492 56 q 499 154 485 124 q 560 219 518 193 q 650 232 601 246 q 712 215 682 224 q 769 206 742 206 q 853 222 824 206 q 896 284 883 239 q 908 414 908 329 l 908 660 q 907 687 908 671 q 894 703 906 703 q 858 700 879 703 q 814 694 836 697 q 750 703 779 689 q 703 746 721 718 q 686 808 686 774 q 719 893 686 860 q 803 926 753 926 l 1158 926 q 1238 894 1206 926 q 1269 813 1269 863 q 1251 735 1269 767 q 1201 703 1233 703 l 1182 703 q 1162 688 1165 703 q 1158 661 1158 672 l 1158 414 q 1057 88 1158 206 q 769 -31 956 -31 z "},"Í":{"ha":486,"x_min":0,"x_max":486,"o":"m 110 -29 q 30 8 60 -29 q 0 94 0 44 q 13 179 0 151 q 50 207 26 207 q 72 206 63 208 q 93 203 82 204 q 108 215 106 204 q 111 238 111 226 l 111 685 q 89 717 111 718 q 69 716 79 717 q 50 713 60 715 q 17 724 28 707 q 3 772 6 742 q 0 836 0 801 q 29 916 0 888 q 106 949 58 944 q 367 949 236 960 q 443 916 414 944 q 472 836 472 888 q 453 753 472 785 q 406 726 433 721 q 392 729 400 728 q 374 731 385 731 q 363 719 365 731 q 361 696 361 707 l 361 249 q 379 213 361 213 q 399 217 386 214 q 422 221 411 221 q 468 190 450 222 q 486 94 486 158 q 456 23 486 51 q 371 -14 425 -6 q 239 -27 304 -25 q 110 -29 174 -29 m 189 954 q 113 938 153 928 q 50 988 72 949 l 49 990 q 37 1061 29 1025 q 79 1121 44 1097 q 158 1173 119 1147 q 235 1232 197 1199 q 286 1258 257 1254 q 343 1249 315 1261 q 390 1208 371 1236 l 396 1200 q 411 1135 414 1174 q 389 1064 408 1096 q 336 1024 369 1032 q 253 993 289 1011 q 189 954 218 975 z "},"Î":{"ha":486,"x_min":-71,"x_max":511,"o":"m 110 -29 q 30 8 60 -29 q 0 94 0 44 q 13 179 0 151 q 50 207 26 207 q 72 206 63 208 q 93 203 82 204 q 108 215 106 204 q 111 238 111 226 l 111 685 q 89 717 111 718 q 69 716 79 717 q 50 713 60 715 q 17 724 28 707 q 3 772 6 742 q 0 836 0 801 q 29 916 0 888 q 106 949 58 944 q 367 949 236 960 q 443 916 414 944 q 472 836 472 888 q 453 753 472 785 q 406 726 433 721 q 392 729 400 728 q 374 731 385 731 q 363 719 365 731 q 361 696 361 707 l 361 249 q 379 213 361 213 q 399 217 386 214 q 422 221 411 221 q 468 190 450 222 q 486 94 486 158 q 456 23 486 51 q 371 -14 425 -6 q 239 -27 304 -25 q 110 -29 174 -29 m 469 1099 q 508 1042 506 1079 q 493 969 511 1006 l 492 967 q 449 921 476 935 q 392 908 421 907 q 342 924 364 910 q 285 965 307 944 q 235 1006 263 986 q 210 1006 222 1014 q 160 965 182 986 q 103 924 139 944 q 33 910 74 904 q -33 942 -7 915 l -36 944 q -68 1021 -69 979 q -25 1085 -67 1063 q 39 1122 4 1100 q 106 1165 74 1143 q 158 1208 138 1188 q 220 1235 186 1235 q 282 1213 254 1235 q 375 1152 325 1182 q 469 1099 425 1122 z "},"Ï":{"ha":486,"x_min":-51,"x_max":494,"o":"m 110 -29 q 30 8 60 -29 q 0 94 0 44 q 13 179 0 151 q 50 207 26 207 q 72 206 63 208 q 93 203 82 204 q 108 215 106 204 q 111 238 111 226 l 111 685 q 89 717 111 718 q 69 716 79 717 q 50 713 60 715 q 17 724 28 707 q 3 772 6 742 q 0 836 0 801 q 29 916 0 888 q 106 949 58 944 q 367 949 236 960 q 443 916 414 944 q 472 836 472 888 q 453 753 472 785 q 406 726 433 721 q 392 729 400 728 q 374 731 385 731 q 363 719 365 731 q 361 696 361 707 l 361 249 q 379 213 361 213 q 399 217 386 214 q 422 221 411 221 q 468 190 450 222 q 486 94 486 158 q 456 23 486 51 q 371 -14 425 -6 q 239 -27 304 -25 q 110 -29 174 -29 m 78 958 q -14 995 24 958 q -51 1088 -51 1032 q -15 1178 -51 1142 q 79 1215 22 1215 q 169 1178 132 1215 q 206 1088 206 1142 q 169 995 206 1032 q 78 958 132 958 m 367 972 q 275 1009 313 972 q 238 1101 238 1046 q 274 1192 238 1156 q 368 1229 311 1229 q 458 1192 421 1229 q 494 1101 494 1156 q 458 1009 494 1046 q 367 972 421 972 z "},"İ":{"ha":486,"x_min":0,"x_max":486,"o":"m 110 -29 q 30 8 60 -29 q 0 94 0 44 q 13 179 0 151 q 50 207 26 207 q 72 206 63 208 q 93 203 82 204 q 108 215 106 204 q 111 238 111 226 l 111 685 q 89 717 111 718 q 69 716 79 717 q 50 713 60 715 q 17 724 28 707 q 3 772 6 742 q 0 836 0 801 q 29 916 0 888 q 106 949 58 944 q 367 949 236 960 q 443 916 414 944 q 472 836 472 888 q 453 753 472 785 q 406 726 433 721 q 392 729 400 728 q 374 731 385 731 q 363 719 365 731 q 361 696 361 707 l 361 249 q 379 213 361 213 q 399 217 386 214 q 422 221 411 221 q 468 190 450 222 q 486 94 486 158 q 456 23 486 51 q 371 -14 425 -6 q 239 -27 304 -25 q 110 -29 174 -29 m 94 1090 q 132 1181 94 1144 q 222 1218 169 1218 q 313 1181 276 1218 q 350 1090 350 1144 q 313 1000 350 1038 q 222 963 276 963 q 132 1000 169 963 q 94 1090 94 1038 z "},"Ì":{"ha":486,"x_min":0,"x_max":486,"o":"m 110 -29 q 30 8 60 -29 q 0 94 0 44 q 13 179 0 151 q 50 207 26 207 q 72 206 63 208 q 93 203 82 204 q 108 215 106 204 q 111 238 111 226 l 111 685 q 89 717 111 718 q 69 716 79 717 q 50 713 60 715 q 17 724 28 707 q 3 772 6 742 q 0 836 0 801 q 29 916 0 888 q 106 949 58 944 q 367 949 236 960 q 443 916 414 944 q 472 836 472 888 q 453 753 472 785 q 406 726 433 721 q 392 729 400 728 q 374 731 385 731 q 363 719 365 731 q 361 696 361 707 l 361 249 q 379 213 361 213 q 399 217 386 214 q 422 221 411 221 q 468 190 450 222 q 486 94 486 158 q 456 23 486 51 q 371 -14 425 -6 q 239 -27 304 -25 q 110 -29 174 -29 m 358 1122 q 410 1055 393 1099 q 406 974 426 1011 l 404 971 q 338 926 382 931 q 251 947 294 922 q 175 990 213 971 q 100 1022 138 1010 q 53 1060 68 1033 q 38 1119 38 1088 q 54 1179 39 1151 l 61 1190 q 131 1249 88 1235 q 207 1231 174 1264 q 286 1169 254 1189 q 358 1122 318 1149 z "},"Ī":{"ha":486,"x_min":-111,"x_max":569,"o":"m 110 -29 q 30 8 60 -29 q 0 94 0 44 q 13 179 0 151 q 50 207 26 207 q 72 206 63 208 q 93 203 82 204 q 108 215 106 204 q 111 238 111 226 l 111 685 q 89 717 111 718 q 69 716 79 717 q 50 713 60 715 q 17 724 28 707 q 3 772 6 742 q 0 836 0 801 q 29 916 0 888 q 106 949 58 944 q 367 949 236 960 q 443 916 414 944 q 472 836 472 888 q 453 753 472 785 q 406 726 433 721 q 392 729 400 728 q 374 731 385 731 q 363 719 365 731 q 361 696 361 707 l 361 249 q 379 213 361 213 q 399 217 386 214 q 422 221 411 221 q 468 190 450 222 q 486 94 486 158 q 456 23 486 51 q 371 -14 425 -6 q 239 -27 304 -25 q 110 -29 174 -29 m 569 1100 q 552 1044 569 1071 q 508 1000 535 1017 q 451 986 482 983 q -6 986 222 1007 q -81 1017 -51 982 q -111 1100 -111 1053 l -111 1101 q -83 1174 -111 1146 q -11 1201 -56 1201 q 221 1203 106 1201 q 451 1215 336 1206 q 508 1201 482 1218 q 552 1158 535 1185 q 569 1101 569 1132 l 569 1100 z "},"Į":{"ha":486,"x_min":0,"x_max":486,"o":"m 110 -29 q 30 8 60 -29 q 0 94 0 44 q 13 179 0 151 q 50 207 26 207 q 72 206 63 208 q 93 203 82 204 q 108 215 106 204 q 111 238 111 226 l 111 685 q 89 717 111 718 q 69 716 79 717 q 50 713 60 715 q 17 724 28 707 q 3 772 6 742 q 0 836 0 801 q 29 916 0 888 q 106 949 58 944 q 367 949 236 960 q 443 916 414 944 q 472 836 472 888 q 453 753 472 785 q 406 726 433 721 q 392 729 400 728 q 374 731 385 731 q 363 719 365 731 q 361 696 361 707 l 361 249 q 379 213 361 213 q 399 217 386 214 q 422 221 411 221 q 468 190 450 222 q 486 94 486 158 q 456 23 486 51 q 371 -14 425 -6 q 239 -27 304 -25 q 110 -29 174 -29 m 310 -264 q 220 -237 263 -264 q 157 -167 178 -211 q 147 -65 136 -122 q 175 -7 154 -29 q 220 27 196 15 q 260 42 244 39 l 317 54 l 343 15 q 332 9 343 15 q 309 -9 321 3 q 297 -39 297 -21 q 305 -56 297 -50 q 325 -65 313 -62 q 350 -67 338 -67 q 411 -87 385 -67 q 438 -147 438 -107 q 397 -235 438 -206 q 310 -264 357 -264 z "},"Ĩ":{"ha":486,"x_min":-65,"x_max":526,"o":"m 110 -29 q 30 8 60 -29 q 0 94 0 44 q 13 179 0 151 q 50 207 26 207 q 72 206 63 208 q 93 203 82 204 q 108 215 106 204 q 111 238 111 226 l 111 685 q 89 717 111 718 q 69 716 79 717 q 50 713 60 715 q 17 724 28 707 q 3 772 6 742 q 0 836 0 801 q 29 916 0 888 q 106 949 58 944 q 367 949 236 960 q 443 916 414 944 q 472 836 472 888 q 453 753 472 785 q 406 726 433 721 q 392 729 400 728 q 374 731 385 731 q 363 719 365 731 q 361 696 361 707 l 361 249 q 379 213 361 213 q 399 217 386 214 q 422 221 411 221 q 468 190 450 222 q 486 94 486 158 q 456 23 486 51 q 371 -14 425 -6 q 239 -27 304 -25 q 110 -29 174 -29 m -42 1007 q -65 1068 -65 1035 q -40 1128 -65 1101 q 1 1165 -24 1144 q 59 1200 26 1185 q 128 1215 92 1215 q 200 1200 174 1215 q 242 1166 226 1185 q 274 1134 258 1147 q 314 1125 290 1121 q 335 1139 325 1128 q 356 1158 344 1150 q 420 1179 383 1179 q 485 1154 457 1179 l 492 1149 q 520 1102 513 1132 q 522 1042 528 1072 q 497 992 517 1011 q 414 941 467 963 q 314 919 361 919 q 238 933 267 919 q 190 965 208 947 q 160 996 172 982 q 133 1010 147 1010 q 108 1003 118 1010 q 83 988 97 997 q 21 969 54 965 q -36 1000 -12 972 l -42 1007 z "},"J":{"ha":783,"x_min":-1,"x_max":783,"o":"m 283 -31 q 184 -26 236 -31 q 82 -6 132 -21 q 26 30 47 4 q 2 90 6 56 q 13 154 -1 124 q 74 219 32 193 q 164 232 115 246 q 226 215 196 224 q 283 206 256 206 q 367 222 338 206 q 410 284 397 239 q 422 414 422 329 l 422 660 q 421 687 422 671 q 408 703 419 703 q 372 700 393 703 q 328 694 350 697 q 264 703 293 689 q 217 746 235 718 q 200 808 200 774 q 233 893 200 860 q 317 926 267 926 l 672 926 q 751 894 719 926 q 783 813 783 863 q 765 735 783 767 q 715 703 747 703 l 696 703 q 676 688 679 703 q 672 661 672 672 l 672 414 q 571 88 672 206 q 283 -31 469 -31 z "},"K":{"ha":772,"x_min":11,"x_max":769,"o":"m 150 -28 q 83 -11 115 -28 q 31 34 50 6 q 13 99 11 63 q 22 347 19 231 q 22 581 24 464 q 13 828 19 697 q 31 892 11 864 q 83 938 50 921 q 153 954 117 954 q 242 919 207 954 q 278 831 278 885 l 278 689 q 282 674 278 679 q 296 678 286 669 q 338 728 315 701 q 393 795 361 756 q 469 894 425 835 q 561 960 511 950 q 653 942 611 971 q 695 893 681 924 q 706 827 710 863 q 674 758 703 792 q 596 674 631 707 q 533 613 561 640 q 479 550 506 586 q 475 529 469 538 q 488 517 481 521 q 543 478 508 504 q 619 408 578 453 q 698 295 660 364 q 760 128 736 226 q 751 51 769 86 q 699 -6 733 15 q 624 -28 665 -28 q 537 -4 578 -28 q 490 75 496 19 q 465 181 483 135 q 424 257 446 226 q 383 307 403 288 q 351 336 364 326 q 326 350 335 349 q 311 347 318 351 q 295 331 301 340 q 283 310 289 321 q 281 288 282 300 q 281 278 281 276 q 283 213 282 238 q 287 163 285 188 q 290 99 289 139 q 273 33 293 63 q 220 -12 253 4 q 150 -28 188 -28 z "},"Ķ":{"ha":772,"x_min":11,"x_max":769,"o":"m 150 -28 q 83 -11 115 -28 q 31 34 50 6 q 13 99 11 63 q 22 347 19 231 q 22 581 24 464 q 13 828 19 697 q 31 892 11 864 q 83 938 50 921 q 153 954 117 954 q 242 919 207 954 q 278 831 278 885 l 278 689 q 282 674 278 679 q 296 678 286 669 q 338 728 315 701 q 393 795 361 756 q 469 894 425 835 q 561 960 511 950 q 653 942 611 971 q 695 893 681 924 q 706 827 710 863 q 674 758 703 792 q 596 674 631 707 q 533 613 561 640 q 479 550 506 586 q 475 529 469 538 q 488 517 481 521 q 543 478 508 504 q 619 408 578 453 q 698 295 660 364 q 760 128 736 226 q 751 51 769 86 q 699 -6 733 15 q 624 -28 665 -28 q 537 -4 578 -28 q 490 75 496 19 q 465 181 483 135 q 424 257 446 226 q 383 307 403 288 q 351 336 364 326 q 326 350 335 349 q 311 347 318 351 q 295 331 301 340 q 283 310 289 321 q 281 288 282 300 q 281 278 281 276 q 283 213 282 238 q 287 163 285 188 q 290 99 289 139 q 273 33 293 63 q 220 -12 253 4 q 150 -28 188 -28 m 403 -351 q 364 -387 390 -372 q 304 -401 338 -401 l 299 -401 q 249 -388 272 -401 q 216 -349 225 -375 q 224 -287 207 -324 q 267 -197 251 -233 q 299 -110 283 -160 q 323 -76 303 -89 q 373 -56 343 -62 q 435 -49 403 -49 l 444 -49 q 499 -66 478 -49 q 524 -110 519 -83 q 513 -165 528 -136 q 458 -260 482 -219 q 403 -351 435 -300 z "},"L":{"ha":664,"x_min":39,"x_max":667,"o":"m 179 -28 q 110 -13 143 -29 q 58 32 78 3 q 42 99 39 61 q 51 347 49 231 q 51 580 53 464 q 42 828 49 696 q 58 894 39 867 q 111 938 78 922 q 182 954 144 954 q 274 919 239 954 q 306 828 310 883 q 297 637 300 724 q 293 467 294 550 q 292 286 292 383 q 302 242 292 257 q 342 231 313 226 q 431 239 383 233 q 522 250 479 244 q 597 236 564 256 q 648 185 629 217 q 667 117 667 153 q 649 55 667 85 q 601 6 632 25 q 529 -14 569 -12 l 179 -28 z "},"Ĺ":{"ha":664,"x_min":39,"x_max":667,"o":"m 179 -28 q 110 -13 143 -29 q 58 32 78 3 q 42 99 39 61 q 51 347 49 231 q 51 580 53 464 q 42 828 49 696 q 58 894 39 867 q 111 938 78 922 q 182 954 144 954 q 274 919 239 954 q 306 828 310 883 q 297 637 300 724 q 293 467 294 550 q 292 286 292 383 q 302 242 292 257 q 342 231 313 226 q 431 239 383 233 q 522 250 479 244 q 597 236 564 256 q 648 185 629 217 q 667 117 667 153 q 649 55 667 85 q 601 6 632 25 q 529 -14 569 -12 l 179 -28 m 299 1013 q 222 997 263 986 q 160 1046 182 1007 l 158 1049 q 147 1119 139 1083 q 189 1179 154 1156 q 268 1231 229 1206 q 344 1290 307 1257 q 396 1316 367 1313 q 453 1307 425 1319 q 500 1267 481 1294 l 506 1258 q 521 1193 524 1232 q 499 1122 518 1154 q 446 1082 479 1090 q 363 1051 399 1069 q 299 1013 328 1033 z "},"Ľ":{"ha":664,"x_min":39,"x_max":874,"o":"m 179 -28 q 110 -13 143 -29 q 58 32 78 3 q 42 99 39 61 q 51 347 49 231 q 51 580 53 464 q 42 828 49 696 q 58 894 39 867 q 111 938 78 922 q 182 954 144 954 q 274 919 239 954 q 306 828 310 883 q 297 637 300 724 q 293 467 294 550 q 292 286 292 383 q 302 242 292 257 q 342 231 313 226 q 431 239 383 233 q 522 250 479 244 q 597 236 564 256 q 648 185 629 217 q 667 117 667 153 q 649 55 667 85 q 601 6 632 25 q 529 -14 569 -12 l 179 -28 m 636 856 q 650 924 633 894 q 694 969 667 953 q 751 985 722 985 l 754 985 q 812 969 785 985 q 856 924 839 953 q 869 856 874 894 l 858 708 q 823 629 854 657 q 754 601 792 601 l 751 601 q 678 629 706 601 q 647 708 651 657 l 636 856 z "},"Ļ":{"ha":664,"x_min":39,"x_max":667,"o":"m 179 -28 q 110 -13 143 -29 q 58 32 78 3 q 42 99 39 61 q 51 347 49 231 q 51 580 53 464 q 42 828 49 696 q 58 894 39 867 q 111 938 78 922 q 182 954 144 954 q 274 919 239 954 q 306 828 310 883 q 297 637 300 724 q 293 467 294 550 q 292 286 292 383 q 302 242 292 257 q 342 231 313 226 q 431 239 383 233 q 522 250 479 244 q 597 236 564 256 q 648 185 629 217 q 667 117 667 153 q 649 55 667 85 q 601 6 632 25 q 529 -14 569 -12 l 179 -28 m 358 -351 q 319 -387 346 -372 q 260 -401 293 -401 l 254 -401 q 204 -388 228 -401 q 172 -349 181 -375 q 179 -287 163 -324 q 223 -197 207 -233 q 254 -110 239 -160 q 278 -76 258 -89 q 328 -56 299 -62 q 390 -49 358 -49 l 400 -49 q 454 -66 433 -49 q 479 -110 475 -83 q 468 -165 483 -136 q 414 -260 438 -219 q 358 -351 390 -300 z "},"Ŀ":{"ha":664,"x_min":39,"x_max":667,"o":"m 501 317 q 405 356 444 317 q 365 453 365 396 q 405 549 365 510 q 501 589 444 589 q 598 549 558 589 q 638 453 638 510 q 598 356 638 396 q 501 317 558 317 m 179 -28 q 110 -13 143 -29 q 58 32 78 3 q 42 99 39 61 q 51 347 49 231 q 51 580 53 464 q 42 828 49 696 q 58 894 39 867 q 111 938 78 922 q 182 954 144 954 q 274 919 239 954 q 306 828 310 883 q 297 637 300 724 q 293 467 294 550 q 292 286 292 383 q 302 242 292 257 q 342 231 313 226 q 431 239 383 233 q 522 250 479 244 q 597 236 564 256 q 648 185 629 217 q 667 117 667 153 q 649 55 667 85 q 601 6 632 25 q 529 -14 569 -12 l 179 -28 z "},"Ł":{"ha":707,"x_min":-18,"x_max":710,"o":"m 311 672 q 374 699 336 697 q 440 672 411 701 l 442 671 q 469 609 472 642 q 442 553 467 576 q 274 403 356 478 q 129 256 193 329 q 74 227 106 229 q 13 254 43 225 l 11 256 q -17 324 -18 285 q 11 388 -15 363 q 167 529 97 461 q 311 672 236 597 m 222 -28 q 153 -13 186 -29 q 101 32 121 3 q 85 99 82 61 q 94 347 92 231 q 94 580 96 464 q 85 828 92 696 q 101 894 82 867 q 154 938 121 922 q 225 954 188 954 q 317 919 282 954 q 349 828 353 883 q 340 637 343 724 q 336 467 338 550 q 335 286 335 383 q 345 242 335 257 q 385 231 356 226 q 474 239 426 233 q 565 250 522 244 q 640 236 607 256 q 691 185 672 217 q 710 117 710 153 q 692 55 710 85 q 644 6 675 25 q 572 -14 613 -12 l 222 -28 z "},"M":{"ha":1017,"x_min":-33,"x_max":1049,"o":"m 283 447 q 273 458 279 458 q 265 447 267 458 q 257 347 261 400 q 250 231 253 293 q 246 94 247 169 q 204 6 246 39 q 106 -28 163 -28 q 7 10 47 -28 q -26 107 -33 47 q 19 410 -6 274 q 69 658 43 547 q 115 850 94 768 q 171 926 129 899 q 260 954 213 954 q 354 924 311 954 q 407 847 397 894 q 438 713 424 775 q 467 593 451 650 q 501 481 482 536 q 509 475 504 475 q 515 481 514 475 q 551 593 536 536 q 580 713 565 650 q 610 847 594 775 q 663 924 619 894 q 757 954 706 954 q 846 926 804 954 q 900 850 888 899 q 948 658 922 768 q 999 410 974 547 q 1043 107 1024 274 q 1009 10 1049 47 q 913 -28 969 -28 q 810 7 854 -28 q 767 100 767 42 q 765 194 767 149 q 762 282 764 240 q 757 361 760 324 q 749 432 754 399 q 742 445 747 444 q 731 432 736 446 q 688 287 704 351 q 661 172 671 222 q 643 83 651 122 q 596 3 633 33 q 507 -28 558 -28 q 419 3 456 -28 q 375 85 383 35 q 358 167 368 119 q 331 282 349 214 q 283 447 314 350 z "},"N":{"ha":847,"x_min":39,"x_max":808,"o":"m 639 -28 q 562 -3 596 -28 q 510 61 528 21 q 459 181 482 128 q 417 279 436 235 q 383 359 399 324 q 352 424 367 394 q 322 481 338 454 q 313 488 318 488 q 307 476 307 488 q 310 290 307 382 q 319 99 313 197 q 302 34 322 63 q 249 -11 282 6 q 179 -28 217 -28 q 112 -11 144 -28 q 59 34 79 6 q 42 99 39 63 q 51 339 49 226 q 51 563 53 451 q 42 803 49 675 q 61 880 40 846 q 116 934 82 914 q 188 954 150 954 q 260 937 224 954 q 331 876 297 919 q 373 817 350 851 q 422 740 396 782 q 474 650 449 697 q 524 553 500 603 q 533 547 528 547 q 539 557 539 546 q 538 650 539 604 q 534 743 536 696 q 528 842 532 790 q 545 906 525 878 q 598 951 565 935 q 665 968 631 968 q 735 951 703 968 q 788 906 768 935 q 806 842 808 878 q 796 598 799 714 q 792 365 793 482 q 792 121 792 249 q 749 15 792 57 q 639 -28 707 -28 z "},"Ń":{"ha":847,"x_min":39,"x_max":808,"o":"m 639 -28 q 562 -3 596 -28 q 510 61 528 21 q 459 181 482 128 q 417 279 436 235 q 383 359 399 324 q 352 424 367 394 q 322 481 338 454 q 313 488 318 488 q 307 476 307 488 q 310 290 307 382 q 319 99 313 197 q 302 34 322 63 q 249 -11 282 6 q 179 -28 217 -28 q 112 -11 144 -28 q 59 34 79 6 q 42 99 39 63 q 51 339 49 226 q 51 563 53 451 q 42 803 49 675 q 61 880 40 846 q 116 934 82 914 q 188 954 150 954 q 260 937 224 954 q 331 876 297 919 q 373 817 350 851 q 422 740 396 782 q 474 650 449 697 q 524 553 500 603 q 533 547 528 547 q 539 557 539 546 q 538 650 539 604 q 534 743 536 696 q 528 842 532 790 q 545 906 525 878 q 598 951 565 935 q 665 968 631 968 q 735 951 703 968 q 788 906 768 935 q 806 842 808 878 q 796 598 799 714 q 792 365 793 482 q 792 121 792 249 q 749 15 792 57 q 639 -28 707 -28 m 394 1001 q 318 985 358 975 q 256 1035 278 996 l 254 1038 q 242 1108 235 1072 q 285 1168 250 1144 q 364 1220 325 1194 q 440 1279 403 1246 q 492 1305 463 1301 q 549 1296 521 1308 q 596 1256 576 1283 l 601 1247 q 617 1182 619 1221 q 594 1111 614 1143 q 542 1071 575 1079 q 459 1040 494 1058 q 394 1001 424 1022 z "},"Ň":{"ha":847,"x_min":39,"x_max":808,"o":"m 639 -28 q 562 -3 596 -28 q 510 61 528 21 q 459 181 482 128 q 417 279 436 235 q 383 359 399 324 q 352 424 367 394 q 322 481 338 454 q 313 488 318 488 q 307 476 307 488 q 310 290 307 382 q 319 99 313 197 q 302 34 322 63 q 249 -11 282 6 q 179 -28 217 -28 q 112 -11 144 -28 q 59 34 79 6 q 42 99 39 63 q 51 339 49 226 q 51 563 53 451 q 42 803 49 675 q 61 880 40 846 q 116 934 82 914 q 188 954 150 954 q 260 937 224 954 q 331 876 297 919 q 373 817 350 851 q 422 740 396 782 q 474 650 449 697 q 524 553 500 603 q 533 547 528 547 q 539 557 539 546 q 538 650 539 604 q 534 743 536 696 q 528 842 532 790 q 545 906 525 878 q 598 951 565 935 q 665 968 631 968 q 735 951 703 968 q 788 906 768 935 q 806 842 808 878 q 796 598 799 714 q 792 365 793 482 q 792 121 792 249 q 749 15 792 57 q 639 -28 707 -28 m 701 1236 q 714 1192 715 1217 q 699 1146 713 1168 q 664 1110 686 1124 q 569 1051 608 1076 q 488 994 531 1026 q 368 994 428 949 q 278 1066 321 1031 q 194 1122 235 1101 q 151 1174 161 1140 q 157 1236 142 1207 l 160 1240 q 222 1297 183 1289 q 296 1283 261 1306 q 356 1242 329 1263 q 417 1200 382 1222 q 425 1197 421 1199 q 435 1200 429 1196 q 486 1247 464 1221 q 547 1297 508 1274 q 623 1302 581 1318 q 699 1240 665 1286 l 701 1236 z "},"Ņ":{"ha":847,"x_min":39,"x_max":808,"o":"m 639 -28 q 562 -3 596 -28 q 510 61 528 21 q 459 181 482 128 q 417 279 436 235 q 383 359 399 324 q 352 424 367 394 q 322 481 338 454 q 313 488 318 488 q 307 476 307 488 q 310 290 307 382 q 319 99 313 197 q 302 34 322 63 q 249 -11 282 6 q 179 -28 217 -28 q 112 -11 144 -28 q 59 34 79 6 q 42 99 39 63 q 51 339 49 226 q 51 563 53 451 q 42 803 49 675 q 61 880 40 846 q 116 934 82 914 q 188 954 150 954 q 260 937 224 954 q 331 876 297 919 q 373 817 350 851 q 422 740 396 782 q 474 650 449 697 q 524 553 500 603 q 533 547 528 547 q 539 557 539 546 q 538 650 539 604 q 534 743 536 696 q 528 842 532 790 q 545 906 525 878 q 598 951 565 935 q 665 968 631 968 q 735 951 703 968 q 788 906 768 935 q 806 842 808 878 q 796 598 799 714 q 792 365 793 482 q 792 121 792 249 q 749 15 792 57 q 639 -28 707 -28 m 454 -351 q 415 -387 442 -372 q 356 -401 389 -401 l 350 -401 q 300 -388 324 -401 q 267 -349 276 -375 q 275 -287 258 -324 q 319 -197 303 -233 q 350 -110 335 -160 q 374 -76 354 -89 q 424 -56 394 -62 q 486 -49 454 -49 l 496 -49 q 550 -66 529 -49 q 575 -110 571 -83 q 564 -165 579 -136 q 510 -260 533 -219 q 454 -351 486 -300 z "},"Ñ":{"ha":847,"x_min":39,"x_max":808,"o":"m 639 -28 q 562 -3 596 -28 q 510 61 528 21 q 459 181 482 128 q 417 279 436 235 q 383 359 399 324 q 352 424 367 394 q 322 481 338 454 q 313 488 318 488 q 307 476 307 488 q 310 290 307 382 q 319 99 313 197 q 302 34 322 63 q 249 -11 282 6 q 179 -28 217 -28 q 112 -11 144 -28 q 59 34 79 6 q 42 99 39 63 q 51 339 49 226 q 51 563 53 451 q 42 803 49 675 q 61 880 40 846 q 116 934 82 914 q 188 954 150 954 q 260 937 224 954 q 331 876 297 919 q 373 817 350 851 q 422 740 396 782 q 474 650 449 697 q 524 553 500 603 q 533 547 528 547 q 539 557 539 546 q 538 650 539 604 q 534 743 536 696 q 528 842 532 790 q 545 906 525 878 q 598 951 565 935 q 665 968 631 968 q 735 951 703 968 q 788 906 768 935 q 806 842 808 878 q 796 598 799 714 q 792 365 793 482 q 792 121 792 249 q 749 15 792 57 q 639 -28 707 -28 m 164 1054 q 140 1115 140 1082 q 165 1175 140 1149 q 207 1212 182 1192 q 265 1247 232 1232 q 333 1263 297 1263 q 406 1247 379 1263 q 448 1213 432 1232 q 480 1181 464 1194 q 519 1172 496 1168 q 540 1186 531 1175 q 561 1206 550 1197 q 626 1226 589 1226 q 690 1201 663 1226 l 697 1196 q 726 1149 718 1179 q 728 1089 733 1119 q 703 1039 722 1058 q 619 988 672 1010 q 519 967 567 967 q 443 981 472 967 q 396 1012 414 994 q 365 1043 378 1029 q 339 1057 353 1057 q 313 1051 324 1057 q 289 1035 303 1044 q 226 1016 260 1013 q 169 1047 193 1019 l 164 1054 z "},"O":{"ha":792,"x_min":0,"x_max":792,"o":"m 792 482 q 701 115 792 247 q 413 -31 610 -18 q 174 24 265 -39 q 42 206 83 88 q 0 482 0 325 q 27 664 0 578 q 106 816 54 750 q 231 920 157 882 q 399 957 306 958 q 565 916 492 956 q 689 808 639 876 q 765 656 739 740 q 792 482 792 571 m 250 444 q 285 260 250 321 q 390 206 319 199 q 506 268 469 214 q 542 444 542 322 l 542 482 q 525 608 542 551 q 476 700 508 665 q 396 735 443 735 q 316 700 349 735 q 267 608 283 665 q 250 482 250 551 l 250 444 z "},"Ó":{"ha":792,"x_min":0,"x_max":792,"o":"m 792 482 q 701 115 792 247 q 413 -31 610 -18 q 174 24 265 -39 q 42 206 83 88 q 0 482 0 325 q 27 664 0 578 q 106 816 54 750 q 231 920 157 882 q 399 957 306 958 q 565 916 492 956 q 689 808 639 876 q 765 656 739 740 q 792 482 792 571 m 250 444 q 285 260 250 321 q 390 206 319 199 q 506 268 469 214 q 542 444 542 322 l 542 482 q 525 608 542 551 q 476 700 508 665 q 396 735 443 735 q 316 700 349 735 q 267 608 283 665 q 250 482 250 551 l 250 444 m 363 954 q 286 938 326 928 q 224 988 246 949 l 222 990 q 210 1061 203 1025 q 253 1121 218 1097 q 332 1173 293 1147 q 408 1232 371 1199 q 460 1258 431 1254 q 517 1249 489 1261 q 564 1208 544 1236 l 569 1200 q 585 1135 588 1174 q 563 1064 582 1096 q 510 1024 543 1032 q 427 993 463 1011 q 363 954 392 975 z "},"Ô":{"ha":792,"x_min":0,"x_max":792,"o":"m 792 482 q 701 115 792 247 q 413 -31 610 -18 q 174 24 265 -39 q 42 206 83 88 q 0 482 0 325 q 27 664 0 578 q 106 816 54 750 q 231 920 157 882 q 399 957 306 958 q 565 916 492 956 q 689 808 639 876 q 765 656 739 740 q 792 482 792 571 m 250 444 q 285 260 250 321 q 390 206 319 199 q 506 268 469 214 q 542 444 542 322 l 542 482 q 525 608 542 551 q 476 700 508 665 q 396 735 443 735 q 316 700 349 735 q 267 608 283 665 q 250 482 250 551 l 250 444 m 643 1099 q 682 1042 679 1079 q 667 969 685 1006 l 665 967 q 622 921 650 935 q 566 908 594 907 q 515 924 538 910 q 458 965 481 944 q 408 1006 436 986 q 383 1006 396 1014 q 334 965 356 986 q 276 924 313 944 q 207 910 247 904 q 140 942 167 915 l 138 944 q 106 1021 104 979 q 149 1085 107 1063 q 213 1122 178 1100 q 279 1165 247 1143 q 332 1208 311 1188 q 394 1235 360 1235 q 456 1213 428 1235 q 549 1152 499 1182 q 643 1099 599 1122 z "},"Ö":{"ha":792,"x_min":0,"x_max":792,"o":"m 792 482 q 701 115 792 247 q 413 -31 610 -18 q 174 24 265 -39 q 42 206 83 88 q 0 482 0 325 q 27 664 0 578 q 106 816 54 750 q 231 920 157 882 q 399 957 306 958 q 565 916 492 956 q 689 808 639 876 q 765 656 739 740 q 792 482 792 571 m 250 444 q 285 260 250 321 q 390 206 319 199 q 506 268 469 214 q 542 444 542 322 l 542 482 q 525 608 542 551 q 476 700 508 665 q 396 735 443 735 q 316 700 349 735 q 267 608 283 665 q 250 482 250 551 l 250 444 m 251 958 q 160 995 197 958 q 122 1088 122 1032 q 159 1178 122 1142 q 253 1215 196 1215 q 342 1178 306 1215 q 379 1088 379 1142 q 342 995 379 1032 q 251 958 306 958 m 540 972 q 449 1009 486 972 q 411 1101 411 1046 q 448 1192 411 1156 q 542 1229 485 1229 q 631 1192 594 1229 q 668 1101 668 1156 q 631 1009 668 1046 q 540 972 594 972 z "},"Ò":{"ha":792,"x_min":0,"x_max":792,"o":"m 792 482 q 701 115 792 247 q 413 -31 610 -18 q 174 24 265 -39 q 42 206 83 88 q 0 482 0 325 q 27 664 0 578 q 106 816 54 750 q 231 920 157 882 q 399 957 306 958 q 565 916 492 956 q 689 808 639 876 q 765 656 739 740 q 792 482 792 571 m 250 444 q 285 260 250 321 q 390 206 319 199 q 506 268 469 214 q 542 444 542 322 l 542 482 q 525 608 542 551 q 476 700 508 665 q 396 735 443 735 q 316 700 349 735 q 267 608 283 665 q 250 482 250 551 l 250 444 m 532 1122 q 583 1055 567 1099 q 579 974 600 1011 l 578 971 q 512 926 556 931 q 425 947 468 922 q 349 990 386 971 q 274 1022 311 1010 q 226 1060 242 1033 q 212 1119 211 1088 q 228 1179 213 1151 l 235 1190 q 304 1249 261 1235 q 381 1231 347 1264 q 460 1169 428 1189 q 532 1122 492 1149 z "},"Ő":{"ha":792,"x_min":0,"x_max":792,"o":"m 792 482 q 701 115 792 247 q 413 -31 610 -18 q 174 24 265 -39 q 42 206 83 88 q 0 482 0 325 q 27 664 0 578 q 106 816 54 750 q 231 920 157 882 q 399 957 306 958 q 565 916 492 956 q 689 808 639 876 q 765 656 739 740 q 792 482 792 571 m 250 444 q 285 260 250 321 q 390 206 319 199 q 506 268 469 214 q 542 444 542 322 l 542 482 q 525 608 542 551 q 476 700 508 665 q 396 735 443 735 q 316 700 349 735 q 267 608 283 665 q 250 482 250 551 l 250 444 m 339 956 q 298 917 326 932 q 236 903 269 903 l 231 903 q 163 937 186 903 q 165 1022 140 971 q 216 1127 193 1076 q 254 1228 239 1178 q 278 1264 261 1250 q 322 1285 296 1278 q 381 1292 349 1292 l 390 1292 q 447 1273 425 1292 q 474 1226 469 1254 q 463 1169 479 1199 q 401 1063 432 1117 q 339 956 371 1008 m 601 956 q 560 917 589 932 q 499 903 532 903 l 493 903 q 426 937 449 903 q 428 1022 403 971 q 482 1130 456 1076 q 535 1238 508 1183 q 573 1276 546 1261 q 643 1292 600 1292 l 653 1292 q 717 1271 692 1292 q 750 1220 743 1250 q 735 1163 757 1190 q 665 1060 696 1111 q 601 956 633 1008 z "},"Ō":{"ha":792,"x_min":0,"x_max":792,"o":"m 792 482 q 701 115 792 247 q 413 -31 610 -18 q 174 24 265 -39 q 42 206 83 88 q 0 482 0 325 q 27 664 0 578 q 106 816 54 750 q 231 920 157 882 q 399 957 306 958 q 565 916 492 956 q 689 808 639 876 q 765 656 739 740 q 792 482 792 571 m 250 444 q 285 260 250 321 q 390 206 319 199 q 506 268 469 214 q 542 444 542 322 l 542 482 q 525 608 542 551 q 476 700 508 665 q 396 735 443 735 q 316 700 349 735 q 267 608 283 665 q 250 482 250 551 l 250 444 m 743 1100 q 726 1044 743 1071 q 682 1000 708 1017 q 625 986 656 983 q 168 986 396 1007 q 92 1017 122 982 q 63 1100 63 1053 l 63 1101 q 90 1174 63 1146 q 163 1201 118 1201 q 394 1203 279 1201 q 625 1215 510 1206 q 682 1201 656 1218 q 726 1158 708 1185 q 743 1101 743 1132 l 743 1100 z "},"Ø":{"ha":792,"x_min":0,"x_max":792,"o":"m 146 -87 l 142 -86 q 90 -46 111 -72 q 63 13 68 -19 q 75 72 58 46 q 310 510 207 292 q 496 946 414 728 q 551 1003 513 990 q 632 1000 590 1017 l 636 999 q 707 935 686 975 q 703 854 728 894 q 472 419 575 636 q 297 -17 368 201 q 263 -67 288 -47 q 206 -92 238 -86 q 146 -87 174 -99 m 792 482 q 701 115 792 247 q 413 -31 610 -18 q 174 24 265 -39 q 42 206 83 88 q 0 482 0 325 q 27 664 0 578 q 106 816 54 750 q 231 920 157 882 q 399 957 306 958 q 565 916 492 956 q 689 808 639 876 q 765 656 739 740 q 792 482 792 571 m 250 444 q 285 260 250 321 q 390 206 319 199 q 506 268 469 214 q 542 444 542 322 l 542 482 q 525 608 542 551 q 476 700 508 665 q 396 735 443 735 q 316 700 349 735 q 267 608 283 665 q 250 482 250 551 l 250 444 z "},"Õ":{"ha":792,"x_min":0,"x_max":792,"o":"m 792 482 q 701 115 792 247 q 413 -31 610 -18 q 174 24 265 -39 q 42 206 83 88 q 0 482 0 325 q 27 664 0 578 q 106 816 54 750 q 231 920 157 882 q 399 957 306 958 q 565 916 492 956 q 689 808 639 876 q 765 656 739 740 q 792 482 792 571 m 250 444 q 285 260 250 321 q 390 206 319 199 q 506 268 469 214 q 542 444 542 322 l 542 482 q 525 608 542 551 q 476 700 508 665 q 396 735 443 735 q 316 700 349 735 q 267 608 283 665 q 250 482 250 551 l 250 444 m 132 1007 q 108 1068 108 1035 q 133 1128 108 1101 q 175 1165 150 1144 q 233 1200 200 1185 q 301 1215 265 1215 q 374 1200 347 1215 q 416 1166 400 1185 q 448 1134 432 1147 q 488 1125 464 1121 q 508 1139 499 1128 q 529 1158 518 1150 q 594 1179 557 1179 q 658 1154 631 1179 l 665 1149 q 694 1102 686 1132 q 696 1042 701 1072 q 671 992 690 1011 q 588 941 640 963 q 488 919 535 919 q 411 933 440 919 q 364 965 382 947 q 333 996 346 982 q 307 1010 321 1010 q 281 1003 292 1010 q 257 988 271 997 q 194 969 228 965 q 138 1000 161 972 l 132 1007 z "},"Œ":{"ha":1250,"x_min":0,"x_max":1229,"o":"m 413 -31 q 174 24 265 -39 q 42 206 83 88 q 0 482 0 325 q 27 664 0 578 q 106 816 54 750 q 231 920 157 882 q 399 957 306 958 q 555 916 492 956 q 654 808 618 876 q 706 656 690 740 q 722 482 722 571 q 710 272 722 364 q 666 114 699 179 q 572 13 633 49 q 413 -31 511 -24 m 250 444 q 285 260 250 321 q 390 206 319 199 q 506 268 469 214 q 542 444 542 322 l 542 482 q 525 608 542 551 q 476 700 508 665 q 396 735 443 735 q 316 700 349 735 q 267 608 283 665 q 250 482 250 551 l 250 444 m 1222 842 q 1190 751 1222 790 q 1106 718 1158 713 q 1011 728 1054 725 q 925 731 968 731 q 826 732 882 732 q 808 724 813 732 q 803 700 803 715 q 804 646 804 671 q 804 603 804 621 q 813 579 804 586 q 832 574 822 572 q 932 582 885 578 q 1042 596 979 586 q 1103 585 1076 603 q 1144 538 1129 568 q 1160 471 1160 508 q 1130 391 1160 421 q 1050 361 1100 361 q 933 358 983 361 q 843 350 882 356 q 820 342 829 349 q 810 322 811 336 q 807 274 808 301 q 801 217 806 247 q 809 199 800 203 q 832 194 818 194 q 932 195 890 194 q 1015 199 974 196 q 1113 208 1057 203 q 1197 175 1165 214 q 1229 82 1229 136 q 1199 2 1229 32 q 1119 -28 1169 -28 l 672 -28 q 582 4 621 -28 q 549 89 543 36 q 567 344 563 224 q 567 583 572 464 q 549 838 563 703 q 582 922 543 890 q 672 954 621 954 l 1113 954 q 1192 924 1163 954 q 1222 842 1222 893 z "},"P":{"ha":801,"x_min":39,"x_max":792,"o":"m 181 -28 q 113 -11 144 -28 q 60 35 81 6 q 42 100 40 64 q 51 344 49 231 q 51 571 53 457 q 42 815 49 685 q 58 877 39 851 q 107 919 76 903 q 169 942 138 936 q 252 953 204 949 q 382 957 300 957 q 601 924 510 957 q 742 823 693 892 q 792 643 792 754 q 739 485 792 557 q 591 372 686 414 q 368 329 496 329 q 354 330 361 329 q 342 331 347 331 q 317 324 326 333 q 308 299 307 314 q 312 204 310 249 q 321 106 314 160 q 306 38 326 68 q 252 -10 286 7 q 181 -28 218 -28 m 328 732 q 307 722 315 732 q 300 697 299 713 q 303 642 303 668 q 306 585 304 615 q 332 554 306 557 q 355 552 342 553 q 383 551 368 551 q 481 565 446 551 q 529 599 515 578 q 543 643 543 619 q 529 685 543 664 q 481 721 515 707 q 383 735 446 735 q 356 735 369 735 q 328 732 342 735 z "},"Þ":{"ha":800,"x_min":38,"x_max":790,"o":"m 178 -31 q 79 4 121 -31 q 42 96 38 39 q 51 345 49 226 q 55 583 54 464 q 56 835 56 703 q 97 923 56 889 q 192 957 138 957 l 194 957 q 248 945 224 957 q 288 907 272 933 q 304 835 304 881 l 304 763 l 381 763 q 601 726 510 763 q 742 625 693 690 q 790 472 790 560 q 763 348 790 407 q 681 244 735 289 q 551 179 628 200 q 375 168 474 158 l 306 175 l 306 92 q 272 3 306 38 q 182 -31 238 -31 l 178 -31 m 304 543 l 306 399 l 386 394 q 507 415 471 390 q 543 472 543 439 q 507 524 543 504 q 382 543 471 543 l 304 543 z "},"Q":{"ha":792,"x_min":0,"x_max":792,"o":"m 792 482 q 728 154 792 283 q 526 -14 664 25 q 515 -31 514 -18 q 535 -92 518 -71 q 585 -121 551 -112 q 657 -156 628 -131 q 686 -229 686 -181 q 656 -306 686 -274 q 581 -333 626 -337 q 369 -235 451 -317 q 278 -26 288 -153 q 267 -11 278 -14 q 63 159 125 31 q 0 482 0 288 q 27 664 0 578 q 106 816 54 750 q 231 920 157 882 q 399 957 306 958 q 565 916 492 956 q 689 808 639 876 q 765 656 739 740 q 792 482 792 571 m 250 444 q 285 260 250 321 q 390 206 319 199 q 506 268 469 214 q 542 444 542 322 l 542 482 q 525 608 542 551 q 476 700 508 665 q 396 735 443 735 q 316 700 349 735 q 267 608 283 665 q 250 482 250 551 l 250 444 z "},"R":{"ha":813,"x_min":40,"x_max":799,"o":"m 179 -28 q 112 -11 144 -28 q 60 34 79 6 q 42 99 40 63 q 50 284 47 197 q 53 455 53 371 q 50 626 53 539 q 42 811 47 713 q 79 893 40 864 q 165 935 118 922 q 247 950 189 942 q 382 958 304 958 q 592 917 504 958 q 725 806 679 876 q 771 650 771 736 q 742 524 771 581 q 657 429 713 468 q 645 409 646 421 q 653 386 644 397 q 703 324 678 360 q 751 241 729 289 q 788 132 774 193 q 781 53 799 90 q 729 -6 764 17 q 651 -28 694 -28 q 569 0 608 -28 q 519 72 529 28 q 485 181 506 133 q 436 267 464 228 q 372 342 408 306 q 366 345 369 343 q 357 349 363 347 q 337 348 347 349 q 319 346 326 347 q 307 317 306 336 q 310 212 308 261 q 319 103 313 163 q 303 37 324 67 q 250 -10 283 7 q 179 -28 217 -28 m 383 569 q 494 590 465 569 q 522 650 522 611 q 494 709 522 689 q 383 729 465 729 q 355 728 369 729 q 329 726 340 728 q 308 715 315 725 q 303 692 301 706 q 306 647 306 669 q 307 603 306 625 q 314 583 307 592 q 333 572 321 574 q 356 570 343 571 q 383 569 368 569 z "},"Ŕ":{"ha":813,"x_min":40,"x_max":799,"o":"m 179 -28 q 112 -11 144 -28 q 60 34 79 6 q 42 99 40 63 q 50 284 47 197 q 53 455 53 371 q 50 626 53 539 q 42 811 47 713 q 79 893 40 864 q 165 935 118 922 q 247 950 189 942 q 382 958 304 958 q 592 917 504 958 q 725 806 679 876 q 771 650 771 736 q 742 524 771 581 q 657 429 713 468 q 645 409 646 421 q 653 386 644 397 q 703 324 678 360 q 751 241 729 289 q 788 132 774 193 q 781 53 799 90 q 729 -6 764 17 q 651 -28 694 -28 q 569 0 608 -28 q 519 72 529 28 q 485 181 506 133 q 436 267 464 228 q 372 342 408 306 q 366 345 369 343 q 357 349 363 347 q 337 348 347 349 q 319 346 326 347 q 307 317 306 336 q 310 212 308 261 q 319 103 313 163 q 303 37 324 67 q 250 -10 283 7 q 179 -28 217 -28 m 383 569 q 494 590 465 569 q 522 650 522 611 q 494 709 522 689 q 383 729 465 729 q 355 728 369 729 q 329 726 340 728 q 308 715 315 725 q 303 692 301 706 q 306 647 306 669 q 307 603 306 625 q 314 583 307 592 q 333 572 321 574 q 356 570 343 571 q 383 569 368 569 m 376 954 q 300 938 340 928 q 238 988 260 949 l 236 990 q 224 1061 217 1025 q 267 1121 232 1097 q 346 1173 307 1147 q 422 1232 385 1199 q 474 1258 444 1254 q 531 1249 503 1261 q 578 1208 558 1236 l 583 1200 q 599 1135 601 1174 q 576 1064 596 1096 q 524 1024 557 1032 q 441 993 476 1011 q 376 954 406 975 z "},"Ř":{"ha":813,"x_min":40,"x_max":799,"o":"m 179 -28 q 112 -11 144 -28 q 60 34 79 6 q 42 99 40 63 q 50 284 47 197 q 53 455 53 371 q 50 626 53 539 q 42 811 47 713 q 79 893 40 864 q 165 935 118 922 q 247 950 189 942 q 382 958 304 958 q 592 917 504 958 q 725 806 679 876 q 771 650 771 736 q 742 524 771 581 q 657 429 713 468 q 645 409 646 421 q 653 386 644 397 q 703 324 678 360 q 751 241 729 289 q 788 132 774 193 q 781 53 799 90 q 729 -6 764 17 q 651 -28 694 -28 q 569 0 608 -28 q 519 72 529 28 q 485 181 506 133 q 436 267 464 228 q 372 342 408 306 q 366 345 369 343 q 357 349 363 347 q 337 348 347 349 q 319 346 326 347 q 307 317 306 336 q 310 212 308 261 q 319 103 313 163 q 303 37 324 67 q 250 -10 283 7 q 179 -28 217 -28 m 383 569 q 494 590 465 569 q 522 650 522 611 q 494 709 522 689 q 383 729 465 729 q 355 728 369 729 q 329 726 340 728 q 308 715 315 725 q 303 692 301 706 q 306 647 306 669 q 307 603 306 625 q 314 583 307 592 q 333 572 321 574 q 356 570 343 571 q 383 569 368 569 m 683 1189 q 696 1145 697 1169 q 681 1099 694 1121 q 646 1063 668 1076 q 551 1004 590 1029 q 469 947 513 979 q 350 947 410 901 q 260 1019 303 983 q 176 1075 217 1054 q 133 1126 143 1093 q 139 1189 124 1160 l 142 1193 q 204 1250 165 1242 q 278 1236 243 1258 q 338 1195 311 1215 q 399 1153 364 1175 q 407 1150 403 1151 q 417 1153 411 1149 q 468 1200 446 1174 q 529 1250 490 1226 q 605 1255 563 1271 q 681 1193 647 1239 l 683 1189 z "},"Ŗ":{"ha":813,"x_min":40,"x_max":799,"o":"m 179 -28 q 112 -11 144 -28 q 60 34 79 6 q 42 99 40 63 q 50 284 47 197 q 53 455 53 371 q 50 626 53 539 q 42 811 47 713 q 79 893 40 864 q 165 935 118 922 q 247 950 189 942 q 382 958 304 958 q 592 917 504 958 q 725 806 679 876 q 771 650 771 736 q 742 524 771 581 q 657 429 713 468 q 645 409 646 421 q 653 386 644 397 q 703 324 678 360 q 751 241 729 289 q 788 132 774 193 q 781 53 799 90 q 729 -6 764 17 q 651 -28 694 -28 q 569 0 608 -28 q 519 72 529 28 q 485 181 506 133 q 436 267 464 228 q 372 342 408 306 q 366 345 369 343 q 357 349 363 347 q 337 348 347 349 q 319 346 326 347 q 307 317 306 336 q 310 212 308 261 q 319 103 313 163 q 303 37 324 67 q 250 -10 283 7 q 179 -28 217 -28 m 383 569 q 494 590 465 569 q 522 650 522 611 q 494 709 522 689 q 383 729 465 729 q 355 728 369 729 q 329 726 340 728 q 308 715 315 725 q 303 692 301 706 q 306 647 306 669 q 307 603 306 625 q 314 583 307 592 q 333 572 321 574 q 356 570 343 571 q 383 569 368 569 m 436 -351 q 397 -387 424 -372 q 338 -401 371 -401 l 332 -401 q 282 -388 306 -401 q 249 -349 258 -375 q 257 -287 240 -324 q 301 -197 285 -233 q 332 -110 317 -160 q 356 -76 336 -89 q 406 -56 376 -62 q 468 -49 436 -49 l 478 -49 q 532 -66 511 -49 q 557 -110 553 -83 q 546 -165 561 -136 q 492 -260 515 -219 q 436 -351 468 -300 z "},"S":{"ha":669,"x_min":0,"x_max":669,"o":"m 669 278 q 622 106 669 174 q 488 3 574 38 q 290 -31 403 -31 q 181 -20 236 -31 q 75 10 125 -10 q 17 60 33 28 q 0 132 0 92 q 17 192 0 164 q 60 238 33 219 q 117 259 88 256 q 172 247 146 263 q 233 217 203 228 q 307 206 264 206 q 392 222 364 206 q 419 278 419 239 q 387 333 419 310 q 275 378 354 356 q 74 497 144 414 q 3 693 3 579 q 85 892 3 828 q 304 957 168 957 q 513 900 422 957 q 567 822 560 868 q 538 738 575 775 l 531 731 q 455 690 499 699 q 372 707 411 682 q 336 726 351 718 q 304 735 321 735 q 256 722 272 735 q 239 683 239 708 q 264 639 240 656 q 344 610 288 622 q 583 488 497 574 q 669 278 669 401 z "},"Ś":{"ha":669,"x_min":0,"x_max":669,"o":"m 669 278 q 622 106 669 174 q 488 3 574 38 q 290 -31 403 -31 q 181 -20 236 -31 q 75 10 125 -10 q 17 60 33 28 q 0 132 0 92 q 17 192 0 164 q 60 238 33 219 q 117 259 88 256 q 172 247 146 263 q 233 217 203 228 q 307 206 264 206 q 392 222 364 206 q 419 278 419 239 q 387 333 419 310 q 275 378 354 356 q 74 497 144 414 q 3 693 3 579 q 85 892 3 828 q 304 957 168 957 q 513 900 422 957 q 567 822 560 868 q 538 738 575 775 l 531 731 q 455 690 499 699 q 372 707 411 682 q 336 726 351 718 q 304 735 321 735 q 256 722 272 735 q 239 683 239 708 q 264 639 240 656 q 344 610 288 622 q 583 488 497 574 q 669 278 669 401 m 269 954 q 193 938 233 928 q 131 988 153 949 l 129 990 q 117 1061 110 1025 q 160 1121 125 1097 q 239 1173 200 1147 q 315 1232 278 1199 q 367 1258 338 1254 q 424 1249 396 1261 q 471 1208 451 1236 l 476 1200 q 492 1135 494 1174 q 469 1064 489 1096 q 417 1024 450 1032 q 334 993 369 1011 q 269 954 299 975 z "},"Š":{"ha":669,"x_min":0,"x_max":669,"o":"m 669 278 q 622 106 669 174 q 488 3 574 38 q 290 -31 403 -31 q 181 -20 236 -31 q 75 10 125 -10 q 17 60 33 28 q 0 132 0 92 q 17 192 0 164 q 60 238 33 219 q 117 259 88 256 q 172 247 146 263 q 233 217 203 228 q 307 206 264 206 q 392 222 364 206 q 419 278 419 239 q 387 333 419 310 q 275 378 354 356 q 74 497 144 414 q 3 693 3 579 q 85 892 3 828 q 304 957 168 957 q 513 900 422 957 q 567 822 560 868 q 538 738 575 775 l 531 731 q 455 690 499 699 q 372 707 411 682 q 336 726 351 718 q 304 735 321 735 q 256 722 272 735 q 239 683 239 708 q 264 639 240 656 q 344 610 288 622 q 583 488 497 574 q 669 278 669 401 m 576 1189 q 589 1145 590 1169 q 574 1099 588 1121 q 539 1063 561 1076 q 444 1004 483 1029 q 363 947 406 979 q 243 947 303 901 q 153 1019 196 983 q 69 1075 110 1054 q 26 1126 36 1093 q 32 1189 17 1160 l 35 1193 q 97 1250 58 1242 q 171 1236 136 1258 q 231 1195 204 1215 q 292 1153 257 1175 q 300 1150 296 1151 q 310 1153 304 1149 q 361 1200 339 1174 q 422 1250 383 1226 q 498 1255 456 1271 q 574 1193 540 1239 l 576 1189 z "},"Ş":{"ha":669,"x_min":0,"x_max":669,"o":"m 669 278 q 622 106 669 174 q 488 3 574 38 q 290 -31 403 -31 q 181 -20 236 -31 q 75 10 125 -10 q 17 60 33 28 q 0 132 0 92 q 17 192 0 164 q 60 238 33 219 q 117 259 88 256 q 172 247 146 263 q 233 217 203 228 q 307 206 264 206 q 392 222 364 206 q 419 278 419 239 q 387 333 419 310 q 275 378 354 356 q 74 497 144 414 q 3 693 3 579 q 85 892 3 828 q 304 957 168 957 q 513 900 422 957 q 567 822 560 868 q 538 738 575 775 l 531 731 q 455 690 499 699 q 372 707 411 682 q 336 726 351 718 q 304 735 321 735 q 256 722 272 735 q 239 683 239 708 q 264 639 240 656 q 344 610 288 622 q 583 488 497 574 q 669 278 669 401 m 279 -315 q 241 -312 260 -315 q 206 -304 222 -310 q 158 -268 169 -290 q 149 -215 147 -246 l 149 -214 q 210 -160 151 -158 q 241 -164 228 -160 q 271 -168 254 -168 q 306 -144 306 -168 q 294 -126 306 -131 q 254 -122 283 -122 q 211 -118 232 -122 q 178 -101 190 -114 q 171 -65 167 -89 l 189 35 l 374 35 l 357 -39 q 402 -51 383 -42 q 432 -80 421 -61 q 443 -125 443 -99 q 424 -216 443 -172 q 369 -287 406 -260 q 279 -315 332 -315 z "},"Ș":{"ha":669,"x_min":0,"x_max":669,"o":"m 669 278 q 622 106 669 174 q 488 3 574 38 q 290 -31 403 -31 q 181 -20 236 -31 q 75 10 125 -10 q 17 60 33 28 q 0 132 0 92 q 17 192 0 164 q 60 238 33 219 q 117 259 88 256 q 172 247 146 263 q 233 217 203 228 q 307 206 264 206 q 392 222 364 206 q 419 278 419 239 q 387 333 419 310 q 275 378 354 356 q 74 497 144 414 q 3 693 3 579 q 85 892 3 828 q 304 957 168 957 q 513 900 422 957 q 567 822 560 868 q 538 738 575 775 l 531 731 q 455 690 499 699 q 372 707 411 682 q 336 726 351 718 q 304 735 321 735 q 256 722 272 735 q 239 683 239 708 q 264 639 240 656 q 344 610 288 622 q 583 488 497 574 q 669 278 669 401 m 317 -351 q 278 -387 304 -372 q 218 -401 251 -401 l 213 -401 q 163 -388 186 -401 q 130 -349 139 -375 q 138 -287 121 -324 q 181 -197 165 -233 q 213 -110 197 -160 q 237 -76 217 -89 q 287 -56 257 -62 q 349 -49 317 -49 l 358 -49 q 413 -66 392 -49 q 438 -110 433 -83 q 426 -165 442 -136 q 372 -260 396 -219 q 317 -351 349 -300 z "},"ẞ":{"ha":1017,"x_min":38,"x_max":1017,"o":"m 319 122 q 303 52 322 85 q 251 0 283 19 q 182 -19 219 -19 l 179 -19 q 110 0 142 -19 q 58 52 78 19 q 42 122 39 85 q 50 306 47 221 q 53 474 53 392 q 50 643 53 557 q 42 828 47 729 q 80 919 38 883 q 179 954 122 954 l 819 954 q 884 928 861 954 q 908 865 907 901 q 883 799 910 829 l 742 629 q 734 605 731 617 q 754 588 738 593 q 904 527 846 558 q 990 449 963 496 q 1017 331 1017 403 q 969 146 1017 228 q 837 17 922 64 q 638 -31 751 -31 q 523 -12 579 -31 q 418 25 467 7 q 358 85 372 44 q 367 171 344 126 l 371 176 q 434 242 393 217 q 518 254 475 268 q 589 224 560 240 q 660 204 618 207 q 738 224 710 201 q 767 286 767 247 q 733 346 767 317 q 622 394 700 375 l 493 426 q 425 462 450 436 q 400 522 400 488 q 428 588 400 557 l 517 694 q 524 720 529 708 q 499 732 518 732 l 336 732 q 306 701 306 732 q 306 505 306 596 q 310 322 307 414 q 319 122 314 231 z "},"T":{"ha":736,"x_min":0,"x_max":736,"o":"m 506 96 q 467 4 508 39 q 369 -31 425 -31 q 269 4 311 -31 q 229 96 228 39 q 237 293 235 204 q 240 469 239 382 q 242 654 242 556 q 193 713 242 715 q 154 710 174 711 q 114 707 135 708 q 32 741 64 703 q 0 831 0 779 q 32 915 0 883 q 114 943 64 947 q 366 940 240 933 q 621 957 492 947 q 704 922 672 961 q 736 831 736 883 q 704 741 736 779 q 621 707 672 703 q 588 710 604 708 q 553 713 571 711 q 493 654 493 715 q 494 467 493 554 q 499 290 496 379 q 506 96 501 201 z "},"Ť":{"ha":736,"x_min":0,"x_max":736,"o":"m 506 96 q 467 4 508 39 q 369 -31 425 -31 q 269 4 311 -31 q 229 96 228 39 q 237 293 235 204 q 240 469 239 382 q 242 654 242 556 q 193 713 242 715 q 154 710 174 711 q 114 707 135 708 q 32 741 64 703 q 0 831 0 779 q 32 915 0 883 q 114 943 64 947 q 366 940 240 933 q 621 957 492 947 q 704 922 672 961 q 736 831 736 883 q 704 741 736 779 q 621 707 672 703 q 588 710 604 708 q 553 713 571 711 q 493 654 493 715 q 494 467 493 554 q 499 290 496 379 q 506 96 501 201 m 642 1189 q 654 1145 656 1169 q 640 1099 653 1121 q 604 1063 626 1076 q 510 1004 549 1029 q 428 947 471 979 q 308 947 368 901 q 218 1019 261 983 q 135 1075 175 1054 q 92 1126 101 1093 q 97 1189 82 1160 l 100 1193 q 163 1250 124 1242 q 236 1236 201 1258 q 296 1195 269 1215 q 357 1153 322 1175 q 365 1150 361 1151 q 375 1153 369 1149 q 426 1200 404 1174 q 488 1250 449 1226 q 563 1255 521 1271 q 639 1193 606 1239 l 642 1189 z "},"Ţ":{"ha":736,"x_min":0,"x_max":736,"o":"m 506 96 q 467 4 508 39 q 369 -31 425 -31 q 269 4 311 -31 q 229 96 228 39 q 237 293 235 204 q 240 469 239 382 q 242 654 242 556 q 193 713 242 715 q 154 710 174 711 q 114 707 135 708 q 32 741 64 703 q 0 831 0 779 q 32 915 0 883 q 114 943 64 947 q 366 940 240 933 q 621 957 492 947 q 704 922 672 961 q 736 831 736 883 q 704 741 736 779 q 621 707 672 703 q 588 710 604 708 q 553 713 571 711 q 493 654 493 715 q 494 467 493 554 q 499 290 496 379 q 506 96 501 201 m 357 -315 q 319 -312 338 -315 q 283 -304 300 -310 q 236 -268 247 -290 q 226 -215 225 -246 l 226 -214 q 288 -160 229 -158 q 319 -164 306 -160 q 349 -168 332 -168 q 383 -144 383 -168 q 372 -126 383 -131 q 332 -122 361 -122 q 289 -118 310 -122 q 256 -101 268 -114 q 249 -65 244 -89 l 267 35 l 451 35 l 435 -39 q 480 -51 461 -42 q 510 -80 499 -61 q 521 -125 521 -99 q 502 -216 521 -172 q 447 -287 483 -260 q 357 -315 410 -315 z "},"Ț":{"ha":736,"x_min":0,"x_max":736,"o":"m 506 96 q 467 4 508 39 q 369 -31 425 -31 q 269 4 311 -31 q 229 96 228 39 q 237 293 235 204 q 240 469 239 382 q 242 654 242 556 q 193 713 242 715 q 154 710 174 711 q 114 707 135 708 q 32 741 64 703 q 0 831 0 779 q 32 915 0 883 q 114 943 64 947 q 366 940 240 933 q 621 957 492 947 q 704 922 672 961 q 736 831 736 883 q 704 741 736 779 q 621 707 672 703 q 588 710 604 708 q 553 713 571 711 q 493 654 493 715 q 494 467 493 554 q 499 290 496 379 q 506 96 501 201 m 394 -351 q 356 -387 382 -372 q 296 -401 329 -401 l 290 -401 q 240 -388 264 -401 q 208 -349 217 -375 q 215 -287 199 -324 q 259 -197 243 -233 q 290 -110 275 -160 q 315 -76 294 -89 q 365 -56 335 -62 q 426 -49 394 -49 l 436 -49 q 490 -66 469 -49 q 515 -110 511 -83 q 504 -165 519 -136 q 450 -260 474 -219 q 394 -351 426 -300 z "},"U":{"ha":818,"x_min":10,"x_max":779,"o":"m 151 954 q 241 919 206 954 q 276 829 276 883 q 276 685 276 749 q 276 558 276 621 q 276 414 276 494 q 301 258 276 311 q 394 206 326 206 q 488 258 463 206 q 513 414 513 311 q 512 560 513 494 q 508 693 511 626 q 499 839 506 760 q 516 906 496 876 q 569 951 536 935 q 638 968 601 968 q 706 951 674 968 q 759 906 739 935 q 776 839 779 876 q 767 693 769 760 q 763 560 764 626 q 763 414 763 494 q 722 172 763 275 q 599 15 682 69 q 392 -31 517 -39 q 122 93 218 -19 q 26 414 26 206 q 26 557 26 494 q 22 683 25 619 q 13 825 19 746 q 30 892 10 863 q 83 938 50 921 q 151 954 115 954 z "},"Ú":{"ha":818,"x_min":10,"x_max":779,"o":"m 151 954 q 241 919 206 954 q 276 829 276 883 q 276 685 276 749 q 276 558 276 621 q 276 414 276 494 q 301 258 276 311 q 394 206 326 206 q 488 258 463 206 q 513 414 513 311 q 512 560 513 494 q 508 693 511 626 q 499 839 506 760 q 516 906 496 876 q 569 951 536 935 q 638 968 601 968 q 706 951 674 968 q 759 906 739 935 q 776 839 779 876 q 767 693 769 760 q 763 560 764 626 q 763 414 763 494 q 722 172 763 275 q 599 15 682 69 q 392 -31 517 -39 q 122 93 218 -19 q 26 414 26 206 q 26 557 26 494 q 22 683 25 619 q 13 825 19 746 q 30 892 10 863 q 83 938 50 921 q 151 954 115 954 m 361 954 q 285 938 325 928 q 222 988 244 949 l 221 990 q 209 1061 201 1025 q 251 1121 217 1097 q 331 1173 292 1147 q 407 1232 369 1199 q 458 1258 429 1254 q 515 1249 488 1261 q 563 1208 543 1236 l 568 1200 q 583 1135 586 1174 q 561 1064 581 1096 q 508 1024 542 1032 q 426 993 461 1011 q 361 954 390 975 z "},"Û":{"ha":818,"x_min":10,"x_max":779,"o":"m 151 954 q 241 919 206 954 q 276 829 276 883 q 276 685 276 749 q 276 558 276 621 q 276 414 276 494 q 301 258 276 311 q 394 206 326 206 q 488 258 463 206 q 513 414 513 311 q 512 560 513 494 q 508 693 511 626 q 499 839 506 760 q 516 906 496 876 q 569 951 536 935 q 638 968 601 968 q 706 951 674 968 q 759 906 739 935 q 776 839 779 876 q 767 693 769 760 q 763 560 764 626 q 763 414 763 494 q 722 172 763 275 q 599 15 682 69 q 392 -31 517 -39 q 122 93 218 -19 q 26 414 26 206 q 26 557 26 494 q 22 683 25 619 q 13 825 19 746 q 30 892 10 863 q 83 938 50 921 q 151 954 115 954 m 642 1099 q 681 1042 678 1079 q 665 969 683 1006 l 664 967 q 621 921 649 935 q 565 908 593 907 q 514 924 536 910 q 457 965 479 944 q 407 1006 435 986 q 382 1006 394 1014 q 333 965 354 986 q 275 924 311 944 q 206 910 246 904 q 139 942 165 915 l 136 944 q 104 1021 103 979 q 147 1085 106 1063 q 211 1122 176 1100 q 278 1165 246 1143 q 331 1208 310 1188 q 392 1235 358 1235 q 454 1213 426 1235 q 547 1152 497 1182 q 642 1099 597 1122 z "},"Ü":{"ha":818,"x_min":10,"x_max":779,"o":"m 151 954 q 241 919 206 954 q 276 829 276 883 q 276 685 276 749 q 276 558 276 621 q 276 414 276 494 q 301 258 276 311 q 394 206 326 206 q 488 258 463 206 q 513 414 513 311 q 512 560 513 494 q 508 693 511 626 q 499 839 506 760 q 516 906 496 876 q 569 951 536 935 q 638 968 601 968 q 706 951 674 968 q 759 906 739 935 q 776 839 779 876 q 767 693 769 760 q 763 560 764 626 q 763 414 763 494 q 722 172 763 275 q 599 15 682 69 q 392 -31 517 -39 q 122 93 218 -19 q 26 414 26 206 q 26 557 26 494 q 22 683 25 619 q 13 825 19 746 q 30 892 10 863 q 83 938 50 921 q 151 954 115 954 m 250 958 q 158 995 196 958 q 121 1088 121 1032 q 158 1178 121 1142 q 251 1215 194 1215 q 341 1178 304 1215 q 378 1088 378 1142 q 341 995 378 1032 q 250 958 304 958 m 539 972 q 447 1009 485 972 q 410 1101 410 1046 q 447 1192 410 1156 q 540 1229 483 1229 q 630 1192 593 1229 q 667 1101 667 1156 q 630 1009 667 1046 q 539 972 593 972 z "},"Ù":{"ha":818,"x_min":10,"x_max":779,"o":"m 151 954 q 241 919 206 954 q 276 829 276 883 q 276 685 276 749 q 276 558 276 621 q 276 414 276 494 q 301 258 276 311 q 394 206 326 206 q 488 258 463 206 q 513 414 513 311 q 512 560 513 494 q 508 693 511 626 q 499 839 506 760 q 516 906 496 876 q 569 951 536 935 q 638 968 601 968 q 706 951 674 968 q 759 906 739 935 q 776 839 779 876 q 767 693 769 760 q 763 560 764 626 q 763 414 763 494 q 722 172 763 275 q 599 15 682 69 q 392 -31 517 -39 q 122 93 218 -19 q 26 414 26 206 q 26 557 26 494 q 22 683 25 619 q 13 825 19 746 q 30 892 10 863 q 83 938 50 921 q 151 954 115 954 m 531 1122 q 582 1055 565 1099 q 578 974 599 1011 l 576 971 q 510 926 554 931 q 424 947 467 922 q 347 990 385 971 q 272 1022 310 1010 q 225 1060 240 1033 q 210 1119 210 1088 q 226 1179 211 1151 l 233 1190 q 303 1249 260 1235 q 379 1231 346 1264 q 458 1169 426 1189 q 531 1122 490 1149 z "},"Ű":{"ha":818,"x_min":10,"x_max":779,"o":"m 151 954 q 241 919 206 954 q 276 829 276 883 q 276 685 276 749 q 276 558 276 621 q 276 414 276 494 q 301 258 276 311 q 394 206 326 206 q 488 258 463 206 q 513 414 513 311 q 512 560 513 494 q 508 693 511 626 q 499 839 506 760 q 516 906 496 876 q 569 951 536 935 q 638 968 601 968 q 706 951 674 968 q 759 906 739 935 q 776 839 779 876 q 767 693 769 760 q 763 560 764 626 q 763 414 763 494 q 722 172 763 275 q 599 15 682 69 q 392 -31 517 -39 q 122 93 218 -19 q 26 414 26 206 q 26 557 26 494 q 22 683 25 619 q 13 825 19 746 q 30 892 10 863 q 83 938 50 921 q 151 954 115 954 m 338 956 q 297 917 325 932 q 235 903 268 903 l 229 903 q 162 937 185 903 q 164 1022 139 971 q 215 1127 192 1076 q 253 1228 238 1178 q 277 1264 260 1250 q 321 1285 294 1278 q 379 1292 347 1292 l 389 1292 q 446 1273 424 1292 q 473 1226 468 1254 q 461 1169 478 1199 q 400 1063 431 1117 q 338 956 369 1008 m 600 956 q 559 917 588 932 q 497 903 531 903 l 492 903 q 424 937 447 903 q 426 1022 401 971 q 481 1130 454 1076 q 533 1238 507 1183 q 572 1276 544 1261 q 642 1292 599 1292 l 651 1292 q 716 1271 690 1292 q 749 1220 742 1250 q 733 1163 756 1190 q 663 1060 694 1111 q 600 956 632 1008 z "},"Ū":{"ha":818,"x_min":10,"x_max":779,"o":"m 151 954 q 241 919 206 954 q 276 829 276 883 q 276 685 276 749 q 276 558 276 621 q 276 414 276 494 q 301 258 276 311 q 394 206 326 206 q 488 258 463 206 q 513 414 513 311 q 512 560 513 494 q 508 693 511 626 q 499 839 506 760 q 516 906 496 876 q 569 951 536 935 q 638 968 601 968 q 706 951 674 968 q 759 906 739 935 q 776 839 779 876 q 767 693 769 760 q 763 560 764 626 q 763 414 763 494 q 722 172 763 275 q 599 15 682 69 q 392 -31 517 -39 q 122 93 218 -19 q 26 414 26 206 q 26 557 26 494 q 22 683 25 619 q 13 825 19 746 q 30 892 10 863 q 83 938 50 921 q 151 954 115 954 m 742 1100 q 724 1044 742 1071 q 681 1000 707 1017 q 624 986 654 983 q 167 986 394 1007 q 91 1017 121 982 q 61 1100 61 1053 l 61 1101 q 89 1174 61 1146 q 161 1201 117 1201 q 393 1203 278 1201 q 624 1215 508 1206 q 681 1201 654 1218 q 724 1158 707 1185 q 742 1101 742 1132 l 742 1100 z "},"Ų":{"ha":818,"x_min":10,"x_max":779,"o":"m 151 954 q 241 919 206 954 q 276 829 276 883 q 276 685 276 749 q 276 558 276 621 q 276 414 276 494 q 301 258 276 311 q 394 206 326 206 q 488 258 463 206 q 513 414 513 311 q 512 560 513 494 q 508 693 511 626 q 499 839 506 760 q 516 906 496 876 q 569 951 536 935 q 638 968 601 968 q 706 951 674 968 q 759 906 739 935 q 776 839 779 876 q 767 693 769 760 q 763 560 764 626 q 763 414 763 494 q 722 172 763 275 q 599 15 682 69 q 392 -31 517 -39 q 122 93 218 -19 q 26 414 26 206 q 26 557 26 494 q 22 683 25 619 q 13 825 19 746 q 30 892 10 863 q 83 938 50 921 q 151 954 115 954 m 563 -264 q 473 -237 515 -264 q 410 -167 431 -211 q 400 -65 389 -122 q 428 -7 407 -29 q 473 27 449 15 q 513 42 497 39 l 569 54 l 596 15 q 585 9 596 15 q 562 -9 574 3 q 550 -39 550 -21 q 558 -56 550 -50 q 578 -65 565 -62 q 603 -67 590 -67 q 664 -87 638 -67 q 690 -147 690 -107 q 650 -235 690 -206 q 563 -264 610 -264 z "},"Ů":{"ha":818,"x_min":10,"x_max":779,"o":"m 151 954 q 241 919 206 954 q 276 829 276 883 q 276 685 276 749 q 276 558 276 621 q 276 414 276 494 q 301 258 276 311 q 394 206 326 206 q 488 258 463 206 q 513 414 513 311 q 512 560 513 494 q 508 693 511 626 q 499 839 506 760 q 516 906 496 876 q 569 951 536 935 q 638 968 601 968 q 706 951 674 968 q 759 906 739 935 q 776 839 779 876 q 767 693 769 760 q 763 560 764 626 q 763 414 763 494 q 722 172 763 275 q 599 15 682 69 q 392 -31 517 -39 q 122 93 218 -19 q 26 414 26 206 q 26 557 26 494 q 22 683 25 619 q 13 825 19 746 q 30 892 10 863 q 83 938 50 921 q 151 954 115 954 m 193 1058 q 220 1159 193 1114 q 293 1231 247 1204 q 394 1258 339 1258 q 495 1231 450 1258 q 568 1159 540 1204 q 596 1058 596 1114 q 574 957 596 1006 q 508 877 551 908 q 394 846 464 846 q 293 876 339 846 q 220 955 247 907 q 193 1058 193 1003 m 346 1056 q 361 1022 346 1038 q 394 1007 376 1007 q 428 1022 414 1007 q 443 1056 443 1038 q 428 1090 443 1075 q 394 1104 414 1104 q 361 1090 376 1104 q 346 1056 346 1075 z "},"Ũ":{"ha":818,"x_min":10,"x_max":779,"o":"m 151 954 q 241 919 206 954 q 276 829 276 883 q 276 685 276 749 q 276 558 276 621 q 276 414 276 494 q 301 258 276 311 q 394 206 326 206 q 488 258 463 206 q 513 414 513 311 q 512 560 513 494 q 508 693 511 626 q 499 839 506 760 q 516 906 496 876 q 569 951 536 935 q 638 968 601 968 q 706 951 674 968 q 759 906 739 935 q 776 839 779 876 q 767 693 769 760 q 763 560 764 626 q 763 414 763 494 q 722 172 763 275 q 599 15 682 69 q 392 -31 517 -39 q 122 93 218 -19 q 26 414 26 206 q 26 557 26 494 q 22 683 25 619 q 13 825 19 746 q 30 892 10 863 q 83 938 50 921 q 151 954 115 954 m 131 1007 q 107 1068 107 1035 q 132 1128 107 1101 q 174 1165 149 1144 q 231 1200 199 1185 q 300 1215 264 1215 q 372 1200 346 1215 q 415 1166 399 1185 q 447 1134 431 1147 q 486 1125 463 1121 q 507 1139 497 1128 q 528 1158 517 1150 q 592 1179 556 1179 q 657 1154 629 1179 l 664 1149 q 692 1102 685 1132 q 694 1042 700 1072 q 669 992 689 1011 q 586 941 639 963 q 486 919 533 919 q 410 933 439 919 q 363 965 381 947 q 332 996 344 982 q 306 1010 319 1010 q 280 1003 290 1010 q 256 988 269 997 q 193 969 226 965 q 136 1000 160 972 l 131 1007 z "},"V":{"ha":763,"x_min":-35,"x_max":797,"o":"m 372 371 q 381 366 374 365 q 389 371 388 367 q 440 519 419 447 q 478 672 461 592 q 507 847 494 751 q 533 906 511 879 q 584 951 554 933 q 646 968 614 968 q 737 941 701 968 q 785 871 772 914 q 782 781 797 828 q 707 541 746 660 q 624 306 668 422 q 528 71 581 189 q 469 -1 507 26 q 382 -28 431 -28 q 293 -1 332 -28 q 233 71 254 26 q 138 306 182 189 q 55 541 93 422 q -21 781 17 660 q -20 866 -35 826 q 26 930 -6 906 q 99 954 58 954 q 197 921 158 954 q 243 832 235 888 q 280 662 261 739 q 321 515 299 585 q 372 371 343 446 z "},"W":{"ha":1065,"x_min":-36,"x_max":1099,"o":"m 304 -28 q 211 1 256 -28 q 153 76 167 31 q 84 333 117 208 q 24 578 51 458 q -25 817 -4 699 q -3 915 -36 876 q 93 954 31 954 q 185 925 144 954 q 232 843 225 896 q 250 709 240 775 q 272 575 260 643 q 300 432 285 507 q 308 424 303 424 q 317 432 314 424 q 348 575 333 507 q 374 709 363 643 q 393 842 385 775 q 434 924 400 893 q 519 954 468 954 q 615 924 579 954 q 657 842 650 893 q 676 709 665 775 q 703 576 688 643 q 733 435 718 508 q 742 426 736 426 q 750 435 749 426 q 778 581 765 510 q 800 720 790 651 q 818 857 810 789 q 865 939 825 910 q 960 968 906 968 q 1033 950 1000 968 q 1082 901 1065 932 q 1089 826 1099 869 q 1046 649 1068 739 q 999 464 1024 558 q 950 273 975 369 q 897 76 925 176 q 840 1 885 31 q 746 -28 794 -28 q 646 1 692 -28 q 592 82 600 31 q 574 169 583 124 q 553 265 564 215 q 532 367 543 315 q 526 375 531 375 q 518 367 521 375 q 497 265 507 315 q 476 169 486 215 q 458 82 467 124 q 404 1 450 31 q 304 -28 358 -28 z "},"Ẃ":{"ha":1065,"x_min":-36,"x_max":1099,"o":"m 304 -28 q 211 1 256 -28 q 153 76 167 31 q 84 333 117 208 q 24 578 51 458 q -25 817 -4 699 q -3 915 -36 876 q 93 954 31 954 q 185 925 144 954 q 232 843 225 896 q 250 709 240 775 q 272 575 260 643 q 300 432 285 507 q 308 424 303 424 q 317 432 314 424 q 348 575 333 507 q 374 709 363 643 q 393 842 385 775 q 434 924 400 893 q 519 954 468 954 q 615 924 579 954 q 657 842 650 893 q 676 709 665 775 q 703 576 688 643 q 733 435 718 508 q 742 426 736 426 q 750 435 749 426 q 778 581 765 510 q 800 720 790 651 q 818 857 810 789 q 865 939 825 910 q 960 968 906 968 q 1033 950 1000 968 q 1082 901 1065 932 q 1089 826 1099 869 q 1046 649 1068 739 q 999 464 1024 558 q 950 273 975 369 q 897 76 925 176 q 840 1 885 31 q 746 -28 794 -28 q 646 1 692 -28 q 592 82 600 31 q 574 169 583 124 q 553 265 564 215 q 532 367 543 315 q 526 375 531 375 q 518 367 521 375 q 497 265 507 315 q 476 169 486 215 q 458 82 467 124 q 404 1 450 31 q 304 -28 358 -28 m 492 954 q 415 938 456 928 q 353 988 375 949 l 351 990 q 340 1061 332 1025 q 382 1121 347 1097 q 461 1173 422 1147 q 538 1232 500 1199 q 589 1258 560 1254 q 646 1249 618 1261 q 693 1208 674 1236 l 699 1200 q 714 1135 717 1174 q 692 1064 711 1096 q 639 1024 672 1032 q 556 993 592 1011 q 492 954 521 975 z "},"Ŵ":{"ha":1065,"x_min":-36,"x_max":1099,"o":"m 304 -28 q 211 1 256 -28 q 153 76 167 31 q 84 333 117 208 q 24 578 51 458 q -25 817 -4 699 q -3 915 -36 876 q 93 954 31 954 q 185 925 144 954 q 232 843 225 896 q 250 709 240 775 q 272 575 260 643 q 300 432 285 507 q 308 424 303 424 q 317 432 314 424 q 348 575 333 507 q 374 709 363 643 q 393 842 385 775 q 434 924 400 893 q 519 954 468 954 q 615 924 579 954 q 657 842 650 893 q 676 709 665 775 q 703 576 688 643 q 733 435 718 508 q 742 426 736 426 q 750 435 749 426 q 778 581 765 510 q 800 720 790 651 q 818 857 810 789 q 865 939 825 910 q 960 968 906 968 q 1033 950 1000 968 q 1082 901 1065 932 q 1089 826 1099 869 q 1046 649 1068 739 q 999 464 1024 558 q 950 273 975 369 q 897 76 925 176 q 840 1 885 31 q 746 -28 794 -28 q 646 1 692 -28 q 592 82 600 31 q 574 169 583 124 q 553 265 564 215 q 532 367 543 315 q 526 375 531 375 q 518 367 521 375 q 497 265 507 315 q 476 169 486 215 q 458 82 467 124 q 404 1 450 31 q 304 -28 358 -28 m 772 1099 q 811 1042 808 1079 q 796 969 814 1006 l 794 967 q 751 921 779 935 q 695 908 724 907 q 644 924 667 910 q 588 965 610 944 q 538 1006 565 986 q 513 1006 525 1014 q 463 965 485 986 q 406 924 442 944 q 336 910 376 904 q 269 942 296 915 l 267 944 q 235 1021 233 979 q 278 1085 236 1063 q 342 1122 307 1100 q 408 1165 376 1143 q 461 1208 440 1188 q 523 1235 489 1235 q 585 1213 557 1235 q 678 1152 628 1182 q 772 1099 728 1122 z "},"Ẅ":{"ha":1065,"x_min":-36,"x_max":1099,"o":"m 304 -28 q 211 1 256 -28 q 153 76 167 31 q 84 333 117 208 q 24 578 51 458 q -25 817 -4 699 q -3 915 -36 876 q 93 954 31 954 q 185 925 144 954 q 232 843 225 896 q 250 709 240 775 q 272 575 260 643 q 300 432 285 507 q 308 424 303 424 q 317 432 314 424 q 348 575 333 507 q 374 709 363 643 q 393 842 385 775 q 434 924 400 893 q 519 954 468 954 q 615 924 579 954 q 657 842 650 893 q 676 709 665 775 q 703 576 688 643 q 733 435 718 508 q 742 426 736 426 q 750 435 749 426 q 778 581 765 510 q 800 720 790 651 q 818 857 810 789 q 865 939 825 910 q 960 968 906 968 q 1033 950 1000 968 q 1082 901 1065 932 q 1089 826 1099 869 q 1046 649 1068 739 q 999 464 1024 558 q 950 273 975 369 q 897 76 925 176 q 840 1 885 31 q 746 -28 794 -28 q 646 1 692 -28 q 592 82 600 31 q 574 169 583 124 q 553 265 564 215 q 532 367 543 315 q 526 375 531 375 q 518 367 521 375 q 497 265 507 315 q 476 169 486 215 q 458 82 467 124 q 404 1 450 31 q 304 -28 358 -28 m 381 958 q 289 995 326 958 q 251 1088 251 1032 q 288 1178 251 1142 q 382 1215 325 1215 q 472 1178 435 1215 q 508 1088 508 1142 q 472 995 508 1032 q 381 958 435 958 m 669 972 q 578 1009 615 972 q 540 1101 540 1046 q 577 1192 540 1156 q 671 1229 614 1229 q 760 1192 724 1229 q 797 1101 797 1156 q 760 1009 797 1046 q 669 972 724 972 z "},"Ẁ":{"ha":1065,"x_min":-36,"x_max":1099,"o":"m 304 -28 q 211 1 256 -28 q 153 76 167 31 q 84 333 117 208 q 24 578 51 458 q -25 817 -4 699 q -3 915 -36 876 q 93 954 31 954 q 185 925 144 954 q 232 843 225 896 q 250 709 240 775 q 272 575 260 643 q 300 432 285 507 q 308 424 303 424 q 317 432 314 424 q 348 575 333 507 q 374 709 363 643 q 393 842 385 775 q 434 924 400 893 q 519 954 468 954 q 615 924 579 954 q 657 842 650 893 q 676 709 665 775 q 703 576 688 643 q 733 435 718 508 q 742 426 736 426 q 750 435 749 426 q 778 581 765 510 q 800 720 790 651 q 818 857 810 789 q 865 939 825 910 q 960 968 906 968 q 1033 950 1000 968 q 1082 901 1065 932 q 1089 826 1099 869 q 1046 649 1068 739 q 999 464 1024 558 q 950 273 975 369 q 897 76 925 176 q 840 1 885 31 q 746 -28 794 -28 q 646 1 692 -28 q 592 82 600 31 q 574 169 583 124 q 553 265 564 215 q 532 367 543 315 q 526 375 531 375 q 518 367 521 375 q 497 265 507 315 q 476 169 486 215 q 458 82 467 124 q 404 1 450 31 q 304 -28 358 -28 m 661 1122 q 713 1055 696 1099 q 708 974 729 1011 l 707 971 q 641 926 685 931 q 554 947 597 922 q 478 990 515 971 q 403 1022 440 1010 q 356 1060 371 1033 q 341 1119 340 1088 q 357 1179 342 1151 l 364 1190 q 433 1249 390 1235 q 510 1231 476 1264 q 589 1169 557 1189 q 661 1122 621 1149 z "},"X":{"ha":818,"x_min":-1,"x_max":811,"o":"m 119 -28 q 47 -6 78 -28 q 8 53 17 17 q 18 132 -1 89 q 83 246 47 190 q 161 356 119 301 q 244 464 203 410 q 244 481 251 472 q 135 638 185 561 q 47 796 86 714 q 33 876 26 840 q 66 933 39 913 q 133 954 93 954 q 221 929 183 954 q 285 838 258 904 q 315 771 301 800 q 348 715 329 742 q 394 653 367 688 q 411 653 404 642 q 460 718 440 689 q 494 779 479 747 q 524 851 508 811 q 583 932 542 896 q 678 968 624 968 q 748 942 719 968 q 786 876 776 915 q 775 796 796 838 q 682 636 736 713 q 565 481 628 560 q 565 464 558 472 q 649 354 608 408 q 727 245 690 300 q 790 132 764 190 q 801 53 811 89 q 763 -6 792 17 q 693 -28 735 -28 q 600 -3 644 -28 q 538 75 556 22 q 485 190 517 138 q 411 288 453 242 q 394 286 404 296 q 327 183 357 243 q 271 61 297 124 q 210 -5 254 18 q 119 -28 167 -28 z "},"Y":{"ha":738,"x_min":-33,"x_max":771,"o":"m 364 -28 q 290 -11 324 -28 q 238 35 257 6 q 224 104 218 65 q 235 219 232 167 q 238 333 238 271 q 226 371 238 353 q 137 510 181 440 q 54 653 93 581 q -15 797 15 725 q -26 876 -33 840 q 10 933 -18 911 q 82 954 38 954 q 172 930 131 954 q 228 861 213 906 q 282 718 254 783 q 357 581 310 653 q 374 581 365 568 q 432 668 408 628 q 474 750 456 708 q 510 843 493 792 q 568 933 529 899 q 656 968 607 968 q 728 942 700 968 q 763 877 756 917 q 751 794 771 838 q 679 651 721 722 q 592 510 638 579 q 499 371 546 440 q 488 333 488 353 q 490 219 488 271 q 501 104 493 167 q 488 35 507 65 q 436 -11 469 6 q 364 -28 403 -28 z "},"Ý":{"ha":738,"x_min":-33,"x_max":771,"o":"m 364 -28 q 290 -11 324 -28 q 238 35 257 6 q 224 104 218 65 q 235 219 232 167 q 238 333 238 271 q 226 371 238 353 q 137 510 181 440 q 54 653 93 581 q -15 797 15 725 q -26 876 -33 840 q 10 933 -18 911 q 82 954 38 954 q 172 930 131 954 q 228 861 213 906 q 282 718 254 783 q 357 581 310 653 q 374 581 365 568 q 432 668 408 628 q 474 750 456 708 q 510 843 493 792 q 568 933 529 899 q 656 968 607 968 q 728 942 700 968 q 763 877 756 917 q 751 794 771 838 q 679 651 721 722 q 592 510 638 579 q 499 371 546 440 q 488 333 488 353 q 490 219 488 271 q 501 104 493 167 q 488 35 507 65 q 436 -11 469 6 q 364 -28 403 -28 m 331 954 q 254 938 294 928 q 192 988 214 949 l 190 990 q 178 1061 171 1025 q 221 1121 186 1097 q 300 1173 261 1147 q 376 1232 339 1199 q 428 1258 399 1254 q 485 1249 457 1261 q 532 1208 513 1236 l 538 1200 q 553 1135 556 1174 q 531 1064 550 1096 q 478 1024 511 1032 q 395 993 431 1011 q 331 954 360 975 z "},"Ŷ":{"ha":738,"x_min":-33,"x_max":771,"o":"m 364 -28 q 290 -11 324 -28 q 238 35 257 6 q 224 104 218 65 q 235 219 232 167 q 238 333 238 271 q 226 371 238 353 q 137 510 181 440 q 54 653 93 581 q -15 797 15 725 q -26 876 -33 840 q 10 933 -18 911 q 82 954 38 954 q 172 930 131 954 q 228 861 213 906 q 282 718 254 783 q 357 581 310 653 q 374 581 365 568 q 432 668 408 628 q 474 750 456 708 q 510 843 493 792 q 568 933 529 899 q 656 968 607 968 q 728 942 700 968 q 763 877 756 917 q 751 794 771 838 q 679 651 721 722 q 592 510 638 579 q 499 371 546 440 q 488 333 488 353 q 490 219 488 271 q 501 104 493 167 q 488 35 507 65 q 436 -11 469 6 q 364 -28 403 -28 m 611 1099 q 650 1042 647 1079 q 635 969 653 1006 l 633 967 q 590 921 618 935 q 534 908 563 907 q 483 924 506 910 q 426 965 449 944 q 376 1006 404 986 q 351 1006 364 1014 q 302 965 324 986 q 244 924 281 944 q 175 910 215 904 q 108 942 135 915 l 106 944 q 74 1021 72 979 q 117 1085 75 1063 q 181 1122 146 1100 q 247 1165 215 1143 q 300 1208 279 1188 q 362 1235 328 1235 q 424 1213 396 1235 q 517 1152 467 1182 q 611 1099 567 1122 z "},"Ÿ":{"ha":738,"x_min":-33,"x_max":771,"o":"m 364 -28 q 290 -11 324 -28 q 238 35 257 6 q 224 104 218 65 q 235 219 232 167 q 238 333 238 271 q 226 371 238 353 q 137 510 181 440 q 54 653 93 581 q -15 797 15 725 q -26 876 -33 840 q 10 933 -18 911 q 82 954 38 954 q 172 930 131 954 q 228 861 213 906 q 282 718 254 783 q 357 581 310 653 q 374 581 365 568 q 432 668 408 628 q 474 750 456 708 q 510 843 493 792 q 568 933 529 899 q 656 968 607 968 q 728 942 700 968 q 763 877 756 917 q 751 794 771 838 q 679 651 721 722 q 592 510 638 579 q 499 371 546 440 q 488 333 488 353 q 490 219 488 271 q 501 104 493 167 q 488 35 507 65 q 436 -11 469 6 q 364 -28 403 -28 m 219 958 q 128 995 165 958 q 90 1088 90 1032 q 127 1178 90 1142 q 221 1215 164 1215 q 310 1178 274 1215 q 347 1088 347 1142 q 310 995 347 1032 q 219 958 274 958 m 508 972 q 417 1009 454 972 q 379 1101 379 1046 q 416 1192 379 1156 q 510 1229 453 1229 q 599 1192 563 1229 q 636 1101 636 1156 q 599 1009 636 1046 q 508 972 563 972 z "},"Ỳ":{"ha":738,"x_min":-33,"x_max":771,"o":"m 364 -28 q 290 -11 324 -28 q 238 35 257 6 q 224 104 218 65 q 235 219 232 167 q 238 333 238 271 q 226 371 238 353 q 137 510 181 440 q 54 653 93 581 q -15 797 15 725 q -26 876 -33 840 q 10 933 -18 911 q 82 954 38 954 q 172 930 131 954 q 228 861 213 906 q 282 718 254 783 q 357 581 310 653 q 374 581 365 568 q 432 668 408 628 q 474 750 456 708 q 510 843 493 792 q 568 933 529 899 q 656 968 607 968 q 728 942 700 968 q 763 877 756 917 q 751 794 771 838 q 679 651 721 722 q 592 510 638 579 q 499 371 546 440 q 488 333 488 353 q 490 219 488 271 q 501 104 493 167 q 488 35 507 65 q 436 -11 469 6 q 364 -28 403 -28 m 500 1122 q 551 1055 535 1099 q 547 974 568 1011 l 546 971 q 480 926 524 931 q 393 947 436 922 q 317 990 354 971 q 242 1022 279 1010 q 194 1060 210 1033 q 180 1119 179 1088 q 196 1179 181 1151 l 203 1190 q 272 1249 229 1235 q 349 1231 315 1264 q 428 1169 396 1189 q 500 1122 460 1149 z "},"Ỹ":{"ha":738,"x_min":-33,"x_max":771,"o":"m 364 -28 q 290 -11 324 -28 q 238 35 257 6 q 224 104 218 65 q 235 219 232 167 q 238 333 238 271 q 226 371 238 353 q 137 510 181 440 q 54 653 93 581 q -15 797 15 725 q -26 876 -33 840 q 10 933 -18 911 q 82 954 38 954 q 172 930 131 954 q 228 861 213 906 q 282 718 254 783 q 357 581 310 653 q 374 581 365 568 q 432 668 408 628 q 474 750 456 708 q 510 843 493 792 q 568 933 529 899 q 656 968 607 968 q 728 942 700 968 q 763 877 756 917 q 751 794 771 838 q 679 651 721 722 q 592 510 638 579 q 499 371 546 440 q 488 333 488 353 q 490 219 488 271 q 501 104 493 167 q 488 35 507 65 q 436 -11 469 6 q 364 -28 403 -28 m 100 1007 q 76 1068 76 1035 q 101 1128 76 1101 q 143 1165 118 1144 q 201 1200 168 1185 q 269 1215 233 1215 q 342 1200 315 1215 q 384 1166 368 1185 q 416 1134 400 1147 q 456 1125 432 1121 q 476 1139 467 1128 q 497 1158 486 1150 q 562 1179 525 1179 q 626 1154 599 1179 l 633 1149 q 662 1102 654 1132 q 664 1042 669 1072 q 639 992 658 1011 q 556 941 608 963 q 456 919 503 919 q 379 933 408 919 q 332 965 350 947 q 301 996 314 982 q 275 1010 289 1010 q 249 1003 260 1010 q 225 988 239 997 q 163 969 196 965 q 106 1000 129 972 l 100 1007 z "},"Z":{"ha":790,"x_min":3,"x_max":781,"o":"m 38 814 q 51 883 38 849 q 90 939 64 917 q 147 957 115 961 q 411 944 279 946 q 674 942 543 943 q 733 922 708 942 q 768 874 757 903 q 776 813 779 844 q 751 757 772 781 l 344 253 q 341 242 339 247 q 351 236 343 236 q 494 240 424 238 q 639 250 564 243 q 705 238 672 253 q 759 190 738 222 q 781 110 781 158 q 763 43 781 76 q 716 -12 744 10 q 653 -31 688 -33 q 390 -17 518 -19 q 126 -14 263 -14 q 65 4 94 -14 q 19 52 36 22 q 3 119 3 82 q 21 187 3 153 q 60 247 39 221 l 414 686 q 417 699 419 693 q 406 704 415 704 q 288 700 347 703 q 168 690 229 697 q 105 703 135 686 q 56 751 75 721 q 38 814 38 781 z "},"Ź":{"ha":790,"x_min":3,"x_max":781,"o":"m 38 814 q 51 883 38 849 q 90 939 64 917 q 147 957 115 961 q 411 944 279 946 q 674 942 543 943 q 733 922 708 942 q 768 874 757 903 q 776 813 779 844 q 751 757 772 781 l 344 253 q 341 242 339 247 q 351 236 343 236 q 494 240 424 238 q 639 250 564 243 q 705 238 672 253 q 759 190 738 222 q 781 110 781 158 q 763 43 781 76 q 716 -12 744 10 q 653 -31 688 -33 q 390 -17 518 -19 q 126 -14 263 -14 q 65 4 94 -14 q 19 52 36 22 q 3 119 3 82 q 21 187 3 153 q 60 247 39 221 l 414 686 q 417 699 419 693 q 406 704 415 704 q 288 700 347 703 q 168 690 229 697 q 105 703 135 686 q 56 751 75 721 q 38 814 38 781 m 356 954 q 279 938 319 928 q 217 988 239 949 l 215 990 q 203 1061 196 1025 q 246 1121 211 1097 q 325 1173 286 1147 q 401 1232 364 1199 q 453 1258 424 1254 q 510 1249 482 1261 q 557 1208 538 1236 l 563 1200 q 578 1135 581 1174 q 556 1064 575 1096 q 503 1024 536 1032 q 420 993 456 1011 q 356 954 385 975 z "},"Ž":{"ha":790,"x_min":3,"x_max":781,"o":"m 38 814 q 51 883 38 849 q 90 939 64 917 q 147 957 115 961 q 411 944 279 946 q 674 942 543 943 q 733 922 708 942 q 768 874 757 903 q 776 813 779 844 q 751 757 772 781 l 344 253 q 341 242 339 247 q 351 236 343 236 q 494 240 424 238 q 639 250 564 243 q 705 238 672 253 q 759 190 738 222 q 781 110 781 158 q 763 43 781 76 q 716 -12 744 10 q 653 -31 688 -33 q 390 -17 518 -19 q 126 -14 263 -14 q 65 4 94 -14 q 19 52 36 22 q 3 119 3 82 q 21 187 3 153 q 60 247 39 221 l 414 686 q 417 699 419 693 q 406 704 415 704 q 288 700 347 703 q 168 690 229 697 q 105 703 135 686 q 56 751 75 721 q 38 814 38 781 m 663 1189 q 675 1145 676 1169 q 660 1099 674 1121 q 625 1063 647 1076 q 531 1004 569 1029 q 449 947 492 979 q 329 947 389 901 q 239 1019 282 983 q 156 1075 196 1054 q 113 1126 122 1093 q 118 1189 103 1160 l 121 1193 q 183 1250 144 1242 q 257 1236 222 1258 q 317 1195 290 1215 q 378 1153 343 1175 q 386 1150 382 1151 q 396 1153 390 1149 q 447 1200 425 1174 q 508 1250 469 1226 q 584 1255 542 1271 q 660 1193 626 1239 l 663 1189 z "},"Ż":{"ha":790,"x_min":3,"x_max":781,"o":"m 38 814 q 51 883 38 849 q 90 939 64 917 q 147 957 115 961 q 411 944 279 946 q 674 942 543 943 q 733 922 708 942 q 768 874 757 903 q 776 813 779 844 q 751 757 772 781 l 344 253 q 341 242 339 247 q 351 236 343 236 q 494 240 424 238 q 639 250 564 243 q 705 238 672 253 q 759 190 738 222 q 781 110 781 158 q 763 43 781 76 q 716 -12 744 10 q 653 -31 688 -33 q 390 -17 518 -19 q 126 -14 263 -14 q 65 4 94 -14 q 19 52 36 22 q 3 119 3 82 q 21 187 3 153 q 60 247 39 221 l 414 686 q 417 699 419 693 q 406 704 415 704 q 288 700 347 703 q 168 690 229 697 q 105 703 135 686 q 56 751 75 721 q 38 814 38 781 m 261 1090 q 299 1181 261 1144 q 389 1218 336 1218 q 480 1181 443 1218 q 517 1090 517 1144 q 480 1000 517 1038 q 389 963 443 963 q 299 1000 336 963 q 261 1090 261 1038 z "},"Ꞌ":{"ha":239,"x_min":28,"x_max":268,"o":"m 31 901 q 44 969 28 940 q 89 1015 61 999 q 146 1031 117 1031 l 149 1031 q 206 1015 179 1031 q 251 969 233 999 q 264 901 268 940 l 253 754 q 217 675 249 703 q 149 647 186 647 l 146 647 q 73 675 100 647 q 42 754 46 703 l 31 901 z "},"a":{"ha":726,"x_min":25,"x_max":697,"o":"m 289 -31 q 86 56 147 -31 q 25 313 25 142 l 25 347 q 41 473 25 407 q 95 596 57 539 q 199 689 133 653 q 365 725 265 725 q 492 714 438 725 q 589 688 546 703 q 665 636 633 671 q 692 553 696 601 q 684 422 686 485 q 682 301 682 358 q 684 190 682 243 q 692 92 686 138 q 660 13 697 43 q 575 -17 624 -17 q 547 -7 560 -17 q 526 18 535 3 q 513 48 517 36 q 497 60 510 60 q 476 46 488 60 q 442 15 464 32 q 383 -17 419 -3 q 289 -31 347 -31 m 324 199 q 370 209 346 199 q 411 238 394 219 q 428 278 428 256 q 428 338 428 313 q 431 388 429 363 q 435 447 433 413 q 413 507 439 506 q 391 509 404 508 q 365 510 378 510 q 319 492 336 510 q 292 449 301 475 q 278 395 282 422 q 275 347 275 368 l 275 313 q 281 229 275 260 q 324 199 288 199 z "},"á":{"ha":726,"x_min":25,"x_max":697,"o":"m 289 -31 q 86 56 147 -31 q 25 313 25 142 l 25 347 q 41 473 25 407 q 95 596 57 539 q 199 689 133 653 q 365 725 265 725 q 492 714 438 725 q 589 688 546 703 q 665 636 633 671 q 692 553 696 601 q 684 422 686 485 q 682 301 682 358 q 684 190 682 243 q 692 92 686 138 q 660 13 697 43 q 575 -17 624 -17 q 547 -7 560 -17 q 526 18 535 3 q 513 48 517 36 q 497 60 510 60 q 476 46 488 60 q 442 15 464 32 q 383 -17 419 -3 q 289 -31 347 -31 m 324 199 q 370 209 346 199 q 411 238 394 219 q 428 278 428 256 q 428 338 428 313 q 431 388 429 363 q 435 447 433 413 q 413 507 439 506 q 391 509 404 508 q 365 510 378 510 q 319 492 336 510 q 292 449 301 475 q 278 395 282 422 q 275 347 275 368 l 275 313 q 281 229 275 260 q 324 199 288 199 m 331 781 q 254 765 294 754 q 192 814 214 775 l 190 817 q 178 888 171 851 q 221 947 186 924 q 300 999 261 974 q 376 1058 339 1025 q 428 1084 399 1081 q 485 1075 457 1088 q 532 1035 513 1063 l 538 1026 q 553 961 556 1000 q 531 890 550 922 q 478 850 511 858 q 395 819 431 838 q 331 781 360 801 z "},"ă":{"ha":726,"x_min":25,"x_max":697,"o":"m 289 -31 q 86 56 147 -31 q 25 313 25 142 l 25 347 q 41 473 25 407 q 95 596 57 539 q 199 689 133 653 q 365 725 265 725 q 492 714 438 725 q 589 688 546 703 q 665 636 633 671 q 692 553 696 601 q 684 422 686 485 q 682 301 682 358 q 684 190 682 243 q 692 92 686 138 q 660 13 697 43 q 575 -17 624 -17 q 547 -7 560 -17 q 526 18 535 3 q 513 48 517 36 q 497 60 510 60 q 476 46 488 60 q 442 15 464 32 q 383 -17 419 -3 q 289 -31 347 -31 m 324 199 q 370 209 346 199 q 411 238 394 219 q 428 278 428 256 q 428 338 428 313 q 431 388 429 363 q 435 447 433 413 q 413 507 439 506 q 391 509 404 508 q 365 510 378 510 q 319 492 336 510 q 292 449 301 475 q 278 395 282 422 q 275 347 275 368 l 275 313 q 281 229 275 260 q 324 199 288 199 m 181 1069 q 242 1050 215 1069 q 281 989 269 1031 q 310 949 289 964 q 357 935 331 935 q 394 939 376 935 q 422 952 411 943 q 432 976 432 961 q 463 1051 432 1018 q 535 1083 493 1083 l 536 1083 q 594 1066 568 1083 q 635 1022 619 1049 q 649 963 651 994 q 601 843 643 897 q 496 758 560 789 q 357 726 432 726 q 231 758 289 726 q 134 841 174 789 q 81 956 94 893 q 102 1038 72 1006 q 179 1069 132 1069 l 181 1069 z "},"ǎ":{"ha":726,"x_min":25,"x_max":697,"o":"m 289 -31 q 86 56 147 -31 q 25 313 25 142 l 25 347 q 41 473 25 407 q 95 596 57 539 q 199 689 133 653 q 365 725 265 725 q 492 714 438 725 q 589 688 546 703 q 665 636 633 671 q 692 553 696 601 q 684 422 686 485 q 682 301 682 358 q 684 190 682 243 q 692 92 686 138 q 660 13 697 43 q 575 -17 624 -17 q 547 -7 560 -17 q 526 18 535 3 q 513 48 517 36 q 497 60 510 60 q 476 46 488 60 q 442 15 464 32 q 383 -17 419 -3 q 289 -31 347 -31 m 324 199 q 370 209 346 199 q 411 238 394 219 q 428 278 428 256 q 428 338 428 313 q 431 388 429 363 q 435 447 433 413 q 413 507 439 506 q 391 509 404 508 q 365 510 378 510 q 319 492 336 510 q 292 449 301 475 q 278 395 282 422 q 275 347 275 368 l 275 313 q 281 229 275 260 q 324 199 288 199 m 638 1015 q 650 972 651 996 q 635 925 649 947 q 600 889 622 903 q 506 831 544 856 q 424 774 467 806 q 304 774 364 728 q 214 845 257 810 q 131 901 171 881 q 88 953 97 919 q 93 1015 78 986 l 96 1019 q 158 1076 119 1068 q 232 1063 197 1085 q 292 1022 265 1042 q 353 979 318 1001 q 361 976 357 978 q 371 979 365 975 q 422 1026 400 1000 q 483 1076 444 1053 q 559 1081 517 1097 q 635 1019 601 1065 l 638 1015 z "},"â":{"ha":726,"x_min":25,"x_max":697,"o":"m 289 -31 q 86 56 147 -31 q 25 313 25 142 l 25 347 q 41 473 25 407 q 95 596 57 539 q 199 689 133 653 q 365 725 265 725 q 492 714 438 725 q 589 688 546 703 q 665 636 633 671 q 692 553 696 601 q 684 422 686 485 q 682 301 682 358 q 684 190 682 243 q 692 92 686 138 q 660 13 697 43 q 575 -17 624 -17 q 547 -7 560 -17 q 526 18 535 3 q 513 48 517 36 q 497 60 510 60 q 476 46 488 60 q 442 15 464 32 q 383 -17 419 -3 q 289 -31 347 -31 m 324 199 q 370 209 346 199 q 411 238 394 219 q 428 278 428 256 q 428 338 428 313 q 431 388 429 363 q 435 447 433 413 q 413 507 439 506 q 391 509 404 508 q 365 510 378 510 q 319 492 336 510 q 292 449 301 475 q 278 395 282 422 q 275 347 275 368 l 275 313 q 281 229 275 260 q 324 199 288 199 m 611 925 q 650 869 647 906 q 635 796 653 832 l 633 793 q 590 747 618 761 q 534 735 563 733 q 483 750 506 736 q 426 792 449 771 q 376 832 404 813 q 351 832 364 840 q 302 792 324 813 q 244 750 281 771 q 175 736 215 731 q 108 768 135 742 l 106 771 q 74 847 72 806 q 117 911 75 889 q 181 948 146 926 q 247 992 215 969 q 300 1035 279 1014 q 362 1061 328 1061 q 424 1039 396 1061 q 517 978 467 1008 q 611 925 567 949 z "},"ä":{"ha":726,"x_min":25,"x_max":697,"o":"m 289 -31 q 86 56 147 -31 q 25 313 25 142 l 25 347 q 41 473 25 407 q 95 596 57 539 q 199 689 133 653 q 365 725 265 725 q 492 714 438 725 q 589 688 546 703 q 665 636 633 671 q 692 553 696 601 q 684 422 686 485 q 682 301 682 358 q 684 190 682 243 q 692 92 686 138 q 660 13 697 43 q 575 -17 624 -17 q 547 -7 560 -17 q 526 18 535 3 q 513 48 517 36 q 497 60 510 60 q 476 46 488 60 q 442 15 464 32 q 383 -17 419 -3 q 289 -31 347 -31 m 324 199 q 370 209 346 199 q 411 238 394 219 q 428 278 428 256 q 428 338 428 313 q 431 388 429 363 q 435 447 433 413 q 413 507 439 506 q 391 509 404 508 q 365 510 378 510 q 319 492 336 510 q 292 449 301 475 q 278 395 282 422 q 275 347 275 368 l 275 313 q 281 229 275 260 q 324 199 288 199 m 219 785 q 128 822 165 785 q 90 914 90 858 q 127 1005 90 968 q 221 1042 164 1042 q 310 1005 274 1042 q 347 914 347 968 q 310 822 347 858 q 219 785 274 785 m 508 799 q 417 835 454 799 q 379 928 379 872 q 416 1019 379 982 q 510 1056 453 1056 q 599 1019 563 1056 q 636 928 636 982 q 599 835 636 872 q 508 799 563 799 z "},"à":{"ha":726,"x_min":25,"x_max":697,"o":"m 289 -31 q 86 56 147 -31 q 25 313 25 142 l 25 347 q 41 473 25 407 q 95 596 57 539 q 199 689 133 653 q 365 725 265 725 q 492 714 438 725 q 589 688 546 703 q 665 636 633 671 q 692 553 696 601 q 684 422 686 485 q 682 301 682 358 q 684 190 682 243 q 692 92 686 138 q 660 13 697 43 q 575 -17 624 -17 q 547 -7 560 -17 q 526 18 535 3 q 513 48 517 36 q 497 60 510 60 q 476 46 488 60 q 442 15 464 32 q 383 -17 419 -3 q 289 -31 347 -31 m 324 199 q 370 209 346 199 q 411 238 394 219 q 428 278 428 256 q 428 338 428 313 q 431 388 429 363 q 435 447 433 413 q 413 507 439 506 q 391 509 404 508 q 365 510 378 510 q 319 492 336 510 q 292 449 301 475 q 278 395 282 422 q 275 347 275 368 l 275 313 q 281 229 275 260 q 324 199 288 199 m 500 949 q 551 881 535 925 q 547 800 568 838 l 546 797 q 480 753 524 757 q 393 774 436 749 q 317 817 354 797 q 242 849 279 836 q 194 887 210 860 q 180 946 179 914 q 196 1006 181 978 l 203 1017 q 272 1076 229 1061 q 349 1057 315 1090 q 428 995 396 1015 q 500 949 460 975 z "},"ā":{"ha":726,"x_min":25,"x_max":711,"o":"m 289 -31 q 86 56 147 -31 q 25 313 25 142 l 25 347 q 41 473 25 407 q 95 596 57 539 q 199 689 133 653 q 365 725 265 725 q 492 714 438 725 q 589 688 546 703 q 665 636 633 671 q 692 553 696 601 q 684 422 686 485 q 682 301 682 358 q 684 190 682 243 q 692 92 686 138 q 660 13 697 43 q 575 -17 624 -17 q 547 -7 560 -17 q 526 18 535 3 q 513 48 517 36 q 497 60 510 60 q 476 46 488 60 q 442 15 464 32 q 383 -17 419 -3 q 289 -31 347 -31 m 324 199 q 370 209 346 199 q 411 238 394 219 q 428 278 428 256 q 428 338 428 313 q 431 388 429 363 q 435 447 433 413 q 413 507 439 506 q 391 509 404 508 q 365 510 378 510 q 319 492 336 510 q 292 449 301 475 q 278 395 282 422 q 275 347 275 368 l 275 313 q 281 229 275 260 q 324 199 288 199 m 711 926 q 694 870 711 897 q 650 826 676 843 q 593 813 624 810 q 136 813 364 833 q 60 844 90 808 q 31 926 31 879 l 31 928 q 58 1000 31 972 q 131 1028 86 1028 q 363 1030 247 1028 q 593 1042 478 1032 q 650 1028 624 1044 q 694 985 676 1011 q 711 928 711 958 l 711 926 z "},"ą":{"ha":726,"x_min":25,"x_max":740,"o":"m 289 -31 q 86 56 147 -31 q 25 313 25 142 l 25 347 q 41 473 25 407 q 95 596 57 539 q 199 689 133 653 q 365 725 265 725 q 492 714 438 725 q 589 688 546 703 q 665 636 633 671 q 692 553 696 601 q 684 422 686 485 q 682 301 682 358 q 684 190 682 243 q 692 92 686 138 q 660 13 697 43 q 575 -17 624 -17 q 547 -7 560 -17 q 526 18 535 3 q 513 48 517 36 q 497 60 510 60 q 476 46 488 60 q 442 15 464 32 q 383 -17 419 -3 q 289 -31 347 -31 m 324 199 q 370 209 346 199 q 411 238 394 219 q 428 278 428 256 q 428 338 428 313 q 431 388 429 363 q 435 447 433 413 q 413 507 439 506 q 391 509 404 508 q 365 510 378 510 q 319 492 336 510 q 292 449 301 475 q 278 395 282 422 q 275 347 275 368 l 275 313 q 281 229 275 260 q 324 199 288 199 m 614 -264 q 524 -237 567 -264 q 461 -167 482 -211 q 451 -65 440 -122 q 479 -7 458 -29 q 524 27 500 15 q 564 42 549 39 l 621 54 l 647 15 q 636 9 647 15 q 613 -9 625 3 q 601 -39 601 -21 q 609 -56 601 -50 q 629 -65 617 -62 q 654 -67 642 -67 q 715 -87 689 -67 q 742 -147 742 -107 q 701 -235 742 -206 q 614 -264 661 -264 z "},"å":{"ha":726,"x_min":25,"x_max":697,"o":"m 289 -31 q 86 56 147 -31 q 25 313 25 142 l 25 347 q 41 473 25 407 q 95 596 57 539 q 199 689 133 653 q 365 725 265 725 q 492 714 438 725 q 589 688 546 703 q 665 636 633 671 q 692 553 696 601 q 684 422 686 485 q 682 301 682 358 q 684 190 682 243 q 692 92 686 138 q 660 13 697 43 q 575 -17 624 -17 q 547 -7 560 -17 q 526 18 535 3 q 513 48 517 36 q 497 60 510 60 q 476 46 488 60 q 442 15 464 32 q 383 -17 419 -3 q 289 -31 347 -31 m 324 199 q 370 209 346 199 q 411 238 394 219 q 428 278 428 256 q 428 338 428 313 q 431 388 429 363 q 435 447 433 413 q 413 507 439 506 q 391 509 404 508 q 365 510 378 510 q 319 492 336 510 q 292 449 301 475 q 278 395 282 422 q 275 347 275 368 l 275 313 q 281 229 275 260 q 324 199 288 199 m 163 885 q 190 985 163 940 q 263 1058 217 1031 q 364 1085 308 1085 q 465 1058 419 1085 q 538 985 510 1031 q 565 885 565 940 q 543 783 565 832 q 477 703 521 735 q 364 672 433 672 q 263 703 308 672 q 190 781 217 733 q 163 885 163 829 m 315 882 q 331 849 315 864 q 364 833 346 833 q 398 849 383 833 q 413 882 413 864 q 398 916 413 901 q 364 931 383 931 q 331 916 346 931 q 315 882 315 901 z "},"ã":{"ha":726,"x_min":25,"x_max":697,"o":"m 289 -31 q 86 56 147 -31 q 25 313 25 142 l 25 347 q 41 473 25 407 q 95 596 57 539 q 199 689 133 653 q 365 725 265 725 q 492 714 438 725 q 589 688 546 703 q 665 636 633 671 q 692 553 696 601 q 684 422 686 485 q 682 301 682 358 q 684 190 682 243 q 692 92 686 138 q 660 13 697 43 q 575 -17 624 -17 q 547 -7 560 -17 q 526 18 535 3 q 513 48 517 36 q 497 60 510 60 q 476 46 488 60 q 442 15 464 32 q 383 -17 419 -3 q 289 -31 347 -31 m 324 199 q 370 209 346 199 q 411 238 394 219 q 428 278 428 256 q 428 338 428 313 q 431 388 429 363 q 435 447 433 413 q 413 507 439 506 q 391 509 404 508 q 365 510 378 510 q 319 492 336 510 q 292 449 301 475 q 278 395 282 422 q 275 347 275 368 l 275 313 q 281 229 275 260 q 324 199 288 199 m 100 833 q 76 894 76 861 q 101 954 76 928 q 143 991 118 971 q 201 1026 168 1011 q 269 1042 233 1042 q 342 1026 315 1042 q 384 992 368 1011 q 416 960 400 974 q 456 951 432 947 q 476 965 467 954 q 497 985 486 976 q 562 1006 525 1006 q 626 981 599 1006 l 633 975 q 662 928 654 958 q 664 868 669 899 q 639 818 658 838 q 556 767 608 789 q 456 746 503 746 q 379 760 408 746 q 332 791 350 774 q 301 822 314 808 q 275 836 289 836 q 249 830 260 836 q 225 814 239 824 q 163 795 196 792 q 106 826 129 799 l 100 833 z "},"æ":{"ha":1069,"x_min":25,"x_max":1044,"o":"m 739 -31 q 573 6 639 -31 q 469 97 507 42 q 415 209 431 151 q 399 313 399 267 l 399 347 q 415 473 399 407 q 469 596 431 539 q 573 689 507 653 q 739 725 639 725 q 892 701 832 725 q 985 640 951 676 q 1031 562 1018 603 q 1044 489 1044 521 q 1024 399 1044 435 q 969 344 1003 364 q 891 314 935 324 q 801 299 847 304 q 711 290 754 294 q 668 276 679 288 q 657 247 657 265 q 678 202 658 219 q 739 185 699 185 q 801 203 771 185 q 856 231 831 222 q 919 230 888 242 q 973 193 950 218 q 1003 138 996 168 q 999 56 1017 86 q 956 15 981 26 q 871 -13 929 4 q 739 -31 813 -31 m 700 457 q 775 472 758 460 q 792 506 792 485 q 777 543 792 531 q 739 556 763 556 q 699 547 717 556 q 669 522 681 539 q 658 482 658 506 q 672 462 658 468 q 700 457 686 456 m 254 -31 q 134 -9 179 -31 q 65 49 89 13 q 33 128 40 85 q 25 215 25 172 q 57 342 25 292 q 143 424 89 393 q 264 468 197 454 q 399 485 331 482 q 393 526 397 513 q 378 544 389 540 q 344 549 368 549 q 298 538 319 549 q 250 518 276 528 q 163 528 201 501 q 113 608 124 554 q 113 608 113 608 q 113 607 113 608 q 120 661 103 647 q 178 692 138 675 q 258 714 208 703 q 365 725 307 725 q 517 697 464 725 q 590 619 569 668 q 613 508 610 569 q 615 382 615 447 l 615 346 q 582 173 615 244 q 494 56 549 101 q 376 -10 440 11 q 254 -31 313 -31 m 296 174 q 343 186 319 174 q 383 222 367 199 q 400 278 400 244 l 400 289 q 350 282 375 286 q 305 269 325 278 q 273 248 285 261 q 261 215 261 235 q 268 183 261 193 q 296 174 275 174 z "},"b":{"ha":726,"x_min":32,"x_max":701,"o":"m 361 -31 q 250 -26 294 -31 q 167 -19 206 -22 q 69 22 106 -15 q 35 108 32 58 q 44 371 42 249 q 48 617 47 493 q 49 879 49 740 q 83 969 49 935 q 175 1003 117 1003 q 246 986 214 1003 q 297 941 278 969 q 313 874 317 913 q 303 783 307 822 q 299 710 299 744 q 306 690 299 693 q 321 690 313 688 q 352 703 333 694 q 395 718 371 711 q 449 725 419 725 q 642 639 583 725 q 701 382 701 553 l 701 347 q 692 262 701 311 q 659 163 682 213 q 597 68 636 113 q 499 -3 557 24 q 361 -31 442 -31 m 361 206 q 408 219 390 206 q 435 253 426 232 q 448 300 444 275 q 451 347 451 325 l 451 382 q 441 479 451 449 q 403 510 431 510 q 352 492 376 510 q 313 445 328 475 q 299 378 299 415 l 299 254 q 303 228 299 236 q 314 214 307 221 q 336 207 324 208 q 361 206 349 206 z "},"c":{"ha":619,"x_min":25,"x_max":621,"o":"m 365 -31 q 199 0 265 -31 q 95 81 133 31 q 41 192 57 132 q 25 313 25 253 l 25 347 q 41 473 25 407 q 95 596 57 539 q 199 689 133 653 q 365 725 265 725 q 459 717 415 725 q 536 692 503 708 q 583 648 569 676 q 589 589 596 619 q 554 532 582 558 l 538 517 q 481 490 513 493 q 411 501 450 486 q 365 510 393 510 q 319 497 338 510 q 292 463 301 485 q 278 410 282 440 q 275 347 275 381 l 275 313 q 278 271 275 293 q 292 229 282 249 q 319 197 301 210 q 365 185 336 185 q 411 203 385 185 q 458 229 438 221 q 521 230 492 240 q 574 194 550 219 q 607 139 597 169 q 601 57 621 90 q 554 10 582 24 q 474 -17 525 -3 q 365 -31 422 -31 z "},"ć":{"ha":619,"x_min":25,"x_max":621,"o":"m 365 -31 q 199 0 265 -31 q 95 81 133 31 q 41 192 57 132 q 25 313 25 253 l 25 347 q 41 473 25 407 q 95 596 57 539 q 199 689 133 653 q 365 725 265 725 q 459 717 415 725 q 536 692 503 708 q 583 648 569 676 q 589 589 596 619 q 554 532 582 558 l 538 517 q 481 490 513 493 q 411 501 450 486 q 365 510 393 510 q 319 497 338 510 q 292 463 301 485 q 278 410 282 440 q 275 347 275 381 l 275 313 q 278 271 275 293 q 292 229 282 249 q 319 197 301 210 q 365 185 336 185 q 411 203 385 185 q 458 229 438 221 q 521 230 492 240 q 574 194 550 219 q 607 139 597 169 q 601 57 621 90 q 554 10 582 24 q 474 -17 525 -3 q 365 -31 422 -31 m 332 781 q 256 765 296 754 q 193 814 215 775 l 192 817 q 180 888 172 851 q 222 947 188 924 q 301 999 263 974 q 378 1058 340 1025 q 429 1084 400 1081 q 486 1075 458 1088 q 533 1035 514 1063 l 539 1026 q 554 961 557 1000 q 532 890 551 922 q 479 850 513 858 q 397 819 432 838 q 332 781 361 801 z "},"č":{"ha":619,"x_min":25,"x_max":653,"o":"m 365 -31 q 199 0 265 -31 q 95 81 133 31 q 41 192 57 132 q 25 313 25 253 l 25 347 q 41 473 25 407 q 95 596 57 539 q 199 689 133 653 q 365 725 265 725 q 459 717 415 725 q 536 692 503 708 q 583 648 569 676 q 589 589 596 619 q 554 532 582 558 l 538 517 q 481 490 513 493 q 411 501 450 486 q 365 510 393 510 q 319 497 338 510 q 292 463 301 485 q 278 410 282 440 q 275 347 275 381 l 275 313 q 278 271 275 293 q 292 229 282 249 q 319 197 301 210 q 365 185 336 185 q 411 203 385 185 q 458 229 438 221 q 521 230 492 240 q 574 194 550 219 q 607 139 597 169 q 601 57 621 90 q 554 10 582 24 q 474 -17 525 -3 q 365 -31 422 -31 m 639 1015 q 651 972 653 996 q 637 925 650 947 q 601 889 624 903 q 507 831 546 856 q 425 774 468 806 q 306 774 365 728 q 215 845 258 810 q 132 901 172 881 q 89 953 99 919 q 94 1015 79 986 l 97 1019 q 160 1076 121 1068 q 233 1063 199 1085 q 293 1022 267 1042 q 354 979 319 1001 q 363 976 358 978 q 372 979 367 975 q 424 1026 401 1000 q 485 1076 446 1053 q 560 1081 518 1097 q 636 1019 603 1065 l 639 1015 z "},"ç":{"ha":619,"x_min":25,"x_max":621,"o":"m 365 -31 q 199 0 265 -31 q 95 81 133 31 q 41 192 57 132 q 25 313 25 253 l 25 347 q 41 473 25 407 q 95 596 57 539 q 199 689 133 653 q 365 725 265 725 q 459 717 415 725 q 536 692 503 708 q 583 648 569 676 q 589 589 596 619 q 554 532 582 558 l 538 517 q 481 490 513 493 q 411 501 450 486 q 365 510 393 510 q 319 497 338 510 q 292 463 301 485 q 278 410 282 440 q 275 347 275 381 l 275 313 q 278 271 275 293 q 292 229 282 249 q 319 197 301 210 q 365 185 336 185 q 411 203 385 185 q 458 229 438 221 q 521 230 492 240 q 574 194 550 219 q 607 139 597 169 q 601 57 621 90 q 554 10 582 24 q 474 -17 525 -3 q 365 -31 422 -31 m 354 -315 q 316 -312 335 -315 q 281 -304 297 -310 q 233 -268 244 -290 q 224 -215 222 -246 l 224 -214 q 285 -160 226 -158 q 316 -164 303 -160 q 346 -168 329 -168 q 381 -144 381 -168 q 369 -126 381 -131 q 329 -122 358 -122 q 286 -118 307 -122 q 253 -101 265 -114 q 246 -65 242 -89 l 264 35 l 449 35 l 432 -39 q 477 -51 458 -42 q 507 -80 496 -61 q 518 -125 518 -99 q 499 -216 518 -172 q 444 -287 481 -260 q 354 -315 407 -315 z "},"ċ":{"ha":619,"x_min":25,"x_max":621,"o":"m 365 -31 q 199 0 265 -31 q 95 81 133 31 q 41 192 57 132 q 25 313 25 253 l 25 347 q 41 473 25 407 q 95 596 57 539 q 199 689 133 653 q 365 725 265 725 q 459 717 415 725 q 536 692 503 708 q 583 648 569 676 q 589 589 596 619 q 554 532 582 558 l 538 517 q 481 490 513 493 q 411 501 450 486 q 365 510 393 510 q 319 497 338 510 q 292 463 301 485 q 278 410 282 440 q 275 347 275 381 l 275 313 q 278 271 275 293 q 292 229 282 249 q 319 197 301 210 q 365 185 336 185 q 411 203 385 185 q 458 229 438 221 q 521 230 492 240 q 574 194 550 219 q 607 139 597 169 q 601 57 621 90 q 554 10 582 24 q 474 -17 525 -3 q 365 -31 422 -31 m 238 917 q 275 1008 238 971 q 365 1044 313 1044 q 456 1008 419 1044 q 493 917 493 971 q 456 826 493 864 q 365 789 419 789 q 275 826 313 789 q 238 917 238 864 z "},"d":{"ha":740,"x_min":25,"x_max":717,"o":"m 289 -31 q 86 56 147 -31 q 25 313 25 142 l 25 347 q 41 473 25 407 q 95 596 57 539 q 199 689 133 653 q 365 725 265 725 q 383 724 375 725 q 396 724 390 724 q 428 751 428 719 l 428 879 q 462 969 428 935 q 551 1003 496 1003 q 623 987 590 1003 q 675 943 656 971 q 692 876 694 915 q 675 474 678 633 q 680 219 672 314 q 703 81 688 125 q 688 9 717 42 q 593 -24 660 -24 q 533 -12 549 -24 q 513 14 518 -1 q 494 33 507 31 q 469 29 481 36 q 446 13 461 24 q 408 -7 431 3 q 356 -24 386 -17 q 289 -31 326 -31 m 324 199 q 376 213 353 199 q 414 255 400 228 q 428 317 428 282 l 428 486 q 407 518 428 517 q 388 520 399 519 q 365 521 378 521 q 319 508 336 521 q 292 471 301 494 q 278 415 282 447 q 275 347 275 383 l 275 313 q 285 221 275 243 q 324 199 294 199 z "},"ď":{"ha":872,"x_min":25,"x_max":956,"o":"m 289 -31 q 86 56 147 -31 q 25 313 25 142 l 25 347 q 41 473 25 407 q 95 596 57 539 q 199 689 133 653 q 365 725 265 725 q 383 724 375 725 q 396 724 390 724 q 428 751 428 719 l 428 879 q 462 969 428 935 q 551 1003 496 1003 q 623 987 590 1003 q 675 943 656 971 q 692 876 694 915 q 675 474 678 633 q 680 219 672 314 q 703 81 688 125 q 688 9 717 42 q 593 -24 660 -24 q 533 -12 549 -24 q 513 14 518 -1 q 494 33 507 31 q 469 29 481 36 q 446 13 461 24 q 408 -7 431 3 q 356 -24 386 -17 q 289 -31 326 -31 m 324 199 q 376 213 353 199 q 414 255 400 228 q 428 317 428 282 l 428 486 q 407 518 428 517 q 388 520 399 519 q 365 521 378 521 q 319 508 336 521 q 292 471 301 494 q 278 415 282 447 q 275 347 275 383 l 275 313 q 285 221 275 243 q 324 199 294 199 m 718 901 q 732 969 715 940 q 776 1015 749 999 q 833 1031 804 1031 l 836 1031 q 894 1015 867 1031 q 938 969 921 999 q 951 901 956 940 l 940 754 q 905 675 936 703 q 836 647 874 647 l 833 647 q 760 675 788 647 q 729 754 733 703 l 718 901 z "},"đ":{"ha":804,"x_min":25,"x_max":804,"o":"m 804 856 q 777 794 804 822 q 717 769 750 767 q 254 769 485 790 q 199 794 219 765 q 179 856 179 824 l 179 857 q 199 910 179 890 q 251 929 219 929 q 485 931 368 929 q 717 943 601 933 q 777 918 750 946 q 804 857 804 890 l 804 856 m 289 -31 q 86 56 147 -31 q 25 313 25 142 l 25 347 q 41 473 25 407 q 95 596 57 539 q 199 689 133 653 q 365 725 265 725 q 383 724 375 725 q 396 724 390 724 q 428 751 428 719 l 428 879 q 462 969 428 935 q 551 1003 496 1003 q 623 987 590 1003 q 675 943 656 971 q 692 876 694 915 q 675 474 678 633 q 680 219 672 314 q 703 81 688 125 q 688 9 717 42 q 593 -24 660 -24 q 533 -12 549 -24 q 513 14 518 -1 q 494 33 507 31 q 469 29 481 36 q 446 13 461 24 q 408 -7 431 3 q 356 -24 386 -17 q 289 -31 326 -31 m 324 199 q 376 213 353 199 q 414 255 400 228 q 428 317 428 282 l 428 486 q 407 518 428 517 q 388 520 399 519 q 365 521 378 521 q 319 508 336 521 q 292 471 301 494 q 278 415 282 447 q 275 347 275 383 l 275 313 q 285 221 275 243 q 324 199 294 199 z "},"ð":{"ha":767,"x_min":15,"x_max":761,"o":"m 568 972 q 585 923 593 949 q 551 872 576 897 q 501 824 526 847 q 456 777 474 796 q 424 742 438 758 q 394 707 410 726 q 353 656 378 688 q 276 605 321 614 q 196 632 232 596 l 186 640 q 160 682 163 664 q 171 717 157 700 q 208 758 185 735 q 309 872 264 815 q 401 990 354 928 q 479 1024 433 1031 q 560 981 525 1017 l 568 972 m 761 349 q 717 149 761 238 q 587 12 672 61 q 382 -29 501 -37 q 191 19 274 -21 q 62 126 108 60 q 15 279 15 193 q 62 455 15 383 q 192 561 108 526 q 389 588 276 596 q 412 584 400 586 q 435 578 424 582 q 440 591 443 575 q 422 624 436 607 q 346 700 392 671 q 239 739 300 729 q 158 773 189 744 q 126 851 126 801 q 163 931 126 901 q 258 954 200 960 q 467 890 375 940 q 625 758 560 839 q 726 573 690 676 q 761 349 761 469 m 506 286 q 513 340 513 314 q 499 382 513 365 q 474 398 490 392 q 435 408 457 404 q 385 411 413 411 q 294 383 324 411 q 265 313 265 356 q 293 239 265 274 q 388 200 321 204 q 469 222 444 196 q 506 286 494 247 z "},"e":{"ha":696,"x_min":25,"x_max":671,"o":"m 365 -31 q 199 6 265 -31 q 95 97 133 42 q 41 209 57 151 q 25 313 25 267 l 25 347 q 41 473 25 407 q 95 596 57 539 q 199 689 133 653 q 365 725 265 725 q 518 701 458 725 q 611 640 578 676 q 658 562 644 603 q 671 489 671 521 q 650 399 671 435 q 595 344 629 364 q 517 314 561 324 q 427 299 474 304 q 338 290 381 294 q 294 276 304 288 q 283 247 283 265 q 292 215 283 229 q 320 192 301 200 q 365 185 339 185 q 426 203 396 185 q 482 231 457 222 q 545 230 514 242 q 599 193 576 218 q 629 138 622 168 q 624 56 642 86 q 582 15 607 26 q 497 -13 556 4 q 365 -31 439 -31 m 326 457 q 401 472 385 460 q 418 506 418 485 q 411 533 418 522 q 392 550 404 544 q 365 556 381 556 q 324 547 342 556 q 296 522 307 539 q 285 482 285 506 q 299 462 285 468 q 326 457 313 456 z "},"é":{"ha":696,"x_min":25,"x_max":671,"o":"m 365 -31 q 199 6 265 -31 q 95 97 133 42 q 41 209 57 151 q 25 313 25 267 l 25 347 q 41 473 25 407 q 95 596 57 539 q 199 689 133 653 q 365 725 265 725 q 518 701 458 725 q 611 640 578 676 q 658 562 644 603 q 671 489 671 521 q 650 399 671 435 q 595 344 629 364 q 517 314 561 324 q 427 299 474 304 q 338 290 381 294 q 294 276 304 288 q 283 247 283 265 q 292 215 283 229 q 320 192 301 200 q 365 185 339 185 q 426 203 396 185 q 482 231 457 222 q 545 230 514 242 q 599 193 576 218 q 629 138 622 168 q 624 56 642 86 q 582 15 607 26 q 497 -13 556 4 q 365 -31 439 -31 m 326 457 q 401 472 385 460 q 418 506 418 485 q 411 533 418 522 q 392 550 404 544 q 365 556 381 556 q 324 547 342 556 q 296 522 307 539 q 285 482 285 506 q 299 462 285 468 q 326 457 313 456 m 332 781 q 256 765 296 754 q 193 814 215 775 l 192 817 q 180 888 172 851 q 222 947 188 924 q 301 999 263 974 q 378 1058 340 1025 q 429 1084 400 1081 q 486 1075 458 1088 q 533 1035 514 1063 l 539 1026 q 554 961 557 1000 q 532 890 551 922 q 479 850 513 858 q 397 819 432 838 q 332 781 361 801 z "},"ě":{"ha":696,"x_min":25,"x_max":671,"o":"m 365 -31 q 199 6 265 -31 q 95 97 133 42 q 41 209 57 151 q 25 313 25 267 l 25 347 q 41 473 25 407 q 95 596 57 539 q 199 689 133 653 q 365 725 265 725 q 518 701 458 725 q 611 640 578 676 q 658 562 644 603 q 671 489 671 521 q 650 399 671 435 q 595 344 629 364 q 517 314 561 324 q 427 299 474 304 q 338 290 381 294 q 294 276 304 288 q 283 247 283 265 q 292 215 283 229 q 320 192 301 200 q 365 185 339 185 q 426 203 396 185 q 482 231 457 222 q 545 230 514 242 q 599 193 576 218 q 629 138 622 168 q 624 56 642 86 q 582 15 607 26 q 497 -13 556 4 q 365 -31 439 -31 m 326 457 q 401 472 385 460 q 418 506 418 485 q 411 533 418 522 q 392 550 404 544 q 365 556 381 556 q 324 547 342 556 q 296 522 307 539 q 285 482 285 506 q 299 462 285 468 q 326 457 313 456 m 639 1015 q 651 972 653 996 q 637 925 650 947 q 601 889 624 903 q 507 831 546 856 q 425 774 468 806 q 306 774 365 728 q 215 845 258 810 q 132 901 172 881 q 89 953 99 919 q 94 1015 79 986 l 97 1019 q 160 1076 121 1068 q 233 1063 199 1085 q 293 1022 267 1042 q 354 979 319 1001 q 363 976 358 978 q 372 979 367 975 q 424 1026 401 1000 q 485 1076 446 1053 q 560 1081 518 1097 q 636 1019 603 1065 l 639 1015 z "},"ê":{"ha":696,"x_min":25,"x_max":671,"o":"m 365 -31 q 199 6 265 -31 q 95 97 133 42 q 41 209 57 151 q 25 313 25 267 l 25 347 q 41 473 25 407 q 95 596 57 539 q 199 689 133 653 q 365 725 265 725 q 518 701 458 725 q 611 640 578 676 q 658 562 644 603 q 671 489 671 521 q 650 399 671 435 q 595 344 629 364 q 517 314 561 324 q 427 299 474 304 q 338 290 381 294 q 294 276 304 288 q 283 247 283 265 q 292 215 283 229 q 320 192 301 200 q 365 185 339 185 q 426 203 396 185 q 482 231 457 222 q 545 230 514 242 q 599 193 576 218 q 629 138 622 168 q 624 56 642 86 q 582 15 607 26 q 497 -13 556 4 q 365 -31 439 -31 m 326 457 q 401 472 385 460 q 418 506 418 485 q 411 533 418 522 q 392 550 404 544 q 365 556 381 556 q 324 547 342 556 q 296 522 307 539 q 285 482 285 506 q 299 462 285 468 q 326 457 313 456 m 613 925 q 651 869 649 906 q 636 796 654 832 l 635 793 q 592 747 619 761 q 535 735 564 733 q 485 750 507 736 q 428 792 450 771 q 378 832 406 813 q 353 832 365 840 q 303 792 325 813 q 246 750 282 771 q 176 736 217 731 q 110 768 136 742 l 107 771 q 75 847 74 806 q 118 911 76 889 q 182 948 147 926 q 249 992 217 969 q 301 1035 281 1014 q 363 1061 329 1061 q 425 1039 397 1061 q 518 978 468 1008 q 613 925 568 949 z "},"ë":{"ha":696,"x_min":25,"x_max":671,"o":"m 365 -31 q 199 6 265 -31 q 95 97 133 42 q 41 209 57 151 q 25 313 25 267 l 25 347 q 41 473 25 407 q 95 596 57 539 q 199 689 133 653 q 365 725 265 725 q 518 701 458 725 q 611 640 578 676 q 658 562 644 603 q 671 489 671 521 q 650 399 671 435 q 595 344 629 364 q 517 314 561 324 q 427 299 474 304 q 338 290 381 294 q 294 276 304 288 q 283 247 283 265 q 292 215 283 229 q 320 192 301 200 q 365 185 339 185 q 426 203 396 185 q 482 231 457 222 q 545 230 514 242 q 599 193 576 218 q 629 138 622 168 q 624 56 642 86 q 582 15 607 26 q 497 -13 556 4 q 365 -31 439 -31 m 326 457 q 401 472 385 460 q 418 506 418 485 q 411 533 418 522 q 392 550 404 544 q 365 556 381 556 q 324 547 342 556 q 296 522 307 539 q 285 482 285 506 q 299 462 285 468 q 326 457 313 456 m 221 785 q 129 822 167 785 q 92 914 92 858 q 128 1005 92 968 q 222 1042 165 1042 q 312 1005 275 1042 q 349 914 349 968 q 312 822 349 858 q 221 785 275 785 m 510 799 q 418 835 456 799 q 381 928 381 872 q 417 1019 381 982 q 511 1056 454 1056 q 601 1019 564 1056 q 638 928 638 982 q 601 835 638 872 q 510 799 564 799 z "},"ė":{"ha":696,"x_min":25,"x_max":671,"o":"m 365 -31 q 199 6 265 -31 q 95 97 133 42 q 41 209 57 151 q 25 313 25 267 l 25 347 q 41 473 25 407 q 95 596 57 539 q 199 689 133 653 q 365 725 265 725 q 518 701 458 725 q 611 640 578 676 q 658 562 644 603 q 671 489 671 521 q 650 399 671 435 q 595 344 629 364 q 517 314 561 324 q 427 299 474 304 q 338 290 381 294 q 294 276 304 288 q 283 247 283 265 q 292 215 283 229 q 320 192 301 200 q 365 185 339 185 q 426 203 396 185 q 482 231 457 222 q 545 230 514 242 q 599 193 576 218 q 629 138 622 168 q 624 56 642 86 q 582 15 607 26 q 497 -13 556 4 q 365 -31 439 -31 m 326 457 q 401 472 385 460 q 418 506 418 485 q 411 533 418 522 q 392 550 404 544 q 365 556 381 556 q 324 547 342 556 q 296 522 307 539 q 285 482 285 506 q 299 462 285 468 q 326 457 313 456 m 238 917 q 275 1008 238 971 q 365 1044 313 1044 q 456 1008 419 1044 q 493 917 493 971 q 456 826 493 864 q 365 789 419 789 q 275 826 313 789 q 238 917 238 864 z "},"è":{"ha":696,"x_min":25,"x_max":671,"o":"m 365 -31 q 199 6 265 -31 q 95 97 133 42 q 41 209 57 151 q 25 313 25 267 l 25 347 q 41 473 25 407 q 95 596 57 539 q 199 689 133 653 q 365 725 265 725 q 518 701 458 725 q 611 640 578 676 q 658 562 644 603 q 671 489 671 521 q 650 399 671 435 q 595 344 629 364 q 517 314 561 324 q 427 299 474 304 q 338 290 381 294 q 294 276 304 288 q 283 247 283 265 q 292 215 283 229 q 320 192 301 200 q 365 185 339 185 q 426 203 396 185 q 482 231 457 222 q 545 230 514 242 q 599 193 576 218 q 629 138 622 168 q 624 56 642 86 q 582 15 607 26 q 497 -13 556 4 q 365 -31 439 -31 m 326 457 q 401 472 385 460 q 418 506 418 485 q 411 533 418 522 q 392 550 404 544 q 365 556 381 556 q 324 547 342 556 q 296 522 307 539 q 285 482 285 506 q 299 462 285 468 q 326 457 313 456 m 501 949 q 553 881 536 925 q 549 800 569 838 l 547 797 q 481 753 525 757 q 394 774 438 749 q 318 817 356 797 q 243 849 281 836 q 196 887 211 860 q 181 946 181 914 q 197 1006 182 978 l 204 1017 q 274 1076 231 1061 q 350 1057 317 1090 q 429 995 397 1015 q 501 949 461 975 z "},"ē":{"ha":696,"x_min":25,"x_max":713,"o":"m 365 -31 q 199 6 265 -31 q 95 97 133 42 q 41 209 57 151 q 25 313 25 267 l 25 347 q 41 473 25 407 q 95 596 57 539 q 199 689 133 653 q 365 725 265 725 q 518 701 458 725 q 611 640 578 676 q 658 562 644 603 q 671 489 671 521 q 650 399 671 435 q 595 344 629 364 q 517 314 561 324 q 427 299 474 304 q 338 290 381 294 q 294 276 304 288 q 283 247 283 265 q 292 215 283 229 q 320 192 301 200 q 365 185 339 185 q 426 203 396 185 q 482 231 457 222 q 545 230 514 242 q 599 193 576 218 q 629 138 622 168 q 624 56 642 86 q 582 15 607 26 q 497 -13 556 4 q 365 -31 439 -31 m 326 457 q 401 472 385 460 q 418 506 418 485 q 411 533 418 522 q 392 550 404 544 q 365 556 381 556 q 324 547 342 556 q 296 522 307 539 q 285 482 285 506 q 299 462 285 468 q 326 457 313 456 m 713 926 q 695 870 713 897 q 651 826 678 843 q 594 813 625 810 q 138 813 365 833 q 62 844 92 808 q 32 926 32 879 l 32 928 q 60 1000 32 972 q 132 1028 88 1028 q 364 1030 249 1028 q 594 1042 479 1032 q 651 1028 625 1044 q 695 985 678 1011 q 713 928 713 958 l 713 926 z "},"ę":{"ha":696,"x_min":25,"x_max":675,"o":"m 365 -31 q 199 6 265 -31 q 95 97 133 42 q 41 209 57 151 q 25 313 25 267 l 25 347 q 41 473 25 407 q 95 596 57 539 q 199 689 133 653 q 365 725 265 725 q 518 701 458 725 q 611 640 578 676 q 658 562 644 603 q 671 489 671 521 q 650 399 671 435 q 595 344 629 364 q 517 314 561 324 q 427 299 474 304 q 338 290 381 294 q 294 276 304 288 q 283 247 283 265 q 292 215 283 229 q 320 192 301 200 q 365 185 339 185 q 426 203 396 185 q 482 231 457 222 q 545 230 514 242 q 599 193 576 218 q 629 138 622 168 q 624 56 642 86 q 582 15 607 26 q 497 -13 556 4 q 365 -31 439 -31 m 326 457 q 401 472 385 460 q 418 506 418 485 q 411 533 418 522 q 392 550 404 544 q 365 556 381 556 q 324 547 342 556 q 296 522 307 539 q 285 482 285 506 q 299 462 285 468 q 326 457 313 456 m 547 -262 q 458 -236 500 -262 q 394 -165 415 -210 q 385 -64 374 -121 q 413 -6 392 -28 q 458 28 433 17 q 497 43 482 40 l 554 56 l 581 17 q 569 10 581 17 q 547 -8 558 4 q 535 -37 535 -19 q 542 -55 535 -49 q 563 -63 550 -61 q 588 -65 575 -65 q 649 -85 622 -65 q 675 -146 675 -106 q 635 -233 675 -204 q 547 -262 594 -262 z "},"ẽ":{"ha":696,"x_min":25,"x_max":671,"o":"m 365 -31 q 199 6 265 -31 q 95 97 133 42 q 41 209 57 151 q 25 313 25 267 l 25 347 q 41 473 25 407 q 95 596 57 539 q 199 689 133 653 q 365 725 265 725 q 518 701 458 725 q 611 640 578 676 q 658 562 644 603 q 671 489 671 521 q 650 399 671 435 q 595 344 629 364 q 517 314 561 324 q 427 299 474 304 q 338 290 381 294 q 294 276 304 288 q 283 247 283 265 q 292 215 283 229 q 320 192 301 200 q 365 185 339 185 q 426 203 396 185 q 482 231 457 222 q 545 230 514 242 q 599 193 576 218 q 629 138 622 168 q 624 56 642 86 q 582 15 607 26 q 497 -13 556 4 q 365 -31 439 -31 m 326 457 q 401 472 385 460 q 418 506 418 485 q 411 533 418 522 q 392 550 404 544 q 365 556 381 556 q 324 547 342 556 q 296 522 307 539 q 285 482 285 506 q 299 462 285 468 q 326 457 313 456 m 101 833 q 78 894 78 861 q 103 954 78 928 q 144 991 119 971 q 202 1026 169 1011 q 271 1042 235 1042 q 343 1026 317 1042 q 385 992 369 1011 q 417 960 401 974 q 457 951 433 947 q 478 965 468 954 q 499 985 488 976 q 563 1006 526 1006 q 628 981 600 1006 l 635 975 q 663 928 656 958 q 665 868 671 899 q 640 818 660 838 q 557 767 610 789 q 457 746 504 746 q 381 760 410 746 q 333 791 351 774 q 303 822 315 808 q 276 836 290 836 q 251 830 261 836 q 226 814 240 824 q 164 795 197 792 q 107 826 131 799 l 101 833 z "},"ə":{"ha":696,"x_min":25,"x_max":671,"o":"m 331 725 q 537 682 463 725 q 641 569 611 639 q 671 417 671 499 l 671 278 q 641 126 671 197 q 537 13 611 56 q 331 -31 463 -31 q 178 -5 238 -31 q 85 64 118 21 q 38 163 51 107 q 25 278 25 218 l 25 340 q 53 390 25 372 q 132 408 82 408 l 396 408 q 414 414 407 408 q 421 433 421 419 q 415 473 421 456 q 390 500 408 490 q 331 510 371 510 q 269 491 300 510 q 214 464 239 472 q 151 465 183 453 q 97 501 119 476 q 67 557 74 526 q 72 639 54 610 q 114 679 90 668 q 199 708 140 690 q 331 725 258 725 m 421 269 q 396 278 421 278 l 300 278 q 282 276 289 278 q 275 264 275 275 l 275 261 q 278 222 275 242 q 294 190 282 203 q 331 178 307 178 q 390 190 371 178 q 415 222 408 203 q 421 261 421 242 l 421 269 z "},"f":{"ha":517,"x_min":6,"x_max":533,"o":"m 215 -31 q 144 -15 178 -31 q 92 30 111 1 q 75 97 72 58 q 83 203 81 161 q 88 281 86 246 q 89 360 89 317 q 89 467 89 403 q 87 488 89 476 q 75 503 85 500 q 47 519 64 506 q 18 554 31 532 q 6 606 6 576 q 30 678 6 653 q 75 711 54 704 q 87 726 85 715 q 89 747 89 736 q 92 800 89 768 q 107 867 96 832 q 144 933 118 901 q 213 983 169 964 q 325 1003 257 1003 q 439 988 388 1003 q 508 939 483 976 q 518 858 533 901 q 465 797 504 817 q 383 778 425 776 q 364 775 371 778 q 353 768 357 772 q 343 763 346 768 q 340 749 340 758 q 339 726 339 740 q 343 716 339 719 q 351 711 347 713 q 374 710 363 710 q 389 711 385 711 q 463 683 435 711 q 492 606 492 654 q 464 528 492 560 q 389 496 436 496 q 371 497 378 496 q 351 499 364 497 q 342 489 344 500 q 339 467 339 478 q 339 360 339 403 q 340 281 339 317 q 344 203 342 246 q 353 97 347 161 q 336 30 356 58 q 285 -15 317 1 q 215 -31 253 -31 z "},"g":{"ha":726,"x_min":25,"x_max":696,"o":"m 338 -308 q 228 -297 279 -308 q 149 -275 178 -285 q 93 -224 108 -258 q 86 -150 78 -190 q 136 -70 97 -96 q 221 -61 175 -44 q 276 -82 249 -71 q 338 -93 303 -93 q 383 -85 367 -93 q 408 -60 399 -76 q 421 -24 417 -44 q 420 -8 425 -11 q 408 -6 415 -4 q 381 -15 397 -8 q 342 -26 364 -21 q 289 -31 321 -31 q 136 16 194 -31 q 51 140 78 63 q 25 313 25 218 l 25 347 q 41 473 25 407 q 95 596 57 539 q 199 689 133 653 q 365 725 265 725 q 492 714 438 725 q 589 688 546 703 q 665 636 633 671 q 692 553 696 601 q 683 417 686 479 q 679 296 681 354 q 678 176 678 238 q 678 39 678 114 q 661 -83 678 -22 q 606 -196 644 -144 q 501 -278 567 -247 q 338 -308 436 -308 m 324 199 q 377 213 353 199 q 417 255 401 228 q 433 317 433 282 q 436 397 433 361 q 439 464 439 432 q 435 483 439 478 q 424 497 432 489 q 401 506 415 503 q 365 510 386 510 q 319 498 336 510 q 292 465 301 486 q 278 413 282 443 q 275 347 275 383 l 275 313 q 285 221 275 243 q 324 199 294 199 z "},"ğ":{"ha":726,"x_min":25,"x_max":696,"o":"m 338 -308 q 228 -297 279 -308 q 149 -275 178 -285 q 93 -224 108 -258 q 86 -150 78 -190 q 136 -70 97 -96 q 221 -61 175 -44 q 276 -82 249 -71 q 338 -93 303 -93 q 383 -85 367 -93 q 408 -60 399 -76 q 421 -24 417 -44 q 420 -8 425 -11 q 408 -6 415 -4 q 381 -15 397 -8 q 342 -26 364 -21 q 289 -31 321 -31 q 136 16 194 -31 q 51 140 78 63 q 25 313 25 218 l 25 347 q 41 473 25 407 q 95 596 57 539 q 199 689 133 653 q 365 725 265 725 q 492 714 438 725 q 589 688 546 703 q 665 636 633 671 q 692 553 696 601 q 683 417 686 479 q 679 296 681 354 q 678 176 678 238 q 678 39 678 114 q 661 -83 678 -22 q 606 -196 644 -144 q 501 -278 567 -247 q 338 -308 436 -308 m 324 199 q 377 213 353 199 q 417 255 401 228 q 433 317 433 282 q 436 397 433 361 q 439 464 439 432 q 435 483 439 478 q 424 497 432 489 q 401 506 415 503 q 365 510 386 510 q 319 498 336 510 q 292 465 301 486 q 278 413 282 443 q 275 347 275 383 l 275 313 q 285 221 275 243 q 324 199 294 199 m 181 1069 q 242 1050 215 1069 q 281 989 269 1031 q 310 949 289 964 q 357 935 331 935 q 394 939 376 935 q 422 952 411 943 q 432 976 432 961 q 463 1051 432 1018 q 535 1083 493 1083 l 536 1083 q 594 1066 568 1083 q 635 1022 619 1049 q 649 963 651 994 q 601 843 643 897 q 496 758 560 789 q 357 726 432 726 q 231 758 289 726 q 134 841 174 789 q 81 956 94 893 q 102 1038 72 1006 q 179 1069 132 1069 l 181 1069 z "},"ģ":{"ha":726,"x_min":25,"x_max":696,"o":"m 338 -308 q 228 -297 279 -308 q 149 -275 178 -285 q 93 -224 108 -258 q 86 -150 78 -190 q 136 -70 97 -96 q 221 -61 175 -44 q 276 -82 249 -71 q 338 -93 303 -93 q 383 -85 367 -93 q 408 -60 399 -76 q 421 -24 417 -44 q 420 -8 425 -11 q 408 -6 415 -4 q 381 -15 397 -8 q 342 -26 364 -21 q 289 -31 321 -31 q 136 16 194 -31 q 51 140 78 63 q 25 313 25 218 l 25 347 q 41 473 25 407 q 95 596 57 539 q 199 689 133 653 q 365 725 265 725 q 492 714 438 725 q 589 688 546 703 q 665 636 633 671 q 692 553 696 601 q 683 417 686 479 q 679 296 681 354 q 678 176 678 238 q 678 39 678 114 q 661 -83 678 -22 q 606 -196 644 -144 q 501 -278 567 -247 q 338 -308 436 -308 m 324 199 q 377 213 353 199 q 417 255 401 228 q 433 317 433 282 q 436 397 433 361 q 439 464 439 432 q 435 483 439 478 q 424 497 432 489 q 401 506 415 503 q 365 510 386 510 q 319 498 336 510 q 292 465 301 486 q 278 413 282 443 q 275 347 275 383 l 275 313 q 285 221 275 243 q 324 199 294 199 m 382 736 q 286 772 325 736 q 228 864 247 808 q 208 978 208 919 q 254 1133 208 1078 q 383 1200 300 1188 q 433 1186 415 1206 q 451 1133 451 1167 l 451 1129 q 393 1063 451 1069 q 354 1028 354 1056 q 382 1008 354 1008 l 382 736 m 382 1008 q 479 969 440 1008 q 518 872 518 931 q 479 776 518 815 q 382 736 440 736 q 285 776 325 736 q 246 872 246 815 q 285 969 246 931 q 382 1008 325 1008 z "},"ġ":{"ha":726,"x_min":25,"x_max":696,"o":"m 338 -308 q 228 -297 279 -308 q 149 -275 178 -285 q 93 -224 108 -258 q 86 -150 78 -190 q 136 -70 97 -96 q 221 -61 175 -44 q 276 -82 249 -71 q 338 -93 303 -93 q 383 -85 367 -93 q 408 -60 399 -76 q 421 -24 417 -44 q 420 -8 425 -11 q 408 -6 415 -4 q 381 -15 397 -8 q 342 -26 364 -21 q 289 -31 321 -31 q 136 16 194 -31 q 51 140 78 63 q 25 313 25 218 l 25 347 q 41 473 25 407 q 95 596 57 539 q 199 689 133 653 q 365 725 265 725 q 492 714 438 725 q 589 688 546 703 q 665 636 633 671 q 692 553 696 601 q 683 417 686 479 q 679 296 681 354 q 678 176 678 238 q 678 39 678 114 q 661 -83 678 -22 q 606 -196 644 -144 q 501 -278 567 -247 q 338 -308 436 -308 m 324 199 q 377 213 353 199 q 417 255 401 228 q 433 317 433 282 q 436 397 433 361 q 439 464 439 432 q 435 483 439 478 q 424 497 432 489 q 401 506 415 503 q 365 510 386 510 q 319 498 336 510 q 292 465 301 486 q 278 413 282 443 q 275 347 275 383 l 275 313 q 285 221 275 243 q 324 199 294 199 m 236 917 q 274 1008 236 971 q 364 1044 311 1044 q 455 1008 418 1044 q 492 917 492 971 q 455 826 492 864 q 364 789 418 789 q 274 826 311 789 q 236 917 236 864 z "},"ḡ":{"ha":726,"x_min":25,"x_max":711,"o":"m 338 -308 q 228 -297 279 -308 q 149 -275 178 -285 q 93 -224 108 -258 q 86 -150 78 -190 q 136 -70 97 -96 q 221 -61 175 -44 q 276 -82 249 -71 q 338 -93 303 -93 q 383 -85 367 -93 q 408 -60 399 -76 q 421 -24 417 -44 q 420 -8 425 -11 q 408 -6 415 -4 q 381 -15 397 -8 q 342 -26 364 -21 q 289 -31 321 -31 q 136 16 194 -31 q 51 140 78 63 q 25 313 25 218 l 25 347 q 41 473 25 407 q 95 596 57 539 q 199 689 133 653 q 365 725 265 725 q 492 714 438 725 q 589 688 546 703 q 665 636 633 671 q 692 553 696 601 q 683 417 686 479 q 679 296 681 354 q 678 176 678 238 q 678 39 678 114 q 661 -83 678 -22 q 606 -196 644 -144 q 501 -278 567 -247 q 338 -308 436 -308 m 324 199 q 377 213 353 199 q 417 255 401 228 q 433 317 433 282 q 436 397 433 361 q 439 464 439 432 q 435 483 439 478 q 424 497 432 489 q 401 506 415 503 q 365 510 386 510 q 319 498 336 510 q 292 465 301 486 q 278 413 282 443 q 275 347 275 383 l 275 313 q 285 221 275 243 q 324 199 294 199 m 711 926 q 694 870 711 897 q 650 826 676 843 q 593 813 624 810 q 136 813 364 833 q 60 844 90 808 q 31 926 31 879 l 31 928 q 58 1000 31 972 q 131 1028 86 1028 q 363 1030 247 1028 q 593 1042 478 1032 q 650 1028 624 1044 q 694 985 676 1011 q 711 928 711 958 l 711 926 z "},"h":{"ha":750,"x_min":32,"x_max":721,"o":"m 175 -31 q 104 -15 138 -31 q 51 30 71 1 q 35 96 32 58 q 44 362 42 236 q 48 614 47 488 q 49 879 49 740 q 83 969 49 935 q 175 1003 117 1003 q 246 986 214 1003 q 297 941 278 969 q 313 874 317 913 q 303 789 307 822 q 299 726 299 756 q 302 704 299 710 q 313 699 306 699 q 340 709 324 703 q 381 720 357 715 q 438 725 406 725 q 638 640 575 725 q 701 378 701 554 q 702 278 701 319 q 706 197 703 238 q 715 100 708 157 q 702 33 721 63 q 650 -14 683 3 q 578 -31 617 -31 q 504 -14 538 -31 q 451 33 471 3 q 438 100 432 63 q 447 197 444 157 q 451 278 450 238 q 451 378 451 319 q 449 463 451 435 q 435 501 446 492 q 403 510 425 510 q 352 492 376 510 q 313 445 328 475 q 299 378 299 415 q 299 278 299 319 q 303 197 300 238 q 313 100 306 157 q 299 33 318 63 q 247 -14 281 3 q 175 -31 214 -31 z "},"ħ":{"ha":750,"x_min":-53,"x_max":721,"o":"m 175 -31 q 104 -15 138 -31 q 51 30 71 1 q 35 96 32 58 q 44 362 42 236 q 48 614 47 488 q 49 879 49 740 q 83 969 49 935 q 175 1003 117 1003 q 246 986 214 1003 q 297 941 278 969 q 313 874 317 913 q 303 789 307 822 q 299 726 299 756 q 302 704 299 710 q 313 699 306 699 q 340 709 324 703 q 381 720 357 715 q 438 725 406 725 q 638 640 575 725 q 701 378 701 554 q 702 278 701 319 q 706 197 703 238 q 715 100 708 157 q 702 33 721 63 q 650 -14 683 3 q 578 -31 617 -31 q 504 -14 538 -31 q 451 33 471 3 q 438 100 432 63 q 447 197 444 157 q 451 278 450 238 q 451 378 451 319 q 449 463 451 435 q 435 501 446 492 q 403 510 425 510 q 352 492 376 510 q 313 445 328 475 q 299 378 299 415 q 299 278 299 319 q 303 197 300 238 q 313 100 306 157 q 299 33 318 63 q 247 -14 281 3 q 175 -31 214 -31 m 628 850 q 610 794 628 821 q 567 750 593 767 q 510 736 540 733 q 53 736 281 757 q -23 767 7 732 q -53 850 -53 803 l -53 851 q -25 924 -53 896 q 47 951 3 951 q 279 953 164 951 q 510 965 394 956 q 567 951 540 968 q 610 908 593 935 q 628 851 628 882 l 628 850 z "},"i":{"ha":375,"x_min":35,"x_max":340,"o":"m 189 -31 q 118 -15 151 -31 q 65 30 85 1 q 49 96 46 58 q 58 268 56 189 q 58 426 60 347 q 49 599 56 506 q 65 665 46 638 q 118 709 85 693 q 189 725 151 725 q 278 691 244 725 q 313 601 313 657 q 313 428 313 508 q 317 269 314 349 q 326 96 319 189 q 310 30 329 58 q 258 -15 290 1 q 189 -31 226 -31 m 188 750 q 111 771 146 750 q 56 826 76 792 q 35 903 35 861 q 56 981 35 946 q 111 1035 76 1015 q 188 1056 146 1056 q 265 1035 231 1056 q 320 981 300 1015 q 340 903 340 946 q 301 795 340 840 q 188 750 261 750 z "},"ı":{"ha":347,"x_min":32,"x_max":315,"o":"m 175 -31 q 104 -15 138 -31 q 51 30 71 1 q 35 96 32 58 q 44 268 42 189 q 44 426 46 347 q 35 599 42 506 q 51 665 32 638 q 104 709 71 693 q 175 725 138 725 q 265 691 231 725 q 299 601 299 657 q 299 428 299 508 q 303 269 300 349 q 313 96 306 189 q 296 30 315 58 q 244 -15 276 1 q 175 -31 213 -31 z "},"í":{"ha":347,"x_min":-19,"x_max":365,"o":"m 175 -31 q 104 -15 138 -31 q 51 30 71 1 q 35 96 32 58 q 44 268 42 189 q 44 426 46 347 q 35 599 42 506 q 51 665 32 638 q 104 709 71 693 q 175 725 138 725 q 265 691 231 725 q 299 601 299 657 q 299 428 299 508 q 303 269 300 349 q 313 96 306 189 q 296 30 315 58 q 244 -15 276 1 q 175 -31 213 -31 m 140 781 q 64 765 104 754 q 1 814 24 775 l 0 817 q -12 888 -19 851 q 31 947 -4 924 q 110 999 71 974 q 186 1058 149 1025 q 238 1084 208 1081 q 294 1075 267 1088 q 342 1035 322 1063 l 347 1026 q 363 961 365 1000 q 340 890 360 922 q 288 850 321 858 q 205 819 240 838 q 140 781 169 801 z "},"î":{"ha":347,"x_min":-118,"x_max":463,"o":"m 175 -31 q 104 -15 138 -31 q 51 30 71 1 q 35 96 32 58 q 44 268 42 189 q 44 426 46 347 q 35 599 42 506 q 51 665 32 638 q 104 709 71 693 q 175 725 138 725 q 265 691 231 725 q 299 601 299 657 q 299 428 299 508 q 303 269 300 349 q 313 96 306 189 q 296 30 315 58 q 244 -15 276 1 q 175 -31 213 -31 m 421 925 q 460 869 457 906 q 444 796 463 832 l 443 793 q 400 747 428 761 q 344 735 372 733 q 293 750 315 736 q 236 792 258 771 q 186 832 214 813 q 161 832 174 840 q 112 792 133 813 q 54 750 90 771 q -15 736 25 731 q -82 768 -56 742 l -85 771 q -117 847 -118 806 q -74 911 -115 889 q -10 948 -44 926 q 57 992 25 969 q 110 1035 89 1014 q 172 1061 138 1061 q 233 1039 206 1061 q 326 978 276 1008 q 421 925 376 949 z "},"ï":{"ha":347,"x_min":-100,"x_max":446,"o":"m 175 -31 q 104 -15 138 -31 q 51 30 71 1 q 35 96 32 58 q 44 268 42 189 q 44 426 46 347 q 35 599 42 506 q 51 665 32 638 q 104 709 71 693 q 175 725 138 725 q 265 691 231 725 q 299 601 299 657 q 299 428 299 508 q 303 269 300 349 q 313 96 306 189 q 296 30 315 58 q 244 -15 276 1 q 175 -31 213 -31 m 29 785 q -62 822 -25 785 q -100 914 -100 858 q -63 1005 -100 968 q 31 1042 -26 1042 q 120 1005 83 1042 q 157 914 157 968 q 120 822 157 858 q 29 785 83 785 m 318 799 q 226 835 264 799 q 189 928 189 872 q 226 1019 189 982 q 319 1056 263 1056 q 409 1019 372 1056 q 446 928 446 982 q 409 835 446 872 q 318 799 372 799 z "},"ì":{"ha":347,"x_min":-11,"x_max":378,"o":"m 175 -31 q 104 -15 138 -31 q 51 30 71 1 q 35 96 32 58 q 44 268 42 189 q 44 426 46 347 q 35 599 42 506 q 51 665 32 638 q 104 709 71 693 q 175 725 138 725 q 265 691 231 725 q 299 601 299 657 q 299 428 299 508 q 303 269 300 349 q 313 96 306 189 q 296 30 315 58 q 244 -15 276 1 q 175 -31 213 -31 m 310 949 q 361 881 344 925 q 357 800 378 838 l 356 797 q 290 753 333 757 q 203 774 246 749 q 126 817 164 797 q 51 849 89 836 q 4 887 19 860 q -10 946 -11 914 q 6 1006 -10 978 l 13 1017 q 82 1076 39 1061 q 158 1057 125 1090 q 238 995 206 1015 q 310 949 269 975 z "},"ī":{"ha":347,"x_min":-160,"x_max":521,"o":"m 175 -31 q 104 -15 138 -31 q 51 30 71 1 q 35 96 32 58 q 44 268 42 189 q 44 426 46 347 q 35 599 42 506 q 51 665 32 638 q 104 709 71 693 q 175 725 138 725 q 265 691 231 725 q 299 601 299 657 q 299 428 299 508 q 303 269 300 349 q 313 96 306 189 q 296 30 315 58 q 244 -15 276 1 q 175 -31 213 -31 m 521 926 q 503 870 521 897 q 460 826 486 843 q 403 813 433 810 q -54 813 174 833 q -130 844 -100 808 q -160 926 -160 879 l -160 928 q -132 1000 -160 972 q -60 1028 -104 1028 q 172 1030 57 1028 q 403 1042 288 1032 q 460 1028 433 1044 q 503 985 486 1011 q 521 928 521 958 l 521 926 z "},"į":{"ha":375,"x_min":35,"x_max":375,"o":"m 189 -31 q 118 -15 151 -31 q 65 30 85 1 q 49 96 46 58 q 58 268 56 189 q 58 426 60 347 q 49 599 56 506 q 65 665 46 638 q 118 709 85 693 q 189 725 151 725 q 278 691 244 725 q 313 601 313 657 q 313 428 313 508 q 317 269 314 349 q 326 96 319 189 q 310 30 329 58 q 258 -15 290 1 q 189 -31 226 -31 m 188 750 q 111 771 146 750 q 56 826 76 792 q 35 903 35 861 q 56 981 35 946 q 111 1035 76 1015 q 188 1056 146 1056 q 265 1035 231 1056 q 320 981 300 1015 q 340 903 340 946 q 301 795 340 840 q 188 750 261 750 m 247 -278 q 158 -251 200 -278 q 94 -181 115 -225 q 85 -79 74 -136 q 113 -21 92 -43 q 158 13 133 1 q 197 28 182 25 l 254 40 l 281 1 q 269 -5 281 1 q 247 -23 258 -11 q 235 -53 235 -35 q 242 -70 235 -64 q 263 -78 250 -76 q 288 -81 275 -81 q 349 -101 322 -81 q 375 -161 375 -121 q 335 -249 375 -219 q 247 -278 294 -278 z "},"ĩ":{"ha":347,"x_min":-114,"x_max":479,"o":"m 175 -31 q 104 -15 138 -31 q 51 30 71 1 q 35 96 32 58 q 44 268 42 189 q 44 426 46 347 q 35 599 42 506 q 51 665 32 638 q 104 709 71 693 q 175 725 138 725 q 265 691 231 725 q 299 601 299 657 q 299 428 299 508 q 303 269 300 349 q 313 96 306 189 q 296 30 315 58 q 244 -15 276 1 q 175 -31 213 -31 m -90 833 q -114 894 -114 861 q -89 954 -114 928 q -47 991 -72 971 q 10 1026 -22 1011 q 79 1042 43 1042 q 151 1026 125 1042 q 194 992 178 1011 q 226 960 210 974 q 265 951 242 947 q 286 965 276 954 q 307 985 296 976 q 372 1006 335 1006 q 436 981 408 1006 l 443 975 q 472 928 464 958 q 474 868 479 899 q 449 818 468 838 q 365 767 418 789 q 265 746 313 746 q 189 760 218 746 q 142 791 160 774 q 111 822 124 808 q 85 836 99 836 q 59 830 69 836 q 35 814 49 824 q -28 795 6 792 q -85 826 -61 799 l -90 833 z "},"ĳ":{"ha":732,"x_min":35,"x_max":697,"o":"m 189 -31 q 118 -15 151 -31 q 65 30 85 1 q 49 96 46 58 q 58 268 56 189 q 58 426 60 347 q 49 599 56 506 q 65 665 46 638 q 118 709 85 693 q 189 725 151 725 q 278 691 244 725 q 313 601 313 657 q 313 428 313 508 q 317 269 314 349 q 326 96 319 189 q 310 30 329 58 q 258 -15 290 1 q 189 -31 226 -31 m 188 750 q 111 771 146 750 q 56 826 76 792 q 35 903 35 861 q 56 981 35 946 q 111 1035 76 1015 q 188 1056 146 1056 q 265 1035 231 1056 q 320 981 300 1015 q 340 903 340 946 q 301 795 340 840 q 188 750 261 750 m 397 -308 q 319 -276 349 -306 q 289 -203 289 -246 q 316 -114 289 -151 q 388 -83 343 -76 q 410 -76 404 -86 q 419 -37 417 -65 q 421 39 421 -10 q 420 231 421 143 q 416 406 419 318 q 406 599 413 494 q 422 665 403 638 q 475 709 442 693 q 546 725 508 725 q 635 691 601 725 q 669 601 669 657 q 669 409 669 497 q 669 232 669 321 q 669 39 669 143 q 662 -88 669 -25 q 628 -203 654 -151 q 548 -283 603 -254 q 397 -308 493 -312 m 544 750 q 468 771 503 750 q 413 826 433 792 q 392 903 392 861 q 413 981 392 946 q 468 1035 433 1015 q 544 1056 503 1056 q 622 1035 588 1056 q 677 981 657 1015 q 697 903 697 946 q 677 826 697 861 q 622 771 657 792 q 544 750 588 750 z "},"j":{"ha":360,"x_min":-83,"x_max":325,"o":"m 25 -308 q -53 -276 -24 -306 q -83 -203 -83 -246 q -56 -114 -83 -151 q 15 -83 -29 -76 q 38 -76 32 -86 q 47 -37 44 -65 q 49 39 49 -10 q 48 231 49 143 q 44 406 47 318 q 33 599 40 494 q 50 665 31 638 q 103 709 69 693 q 174 725 136 725 q 263 691 229 725 q 297 601 297 657 q 297 409 297 497 q 297 232 297 321 q 297 39 297 143 q 290 -88 297 -25 q 256 -203 282 -151 q 176 -283 231 -254 q 25 -308 121 -312 m 172 750 q 96 771 131 750 q 40 826 61 792 q 19 903 19 861 q 40 981 19 946 q 96 1035 61 1015 q 172 1056 131 1056 q 250 1035 215 1056 q 305 981 285 1015 q 325 903 325 946 q 305 826 325 861 q 250 771 285 792 q 172 750 215 750 z "},"ȷ":{"ha":332,"x_min":-83,"x_max":297,"o":"m 25 -308 q -53 -276 -24 -306 q -83 -203 -83 -246 q -68 -139 -83 -168 q -28 -94 -53 -110 q 26 -83 -3 -78 q 42 -74 38 -85 q 48 -37 47 -64 q 49 39 49 -10 q 48 231 49 143 q 44 406 47 318 q 33 599 40 494 q 50 665 31 638 q 103 709 69 693 q 174 725 136 725 q 263 691 229 725 q 297 601 297 657 q 297 409 297 497 q 297 232 297 321 q 297 39 297 143 q 290 -88 297 -25 q 256 -203 282 -151 q 176 -283 231 -254 q 25 -308 121 -312 z "},"k":{"ha":725,"x_min":32,"x_max":718,"o":"m 175 -31 q 104 -15 138 -31 q 51 30 71 1 q 35 96 32 58 q 44 361 42 236 q 44 612 46 486 q 35 876 42 738 q 51 943 32 915 q 104 987 71 971 q 175 1003 138 1003 q 266 968 232 1003 q 299 876 300 933 q 290 716 292 799 q 286 551 288 633 q 297 523 285 529 q 321 535 310 517 q 360 589 343 563 q 390 640 376 615 q 446 703 411 681 q 551 725 481 725 q 614 705 589 725 q 649 655 639 685 q 651 592 660 625 q 614 536 643 560 l 524 453 q 524 411 497 433 q 608 327 571 375 q 669 224 644 279 q 708 110 694 169 q 701 37 718 68 q 650 -12 683 6 q 576 -31 617 -31 q 488 0 521 -31 q 447 85 454 31 q 433 151 443 122 q 410 201 424 179 q 378 238 396 222 q 336 235 357 261 l 313 206 q 299 168 299 190 l 299 93 q 265 3 299 38 q 175 -31 231 -31 z "},"ķ":{"ha":725,"x_min":32,"x_max":718,"o":"m 175 -31 q 104 -15 138 -31 q 51 30 71 1 q 35 96 32 58 q 44 361 42 236 q 44 612 46 486 q 35 876 42 738 q 51 943 32 915 q 104 987 71 971 q 175 1003 138 1003 q 266 968 232 1003 q 299 876 300 933 q 290 716 292 799 q 286 551 288 633 q 297 523 285 529 q 321 535 310 517 q 360 589 343 563 q 390 640 376 615 q 446 703 411 681 q 551 725 481 725 q 614 705 589 725 q 649 655 639 685 q 651 592 660 625 q 614 536 643 560 l 524 453 q 524 411 497 433 q 608 327 571 375 q 669 224 644 279 q 708 110 694 169 q 701 37 718 68 q 650 -12 683 6 q 576 -31 617 -31 q 488 0 521 -31 q 447 85 454 31 q 433 151 443 122 q 410 201 424 179 q 378 238 396 222 q 336 235 357 261 l 313 206 q 299 168 299 190 l 299 93 q 265 3 299 38 q 175 -31 231 -31 m 381 -351 q 342 -387 368 -372 q 282 -401 315 -401 l 276 -401 q 226 -388 250 -401 q 194 -349 203 -375 q 201 -287 185 -324 q 245 -197 229 -233 q 276 -110 261 -160 q 301 -76 281 -89 q 351 -56 321 -62 q 413 -49 381 -49 l 422 -49 q 476 -66 456 -49 q 501 -110 497 -83 q 490 -165 506 -136 q 436 -260 460 -219 q 381 -351 413 -300 z "},"l":{"ha":419,"x_min":32,"x_max":394,"o":"m 286 -29 q 148 -6 200 -35 q 70 75 96 24 q 38 190 44 126 q 36 314 32 253 q 46 508 43 418 q 49 687 49 597 q 50 881 50 776 q 84 970 50 936 q 176 1004 118 1004 q 249 988 215 1004 q 301 941 282 971 q 314 872 319 911 q 292 683 300 771 q 279 505 283 594 q 275 311 275 415 q 279 246 275 269 q 292 214 283 222 q 310 206 300 206 q 376 175 357 207 q 394 79 394 143 q 361 1 394 29 q 286 -29 328 -26 z "},"ĺ":{"ha":419,"x_min":17,"x_max":401,"o":"m 286 -29 q 148 -6 200 -35 q 70 75 96 24 q 38 190 44 126 q 36 314 32 253 q 46 508 43 418 q 49 687 49 597 q 50 881 50 776 q 84 970 50 936 q 176 1004 118 1004 q 249 988 215 1004 q 301 941 282 971 q 314 872 319 911 q 292 683 300 771 q 279 505 283 594 q 275 311 275 415 q 279 246 275 269 q 292 214 283 222 q 310 206 300 206 q 376 175 357 207 q 394 79 394 143 q 361 1 394 29 q 286 -29 328 -26 m 176 1058 q 100 1042 140 1032 q 38 1092 60 1053 l 36 1094 q 24 1165 17 1129 q 67 1225 32 1201 q 146 1277 107 1251 q 222 1336 185 1303 q 274 1362 244 1358 q 331 1353 303 1365 q 378 1313 358 1340 l 383 1304 q 399 1239 401 1278 q 376 1168 396 1200 q 324 1128 357 1136 q 241 1097 276 1115 q 176 1058 206 1079 z "},"ľ":{"ha":511,"x_min":32,"x_max":582,"o":"m 286 -29 q 148 -6 200 -35 q 70 75 96 24 q 38 190 44 126 q 36 314 32 253 q 46 508 43 418 q 49 687 49 597 q 50 881 50 776 q 84 970 50 936 q 176 1004 118 1004 q 249 988 215 1004 q 301 941 282 971 q 314 872 319 911 q 292 683 300 771 q 279 505 283 594 q 275 311 275 415 q 279 246 275 269 q 292 214 283 222 q 310 206 300 206 q 376 175 357 207 q 394 79 394 143 q 361 1 394 29 q 286 -29 328 -26 m 344 901 q 358 969 342 940 q 403 1015 375 999 q 460 1031 431 1031 l 463 1031 q 520 1015 493 1031 q 565 969 547 999 q 578 901 582 940 l 567 754 q 531 675 563 703 q 463 647 500 647 l 460 647 q 387 675 414 647 q 356 754 360 703 l 344 901 z "},"ļ":{"ha":419,"x_min":32,"x_max":394,"o":"m 286 -29 q 148 -6 200 -35 q 70 75 96 24 q 38 190 44 126 q 36 314 32 253 q 46 508 43 418 q 49 687 49 597 q 50 881 50 776 q 84 970 50 936 q 176 1004 118 1004 q 249 988 215 1004 q 301 941 282 971 q 314 872 319 911 q 292 683 300 771 q 279 505 283 594 q 275 311 275 415 q 279 246 275 269 q 292 214 283 222 q 310 206 300 206 q 376 175 357 207 q 394 79 394 143 q 361 1 394 29 q 286 -29 328 -26 m 236 -351 q 197 -387 224 -372 q 138 -401 171 -401 l 132 -401 q 82 -388 106 -401 q 49 -349 58 -375 q 57 -287 40 -324 q 101 -197 85 -233 q 132 -110 117 -160 q 156 -76 136 -89 q 206 -56 176 -62 q 268 -49 236 -49 l 278 -49 q 332 -66 311 -49 q 357 -110 353 -83 q 346 -165 361 -136 q 292 -260 315 -219 q 236 -351 268 -300 z "},"ŀ":{"ha":621,"x_min":32,"x_max":607,"o":"m 471 290 q 374 330 414 290 q 335 426 335 369 q 374 523 335 483 q 471 563 414 563 q 567 523 528 563 q 607 426 607 483 q 567 330 607 369 q 471 290 528 290 m 286 -29 q 148 -6 200 -35 q 70 75 96 24 q 38 190 44 126 q 36 314 32 253 q 46 508 43 418 q 49 687 49 597 q 50 881 50 776 q 84 970 50 936 q 176 1004 118 1004 q 249 988 215 1004 q 301 941 282 971 q 314 872 319 911 q 292 683 300 771 q 279 505 283 594 q 275 311 275 415 q 279 246 275 269 q 292 214 283 222 q 310 206 300 206 q 376 175 357 207 q 394 79 394 143 q 361 1 394 29 q 286 -29 328 -26 z "},"ł":{"ha":476,"x_min":0,"x_max":449,"o":"m 24 297 q 1 358 0 321 q 25 415 1 394 q 165 542 94 474 q 304 679 235 610 q 356 703 326 703 q 407 679 385 703 l 411 675 q 435 615 435 651 q 410 557 435 578 q 272 430 342 499 q 132 292 201 361 q 81 268 110 268 q 29 292 51 268 l 24 297 m 340 -29 q 202 -6 254 -35 q 124 75 150 24 q 92 190 99 126 q 90 314 86 253 q 100 508 97 418 q 103 687 103 597 q 104 881 104 776 q 138 970 104 936 q 231 1004 172 1004 q 303 988 269 1004 q 355 941 336 971 q 368 872 374 911 q 346 683 354 771 q 333 505 338 594 q 329 311 329 415 q 333 246 329 269 q 346 214 338 222 q 364 206 354 206 q 430 175 411 207 q 449 79 449 143 q 415 1 449 29 q 340 -29 382 -26 z "},"m":{"ha":1153,"x_min":31,"x_max":1124,"o":"m 175 -31 q 104 -15 138 -31 q 51 30 71 1 q 35 96 32 58 q 44 272 42 193 q 44 430 46 350 q 35 604 42 510 q 67 683 31 653 q 156 713 104 713 q 187 701 175 713 q 204 675 199 689 q 217 649 211 664 q 235 633 222 633 q 260 647 244 633 q 301 679 276 661 q 359 711 325 697 q 438 725 393 725 q 541 703 501 725 q 600 656 581 682 q 623 642 608 644 q 651 650 638 639 q 681 669 663 657 q 723 694 699 682 q 777 716 747 707 q 840 725 807 725 q 1041 640 978 725 q 1104 378 1104 554 q 1105 278 1104 319 q 1108 197 1106 238 q 1118 100 1111 157 q 1105 33 1124 63 q 1053 -14 1086 3 q 981 -31 1019 -31 q 907 -14 940 -31 q 854 33 874 3 q 840 100 835 63 q 850 197 847 157 q 853 278 853 238 q 854 378 854 319 q 844 481 854 453 q 806 510 833 510 q 755 492 779 510 q 716 445 731 475 q 701 378 701 415 q 702 278 701 319 q 706 197 703 238 q 715 100 708 157 q 702 33 721 63 q 650 -14 683 3 q 578 -31 617 -31 q 504 -14 538 -31 q 451 33 471 3 q 438 100 432 63 q 447 197 444 157 q 451 278 450 238 q 451 378 451 319 q 441 481 451 453 q 403 510 431 510 q 352 492 376 510 q 313 445 328 475 q 299 378 299 415 q 299 278 299 319 q 303 197 300 238 q 313 100 306 157 q 299 33 318 63 q 247 -14 281 3 q 175 -31 214 -31 z "},"n":{"ha":750,"x_min":31,"x_max":722,"o":"m 35 604 q 67 681 31 651 q 151 711 104 711 q 197 703 176 711 q 225 672 217 696 q 238 654 228 660 q 264 657 247 649 q 287 672 272 661 q 323 694 301 682 q 372 715 344 706 q 438 724 400 724 q 638 639 575 724 q 701 376 701 554 q 702 277 701 318 q 706 196 703 236 q 715 99 708 156 q 681 6 722 43 q 579 -31 640 -31 q 472 6 514 -31 q 438 99 431 43 q 447 196 444 156 q 451 277 450 236 q 451 376 451 318 q 441 480 451 451 q 403 508 431 508 q 352 491 376 508 q 313 444 328 474 q 299 376 299 414 q 299 277 299 318 q 303 196 300 236 q 313 99 306 156 q 278 6 319 43 q 176 -31 238 -31 q 73 4 115 -31 q 35 94 31 39 q 44 270 42 192 q 44 428 46 349 q 35 604 42 508 z "},"ń":{"ha":750,"x_min":31,"x_max":722,"o":"m 35 604 q 67 681 31 651 q 151 711 104 711 q 197 703 176 711 q 225 672 217 696 q 238 654 228 660 q 264 657 247 649 q 287 672 272 661 q 323 694 301 682 q 372 715 344 706 q 438 724 400 724 q 638 639 575 724 q 701 376 701 554 q 702 277 701 318 q 706 196 703 236 q 715 99 708 156 q 681 6 722 43 q 579 -31 640 -31 q 472 6 514 -31 q 438 99 431 43 q 447 196 444 156 q 451 277 450 236 q 451 376 451 318 q 441 480 451 451 q 403 508 431 508 q 352 491 376 508 q 313 444 328 474 q 299 376 299 414 q 299 277 299 318 q 303 196 300 236 q 313 99 306 156 q 278 6 319 43 q 176 -31 238 -31 q 73 4 115 -31 q 35 94 31 39 q 44 270 42 192 q 44 428 46 349 q 35 604 42 508 m 342 781 q 265 765 306 754 q 203 814 225 775 l 201 817 q 190 888 182 851 q 232 947 197 924 q 311 999 272 974 q 388 1058 350 1025 q 439 1084 410 1081 q 496 1075 468 1088 q 543 1035 524 1063 l 549 1026 q 564 961 567 1000 q 542 890 561 922 q 489 850 522 858 q 406 819 442 838 q 342 781 371 801 z "},"ň":{"ha":750,"x_min":31,"x_max":722,"o":"m 35 604 q 67 681 31 651 q 151 711 104 711 q 197 703 176 711 q 225 672 217 696 q 238 654 228 660 q 264 657 247 649 q 287 672 272 661 q 323 694 301 682 q 372 715 344 706 q 438 724 400 724 q 638 639 575 724 q 701 376 701 554 q 702 277 701 318 q 706 196 703 236 q 715 99 708 156 q 681 6 722 43 q 579 -31 640 -31 q 472 6 514 -31 q 438 99 431 43 q 447 196 444 156 q 451 277 450 236 q 451 376 451 318 q 441 480 451 451 q 403 508 431 508 q 352 491 376 508 q 313 444 328 474 q 299 376 299 414 q 299 277 299 318 q 303 196 300 236 q 313 99 306 156 q 278 6 319 43 q 176 -31 238 -31 q 73 4 115 -31 q 35 94 31 39 q 44 270 42 192 q 44 428 46 349 q 35 604 42 508 m 649 1015 q 661 972 663 996 q 647 925 660 947 q 611 889 633 903 q 517 831 556 856 q 435 774 478 806 q 315 774 375 728 q 225 845 268 810 q 142 901 182 881 q 99 953 108 919 q 104 1015 89 986 l 107 1019 q 169 1076 131 1068 q 243 1063 208 1085 q 303 1022 276 1042 q 364 979 329 1001 q 372 976 368 978 q 382 979 376 975 q 433 1026 411 1000 q 494 1076 456 1053 q 570 1081 528 1097 q 646 1019 613 1065 l 649 1015 z "},"ņ":{"ha":750,"x_min":31,"x_max":722,"o":"m 35 604 q 67 681 31 651 q 151 711 104 711 q 197 703 176 711 q 225 672 217 696 q 238 654 228 660 q 264 657 247 649 q 287 672 272 661 q 323 694 301 682 q 372 715 344 706 q 438 724 400 724 q 638 639 575 724 q 701 376 701 554 q 702 277 701 318 q 706 196 703 236 q 715 99 708 156 q 681 6 722 43 q 579 -31 640 -31 q 472 6 514 -31 q 438 99 431 43 q 447 196 444 156 q 451 277 450 236 q 451 376 451 318 q 441 480 451 451 q 403 508 431 508 q 352 491 376 508 q 313 444 328 474 q 299 376 299 414 q 299 277 299 318 q 303 196 300 236 q 313 99 306 156 q 278 6 319 43 q 176 -31 238 -31 q 73 4 115 -31 q 35 94 31 39 q 44 270 42 192 q 44 428 46 349 q 35 604 42 508 m 401 -351 q 363 -387 389 -372 q 303 -401 336 -401 l 297 -401 q 247 -388 271 -401 q 215 -349 224 -375 q 222 -287 206 -324 q 266 -197 250 -233 q 297 -110 282 -160 q 322 -76 301 -89 q 372 -56 342 -62 q 433 -49 401 -49 l 443 -49 q 497 -66 476 -49 q 522 -110 518 -83 q 511 -165 526 -136 q 457 -260 481 -219 q 401 -351 433 -300 z "},"ñ":{"ha":750,"x_min":31,"x_max":722,"o":"m 35 604 q 67 681 31 651 q 151 711 104 711 q 197 703 176 711 q 225 672 217 696 q 238 654 228 660 q 264 657 247 649 q 287 672 272 661 q 323 694 301 682 q 372 715 344 706 q 438 724 400 724 q 638 639 575 724 q 701 376 701 554 q 702 277 701 318 q 706 196 703 236 q 715 99 708 156 q 681 6 722 43 q 579 -31 640 -31 q 472 6 514 -31 q 438 99 431 43 q 447 196 444 156 q 451 277 450 236 q 451 376 451 318 q 441 480 451 451 q 403 508 431 508 q 352 491 376 508 q 313 444 328 474 q 299 376 299 414 q 299 277 299 318 q 303 196 300 236 q 313 99 306 156 q 278 6 319 43 q 176 -31 238 -31 q 73 4 115 -31 q 35 94 31 39 q 44 270 42 192 q 44 428 46 349 q 35 604 42 508 m 111 833 q 88 894 88 861 q 113 954 88 928 q 154 991 129 971 q 212 1026 179 1011 q 281 1042 244 1042 q 353 1026 326 1042 q 395 992 379 1011 q 427 960 411 974 q 467 951 443 947 q 488 965 478 954 q 508 985 497 976 q 573 1006 536 1006 q 638 981 610 1006 l 644 975 q 673 928 665 958 q 675 868 681 899 q 650 818 669 838 q 567 767 619 789 q 467 746 514 746 q 390 760 419 746 q 343 791 361 774 q 313 822 325 808 q 286 836 300 836 q 260 830 271 836 q 236 814 250 824 q 174 795 207 792 q 117 826 140 799 l 111 833 z "},"o":{"ha":731,"x_min":25,"x_max":706,"o":"m 706 313 q 690 209 706 267 q 635 97 674 151 q 531 6 597 42 q 365 -31 465 -31 q 199 6 265 -31 q 95 97 133 42 q 41 209 57 151 q 25 313 25 267 l 25 347 q 41 473 25 407 q 95 596 57 539 q 199 689 133 653 q 365 725 265 725 q 531 689 465 725 q 635 596 597 653 q 690 473 674 539 q 706 347 706 407 l 706 313 m 456 347 q 451 410 456 381 q 435 463 446 440 q 406 497 424 485 q 365 510 389 510 q 324 497 342 510 q 296 463 307 485 q 280 410 285 440 q 275 347 275 381 l 275 313 q 281 269 275 290 q 297 233 286 249 q 326 208 308 217 q 365 199 343 199 q 405 208 388 199 q 433 233 422 217 q 450 269 444 249 q 456 313 456 290 l 456 347 z "},"ó":{"ha":731,"x_min":25,"x_max":706,"o":"m 706 313 q 690 209 706 267 q 635 97 674 151 q 531 6 597 42 q 365 -31 465 -31 q 199 6 265 -31 q 95 97 133 42 q 41 209 57 151 q 25 313 25 267 l 25 347 q 41 473 25 407 q 95 596 57 539 q 199 689 133 653 q 365 725 265 725 q 531 689 465 725 q 635 596 597 653 q 690 473 674 539 q 706 347 706 407 l 706 313 m 456 347 q 451 410 456 381 q 435 463 446 440 q 406 497 424 485 q 365 510 389 510 q 324 497 342 510 q 296 463 307 485 q 280 410 285 440 q 275 347 275 381 l 275 313 q 281 269 275 290 q 297 233 286 249 q 326 208 308 217 q 365 199 343 199 q 405 208 388 199 q 433 233 422 217 q 450 269 444 249 q 456 313 456 290 l 456 347 m 332 781 q 256 765 296 754 q 193 814 215 775 l 192 817 q 180 888 172 851 q 222 947 188 924 q 301 999 263 974 q 378 1058 340 1025 q 429 1084 400 1081 q 486 1075 458 1088 q 533 1035 514 1063 l 539 1026 q 554 961 557 1000 q 532 890 551 922 q 479 850 513 858 q 397 819 432 838 q 332 781 361 801 z "},"ô":{"ha":731,"x_min":25,"x_max":706,"o":"m 706 313 q 690 209 706 267 q 635 97 674 151 q 531 6 597 42 q 365 -31 465 -31 q 199 6 265 -31 q 95 97 133 42 q 41 209 57 151 q 25 313 25 267 l 25 347 q 41 473 25 407 q 95 596 57 539 q 199 689 133 653 q 365 725 265 725 q 531 689 465 725 q 635 596 597 653 q 690 473 674 539 q 706 347 706 407 l 706 313 m 456 347 q 451 410 456 381 q 435 463 446 440 q 406 497 424 485 q 365 510 389 510 q 324 497 342 510 q 296 463 307 485 q 280 410 285 440 q 275 347 275 381 l 275 313 q 281 269 275 290 q 297 233 286 249 q 326 208 308 217 q 365 199 343 199 q 405 208 388 199 q 433 233 422 217 q 450 269 444 249 q 456 313 456 290 l 456 347 m 613 925 q 651 869 649 906 q 636 796 654 832 l 635 793 q 592 747 619 761 q 535 735 564 733 q 485 750 507 736 q 428 792 450 771 q 378 832 406 813 q 353 832 365 840 q 303 792 325 813 q 246 750 282 771 q 176 736 217 731 q 110 768 136 742 l 107 771 q 75 847 74 806 q 118 911 76 889 q 182 948 147 926 q 249 992 217 969 q 301 1035 281 1014 q 363 1061 329 1061 q 425 1039 397 1061 q 518 978 468 1008 q 613 925 568 949 z "},"ö":{"ha":731,"x_min":25,"x_max":706,"o":"m 706 313 q 690 209 706 267 q 635 97 674 151 q 531 6 597 42 q 365 -31 465 -31 q 199 6 265 -31 q 95 97 133 42 q 41 209 57 151 q 25 313 25 267 l 25 347 q 41 473 25 407 q 95 596 57 539 q 199 689 133 653 q 365 725 265 725 q 531 689 465 725 q 635 596 597 653 q 690 473 674 539 q 706 347 706 407 l 706 313 m 456 347 q 451 410 456 381 q 435 463 446 440 q 406 497 424 485 q 365 510 389 510 q 324 497 342 510 q 296 463 307 485 q 280 410 285 440 q 275 347 275 381 l 275 313 q 281 269 275 290 q 297 233 286 249 q 326 208 308 217 q 365 199 343 199 q 405 208 388 199 q 433 233 422 217 q 450 269 444 249 q 456 313 456 290 l 456 347 m 221 785 q 129 822 167 785 q 92 914 92 858 q 128 1005 92 968 q 222 1042 165 1042 q 312 1005 275 1042 q 349 914 349 968 q 312 822 349 858 q 221 785 275 785 m 510 799 q 418 835 456 799 q 381 928 381 872 q 417 1019 381 982 q 511 1056 454 1056 q 601 1019 564 1056 q 638 928 638 982 q 601 835 638 872 q 510 799 564 799 z "},"ò":{"ha":731,"x_min":25,"x_max":706,"o":"m 706 313 q 690 209 706 267 q 635 97 674 151 q 531 6 597 42 q 365 -31 465 -31 q 199 6 265 -31 q 95 97 133 42 q 41 209 57 151 q 25 313 25 267 l 25 347 q 41 473 25 407 q 95 596 57 539 q 199 689 133 653 q 365 725 265 725 q 531 689 465 725 q 635 596 597 653 q 690 473 674 539 q 706 347 706 407 l 706 313 m 456 347 q 451 410 456 381 q 435 463 446 440 q 406 497 424 485 q 365 510 389 510 q 324 497 342 510 q 296 463 307 485 q 280 410 285 440 q 275 347 275 381 l 275 313 q 281 269 275 290 q 297 233 286 249 q 326 208 308 217 q 365 199 343 199 q 405 208 388 199 q 433 233 422 217 q 450 269 444 249 q 456 313 456 290 l 456 347 m 501 949 q 553 881 536 925 q 549 800 569 838 l 547 797 q 481 753 525 757 q 394 774 438 749 q 318 817 356 797 q 243 849 281 836 q 196 887 211 860 q 181 946 181 914 q 197 1006 182 978 l 204 1017 q 274 1076 231 1061 q 350 1057 317 1090 q 429 995 397 1015 q 501 949 461 975 z "},"ő":{"ha":731,"x_min":25,"x_max":725,"o":"m 706 313 q 690 209 706 267 q 635 97 674 151 q 531 6 597 42 q 365 -31 465 -31 q 199 6 265 -31 q 95 97 133 42 q 41 209 57 151 q 25 313 25 267 l 25 347 q 41 473 25 407 q 95 596 57 539 q 199 689 133 653 q 365 725 265 725 q 531 689 465 725 q 635 596 597 653 q 690 473 674 539 q 706 347 706 407 l 706 313 m 456 347 q 451 410 456 381 q 435 463 446 440 q 406 497 424 485 q 365 510 389 510 q 324 497 342 510 q 296 463 307 485 q 280 410 285 440 q 275 347 275 381 l 275 313 q 281 269 275 290 q 297 233 286 249 q 326 208 308 217 q 365 199 343 199 q 405 208 388 199 q 433 233 422 217 q 450 269 444 249 q 456 313 456 290 l 456 347 m 308 782 q 267 744 296 758 q 206 729 239 729 l 200 729 q 133 763 156 729 q 135 849 110 797 q 185 953 163 903 q 224 1054 208 1004 q 248 1090 231 1076 q 292 1111 265 1104 q 350 1118 318 1118 l 360 1118 q 417 1099 394 1118 q 444 1053 439 1081 q 432 996 449 1025 q 371 889 401 943 q 308 782 340 835 m 571 782 q 530 744 558 758 q 468 729 501 729 l 463 729 q 395 763 418 729 q 397 849 372 797 q 451 956 425 903 q 504 1064 478 1010 q 542 1103 515 1088 q 613 1118 569 1118 l 622 1118 q 687 1097 661 1118 q 719 1047 713 1076 q 704 989 726 1017 q 634 886 665 938 q 571 782 603 835 z "},"ō":{"ha":731,"x_min":25,"x_max":713,"o":"m 706 313 q 690 209 706 267 q 635 97 674 151 q 531 6 597 42 q 365 -31 465 -31 q 199 6 265 -31 q 95 97 133 42 q 41 209 57 151 q 25 313 25 267 l 25 347 q 41 473 25 407 q 95 596 57 539 q 199 689 133 653 q 365 725 265 725 q 531 689 465 725 q 635 596 597 653 q 690 473 674 539 q 706 347 706 407 l 706 313 m 456 347 q 451 410 456 381 q 435 463 446 440 q 406 497 424 485 q 365 510 389 510 q 324 497 342 510 q 296 463 307 485 q 280 410 285 440 q 275 347 275 381 l 275 313 q 281 269 275 290 q 297 233 286 249 q 326 208 308 217 q 365 199 343 199 q 405 208 388 199 q 433 233 422 217 q 450 269 444 249 q 456 313 456 290 l 456 347 m 713 926 q 695 870 713 897 q 651 826 678 843 q 594 813 625 810 q 138 813 365 833 q 62 844 92 808 q 32 926 32 879 l 32 928 q 60 1000 32 972 q 132 1028 88 1028 q 364 1030 249 1028 q 594 1042 479 1032 q 651 1028 625 1044 q 695 985 678 1011 q 713 928 713 958 l 713 926 z "},"ø":{"ha":725,"x_min":-17,"x_max":710,"o":"m 18 22 q -7 60 3 38 q -15 106 -17 83 q 4 140 -12 128 q 221 319 115 228 q 418 499 326 411 q 579 664 510 588 q 632 703 604 693 q 682 689 660 713 l 686 685 q 708 626 710 661 q 664 556 707 592 q 469 381 558 468 q 297 203 381 293 q 126 18 214 113 q 76 -6 106 -6 q 22 18 46 -6 l 18 22 m 706 313 q 690 209 706 267 q 635 97 674 151 q 531 6 597 42 q 365 -31 465 -31 q 199 6 265 -31 q 95 97 133 42 q 41 209 57 151 q 25 313 25 267 l 25 347 q 41 473 25 407 q 95 596 57 539 q 199 689 133 653 q 365 725 265 725 q 531 689 465 725 q 635 596 597 653 q 690 473 674 539 q 706 347 706 407 l 706 313 m 456 347 q 451 410 456 381 q 435 463 446 440 q 406 497 424 485 q 365 510 389 510 q 324 497 342 510 q 296 463 307 485 q 280 410 285 440 q 275 347 275 381 l 275 313 q 281 269 275 290 q 297 233 286 249 q 326 208 308 217 q 365 199 343 199 q 405 208 388 199 q 433 233 422 217 q 450 269 444 249 q 456 313 456 290 l 456 347 z "}}}
